<?xml version="1.0" encoding="UTF-8" standalone="no"?>
<svg
   viewBox="0 0 22 22"
   version="1.1"
   id="svg1"
   xmlns="http://www.w3.org/2000/svg"
   xmlns:svg="http://www.w3.org/2000/svg">
  <defs
     id="defs3051">
    <style
       type="text/css"
       id="current-color-scheme">
      .ColorScheme-Text {
        color:#232629;
      }
      </style>
  </defs>
  <circle
     style="fill:#eff0f1;fill-opacity:1;stroke:none;stroke-width:1.14709;stroke-dasharray:none;stroke-opacity:1"
     id="path2"
     cx="11"
     cy="11"
     r="11" />
  <path
     id="path1"
     style="fill:#232629;fill-opacity:1;stroke:none;stroke-width:0.937481"
     class="ColorScheme-Text"
     d="M 15.246343,3 C 11.497204,6.7465417 7.7509284,10.499996 4,14.242217 c 0,1.25239 0,2.504779 0,3.757169 1.2512602,-0.0024 2.5121654,0.0049 3.7573223,-0.0037 C 11.503647,14.247121 15.259848,10.498386 19,6.7498563 17.748734,5.5011394 16.497593,4.2425549 15.24625,3.0000094 M 13.37308,6.198731 c 0.809326,0.8092932 1.618653,1.6185864 2.427979,2.4278796 -2.371216,2.3711194 -4.742432,4.7422384 -7.1136484,7.1133574 0,-0.496806 0,-0.993612 0,-1.490418 -0.6250001,0 -1.2500001,0 -1.8750002,0 0,-0.496806 0,-0.993612 0,-1.490418 2.1868899,-2.1868 4.3737806,-4.3736006 6.5606696,-6.560401 z m -7.4981698,7.497863 c 0,0.496806 0,0.993612 0,1.490418 0.6250001,0 1.2500002,0 1.8750003,0 0,0.496806 0,0.993612 0,1.490418 -0.1972866,0.166083 -0.3381272,0.468414 -0.6389879,0.384494 -0.4119735,0 -0.823947,0 -1.2359205,0 -0.3125,-0.312487 -0.6250001,-0.624975 -0.9375001,-0.937462 0,-0.496806 0,-0.993612 0,-1.490418 0.3125,-0.312486 0.6250001,-0.624974 0.9375001,-0.937461" />
</svg>
