<?xml version="1.0" encoding="UTF-8" standalone="no"?>
<svg
   viewBox="0 0 22 22"
   version="1.1"
   id="svg1"
   xmlns="http://www.w3.org/2000/svg"
   xmlns:svg="http://www.w3.org/2000/svg">
  <defs
     id="defs3051">
    <style
       type="text/css"
       id="current-color-scheme">
      .ColorScheme-Text {
        color:#232629;
      }
      </style>
  </defs>
  <path
     id="path9"
     style="color:#232629;fill:#232629;fill-opacity:1;stroke:none"
     d="M 3 0 L 0 4 L 12 4 L 16 0 L 3 0 z M 17.292969 0 L 2 15.292969 L 2.7070312 16 L 18 0.70703125 L 17.292969 0 z M 3 6 L 0 10 L 6 10 L 10 6 L 3 6 z M 14 6 L 12.714844 7.2851562 C 12.867113 7.2796419 13.019136 7.2729166 13.171875 7.2753906 C 14.709996 7.2491428 16.304529 7.6625408 17.451172 8.734375 C 17.466224 8.723256 17.600534 8.8620113 17.763672 8.9824219 L 20 6 L 14 6 z " />
  <path
     id="path824"
     style="fill:#232629;fill-opacity:1;stroke:none;stroke-width:1.25px;stroke-linecap:butt;stroke-linejoin:miter;stroke-opacity:1"
     d="m 13.25,9.2734375 c -1.101853,0 -2.083376,0.1982689 -2.947266,0.5449219 L 3.3476562,16.773438 h 2.2539063 c -0.106075,2.657645 1.1921965,5 3.8984375,5 2.731755,1e-6 4.748387,-0.954603 6.464844,-2.65625 0.699252,2.612809 2.10723,4.211912 6.035156,1.40625 -2.901659,0 -3.743165,-1.685131 -4.121094,-3.75 H 22 v -2.5 H 19.40625 C 20.244332,12.778396 21.085781,11.101877 22,9.2734375 H 19.5 C 19.06993,10.133579 18.338095,11.65914 17.417969,13.287109 17.062079,11.104078 16.27404,9.2734375 13.25,9.2734375 Z m 0,1.9023435 c 1.102806,0 1.554928,1.351836 1.869141,3.097657 H 9.1171875 C 9.8324945,12.586995 11.235567,11.175781 13.25,11.175781 Z M 2,16.707031 v 0.06641 h 0.066406 z m 6.5722656,0.06641 h 6.5878904 c -1.357675,1.759803 -2.883947,3.099609 -4.410156,3.099609 -1.511645,0 -2.2091504,-1.411952 -2.1777344,-3.099609 z" />
</svg>
