<?xml version="1.0" encoding="UTF-8" standalone="no"?>
<svg
   viewBox="0 0 22 22"
   version="1.1"
   id="svg1"
   xmlns="http://www.w3.org/2000/svg"
   xmlns:svg="http://www.w3.org/2000/svg">
  <defs
     id="defs3051">
    <style
       type="text/css"
       id="current-color-scheme">
      .ColorScheme-Text {
        color:#232629;
      }
      </style>
  </defs>
  <circle
     style="fill:#eff0f1;fill-opacity:1;stroke:none;stroke-width:1.14709;stroke-dasharray:none;stroke-opacity:1"
     id="path2"
     cx="11"
     cy="11"
     r="11" />
  <path
     id="path611"
     style="color:#232629;fill:currentColor;fill-opacity:1;stroke:none;stroke-width:0.874947"
     class="ColorScheme-Text"
     d="M 4,4 V 4.001708 4.8766012 16.144268 L 4.875,15.269374 V 4.876602 H 7.5 v 3.4995724 0.8748932 h 3.394042 l 0.875,-0.8748932 H 8.375 V 4.876602 h 3.412843 V 8.3573782 L 14.500001,5.6455509 V 4.876602 h 0.256346 L 15.012696,5.1329185 15.631347,4.5143414 15.118653,4 15.111853,4.00855 V 4 H 14.500001 Z M 17.381347,4.0017087 4,17.381423 4.6186523,18 18,4.6202856 Z m 0.105957,2.3683632 -0.618651,0.618577 0.256347,0.2563166 v 0.2563158 9.6238247 h -1.75 V 11.000854 H 14.5 12.855957 l -0.874999,0.874894 h 2.519043 v 5.249358 H 7.5 V 16.356157 L 5.855957,18 H 18 V 17.125106 7.5012813 6.8895398 H 17.9932 L 18,6.8809921 Z M 6.625,11.000854 v 2.518735 L 7.5,12.644697 v -0.768949 h 0.769043 l 0.875,-0.874894 H 7.5 Z" />
</svg>
