<?xml version="1.0" encoding="UTF-8" standalone="no"?>
<svg
   height="16"
   width="16"
   version="1.1"
   id="svg4"
   xmlns="http://www.w3.org/2000/svg"
   xmlns:svg="http://www.w3.org/2000/svg">
  <defs
     id="defs4" />
  <path
     id="path1"
     style="fill:#232629;fill-opacity:0.5;stroke-width:1.03398"
     d="M 9.5904594,2.6984688 A 3.7110718,3.7110718 0 0 0 5.9125221,5.9125221 3.7110718,3.7110718 0 0 0 2.6984688,9.5904594 3.7110718,3.7110718 0 0 0 6.4095406,13.301531 3.7110718,3.7110718 0 0 0 10.087478,10.087478 3.7110718,3.7110718 0 0 0 13.301531,6.4095406 3.7110718,3.7110718 0 0 0 9.5904594,2.6984688 Z" />
  <path
     id="path4-5"
     style="fill:#232629;fill-opacity:1;stroke-width:2.13939"
     d="M 9.5 2 A 4.5 4.5 0 0 0 5.1992188 5.1992188 A 4.5 4.5 0 0 0 2 9.5 A 4.5 4.5 0 0 0 6.5 14 A 4.5 4.5 0 0 0 10.800781 10.800781 A 4.5 4.5 0 0 0 14 6.5 A 4.5 4.5 0 0 0 9.5 2 z M 9.5 3 A 3.5 3.5 0 0 1 13 6.5 A 3.5 3.5 0 0 1 12.964844 6.9804688 A 3.5 3.5 0 0 1 12.941406 7.0996094 A 3.5 3.5 0 0 1 12.869141 7.4394531 A 3.5 3.5 0 0 1 12.804688 7.6308594 A 3.5 3.5 0 0 1 12.710938 7.8828125 A 3.5 3.5 0 0 1 12.613281 8.0820312 A 3.5 3.5 0 0 1 12.492188 8.3066406 A 3.5 3.5 0 0 1 12.371094 8.4902344 A 3.5 3.5 0 0 1 12.212891 8.703125 A 3.5 3.5 0 0 1 12.085938 8.8496094 A 3.5 3.5 0 0 1 11.888672 9.0507812 A 3.5 3.5 0 0 1 11.726562 9.1933594 A 3.5 3.5 0 0 1 11.517578 9.3515625 A 3.5 3.5 0 0 1 11.355469 9.4628906 A 3.5 3.5 0 0 1 11.099609 9.6054688 A 3.5 3.5 0 0 1 10.996094 9.6640625 A 4.5 4.5 0 0 0 10.996094 9.65625 A 3.5 3.5 0 0 1 9.96875 9.96875 A 3.5 3.5 0 0 1 9.65625 10.996094 A 4.5 4.5 0 0 0 9.6640625 10.996094 A 3.5 3.5 0 0 1 9.6054688 11.099609 A 3.5 3.5 0 0 1 9.4628906 11.355469 A 3.5 3.5 0 0 1 9.3515625 11.517578 A 3.5 3.5 0 0 1 9.1933594 11.726562 A 3.5 3.5 0 0 1 9.0507812 11.888672 A 3.5 3.5 0 0 1 8.8496094 12.085938 A 3.5 3.5 0 0 1 8.703125 12.212891 A 3.5 3.5 0 0 1 8.4902344 12.371094 A 3.5 3.5 0 0 1 8.3066406 12.492188 A 3.5 3.5 0 0 1 8.0820312 12.613281 A 3.5 3.5 0 0 1 7.8828125 12.710938 A 3.5 3.5 0 0 1 7.6308594 12.804688 A 3.5 3.5 0 0 1 7.4394531 12.869141 A 3.5 3.5 0 0 1 7.0996094 12.941406 A 3.5 3.5 0 0 1 6.9804688 12.964844 A 3.5 3.5 0 0 1 6.5 13 A 3.5 3.5 0 0 1 3 9.5 A 3.5 3.5 0 0 1 3.0351562 9.0195312 A 3.5 3.5 0 0 1 3.0585938 8.9003906 A 3.5 3.5 0 0 1 3.1308594 8.5605469 A 3.5 3.5 0 0 1 3.1953125 8.3691406 A 3.5 3.5 0 0 1 3.2890625 8.1171875 A 3.5 3.5 0 0 1 3.3867188 7.9179688 A 3.5 3.5 0 0 1 3.5078125 7.6933594 A 3.5 3.5 0 0 1 3.6289062 7.5097656 A 3.5 3.5 0 0 1 3.7871094 7.296875 A 3.5 3.5 0 0 1 3.9140625 7.1503906 A 3.5 3.5 0 0 1 4.1113281 6.9492188 A 3.5 3.5 0 0 1 4.2734375 6.8066406 A 3.5 3.5 0 0 1 4.4824219 6.6484375 A 3.5 3.5 0 0 1 4.6445312 6.5371094 A 3.5 3.5 0 0 1 4.9003906 6.3945312 A 3.5 3.5 0 0 1 5.0039062 6.3359375 A 4.5 4.5 0 0 0 5.0039062 6.34375 A 3.5 3.5 0 0 1 6.03125 6.03125 A 3.5 3.5 0 0 1 6.34375 5.0039062 A 4.5 4.5 0 0 0 6.3359375 5.0039062 A 3.5 3.5 0 0 1 6.3945312 4.9003906 A 3.5 3.5 0 0 1 6.5371094 4.6445312 A 3.5 3.5 0 0 1 6.6484375 4.4824219 A 3.5 3.5 0 0 1 6.8066406 4.2734375 A 3.5 3.5 0 0 1 6.9492188 4.1113281 A 3.5 3.5 0 0 1 7.1503906 3.9140625 A 3.5 3.5 0 0 1 7.296875 3.7871094 A 3.5 3.5 0 0 1 7.5097656 3.6289062 A 3.5 3.5 0 0 1 7.6933594 3.5078125 A 3.5 3.5 0 0 1 7.9179688 3.3867188 A 3.5 3.5 0 0 1 8.1171875 3.2890625 A 3.5 3.5 0 0 1 8.3691406 3.1953125 A 3.5 3.5 0 0 1 8.5605469 3.1308594 A 3.5 3.5 0 0 1 8.9003906 3.0585938 A 3.5 3.5 0 0 1 9.0195312 3.0351562 A 3.5 3.5 0 0 1 9.5 3 z " />
</svg>
