<?xml version="1.0" encoding="UTF-8" standalone="no"?>
<svg
   viewBox="0 0 22 22"
   version="1.1"
   id="svg1"
   xmlns="http://www.w3.org/2000/svg"
   xmlns:svg="http://www.w3.org/2000/svg">
  <defs
     id="defs3051">
    <style
       type="text/css"
       id="current-color-scheme">
      .ColorScheme-Text {
        color:#232629;
      }
      </style>
  </defs>
  <path
     id="path1"
     style="fill:#232629;fill-opacity:1;stroke:none"
     class="ColorScheme-Text"
     d="M 12 3 C 7.568002 3 4 6.568002 4 11 L 4 15.878906 L 5.0019531 14.876953 L 5 11 C 5 7.122001 8.122001 4 12 4 C 13.130882 4 14.196996 4.2659703 15.140625 4.7382812 L 15.882812 3.9960938 C 14.734481 3.36046 13.410527 3 12 3 z M 18.292969 3 L 3 18.292969 L 3.7070312 19 L 19 3.7070312 L 18.292969 3 z M 11 5 L 11 8.8789062 L 12 7.8789062 L 12 5 L 11 5 z M 18.195312 5.9257812 L 17.482422 6.6386719 C 18.432787 7.8334414 19 9.3478361 19 11 C 19 14.877999 15.877999 18 12 18 C 10.912961 18 9.9161258 17.708032 9 17.269531 L 9 18.396484 C 9.9282045 18.771496 10.934287 19 12 19 C 16.431998 19 20 15.431998 20 11 C 20 9.0707214 19.324482 7.3045737 18.195312 5.9257812 z M 13.121094 11 L 12.121094 12 L 17 12 L 17 11 L 13.121094 11 z M 2.65625 14.552734 L 2 15.248047 L 3.2558594 16.623047 L 3.9375 15.941406 L 2.65625 14.552734 z " />
</svg>
