<?xml version="1.0" encoding="UTF-8" standalone="no"?>
<svg
   viewBox="0 0 22 22"
   version="1.1"
   id="svg1"
   xmlns="http://www.w3.org/2000/svg"
   xmlns:svg="http://www.w3.org/2000/svg">
  <defs
     id="defs3051">
    <style
       type="text/css"
       id="current-color-scheme">
      .ColorScheme-Text {
        color:#232629;
      }
      </style>
  </defs>
  <path
     id="path1"
     style="fill:currentColor;fill-opacity:1;stroke:none"
     class="ColorScheme-Text"
     d="M 19.513662 4.0078025 A 2 9 45 0 0 12.068349 9.1054588 A 2 9 45 0 0 8.5253806 13.21874 C 9.6014406 13.56138 10.440553 14.400484 10.783193 15.476553 A 2 9 45 0 0 14.804678 12.025381 C 15.233271 11.183401 15.686514 10.352851 16.121084 9.5214744 L 16.99999 7.9081931 C 17.18799 8.2612747 17.378405 8.6144163 17.570303 8.9667869 A 2 9 45 0 0 19.845693 4.15624 A 2 9 45 0 0 19.513662 4.0078025 z M 16.99999 9.99999 C 16.99999 9.99999 13.99999 15.34319 13.99999 16.99999 C 13.99999 18.65679 15.34313 19.99999 16.99999 19.99999 C 18.65685 19.99999 19.99999 18.65679 19.99999 16.99999 C 19.99999 15.34319 16.99999 9.99999 16.99999 9.99999 z M 7.99999 14.664053 C 3.99998 15.735854 6.99999 18.26794 3.99999 19.99999 C 8.00338 19.99999 9.99999 17.99917 9.99999 16.664053 C 9.99999 15.999173 10.06759 14.774611 7.99999 14.664053 z "
     transform="translate(-.99999-.99999)" />
</svg>
