<?xml version="1.0" encoding="UTF-8" standalone="no"?>
<svg
   height="16"
   width="16"
   version="1.1"
   id="svg4"
   xmlns="http://www.w3.org/2000/svg"
   xmlns:svg="http://www.w3.org/2000/svg">
  <defs
     id="defs4" />
  <path
     id="path4-5-2"
     style="fill:#232629;fill-opacity:0.5;stroke-width:1.52604"
     d="M 9.5 2.46875 A 4.03125 4.03125 0 0 0 5.5839844 5.5429688 A 4.0625 4.0625 0 0 0 2.4375 9.5 A 4.0625 4.0625 0 0 0 6.5 13.5625 A 4.0625 4.0625 0 0 0 10.457031 10.416016 A 4.03125 4.03125 0 0 0 13.53125 6.5 A 4.03125 4.03125 0 0 0 9.5 2.46875 z " />
  <path
     id="path4-5"
     style="fill:#232629;fill-opacity:1;stroke-width:2.13939"
     d="M 9.5 2 A 4.5 4.5 0 0 0 5.1992188 5.1992188 A 4.5 4.5 0 0 0 2 9.5 A 4.5 4.5 0 0 0 6.5 14 A 4.5 4.5 0 0 0 10.800781 10.800781 A 4.5 4.5 0 0 0 14 6.5 A 4.5 4.5 0 0 0 9.5 2 z M 9.5 3 A 3.5 3.5 0 0 1 13 6.5 A 3.5 3.5 0 0 1 10.996094 9.6640625 A 4.5 4.5 0 0 0 11 9.5 A 4.5 4.5 0 0 0 6.5 5 A 4.5 4.5 0 0 0 6.3359375 5.0039062 A 3.5 3.5 0 0 1 9.5 3 z M 5.0039062 6.3359375 A 4.5 4.5 0 0 0 5 6.5 A 4.5 4.5 0 0 0 9.5 11 A 4.5 4.5 0 0 0 9.6640625 10.996094 A 3.5 3.5 0 0 1 6.5 13 A 3.5 3.5 0 0 1 3 9.5 A 3.5 3.5 0 0 1 5.0039062 6.3359375 z " />
</svg>
