<svg height="16" width="16" xmlns="http://www.w3.org/2000/svg"><g fill="#232629" transform="translate(-378.85714 -546.07647)"><path d="m385.29084 551.72704c2.1626 0 3.91573 1.75313 3.91573 3.91573-.00075.24021-.024.47983-.0688.71584-.23554.0442-.47464.0667-.71431.0672-2.16259 0-3.91573-1.75313-3.91573-3.91572.00075-.24022.024-.47985.0688-.71585.23554-.0442.47465-.0667.71431-.0672z"/><path d="m388.35714 548.07647a4.5000026 4.5000026 0 0 0 -4.5 4.5 4.5000026 4.5000026 0 0 0 4.5 4.5 4.5000026 4.5000026 0 0 0 4.5-4.5 4.5000026 4.5000026 0 0 0 -4.5-4.5zm0 .75a3.7500021 3.7500021 0 0 1 3.75 3.75 3.7500021 3.7500021 0 0 1 -3.75 3.75 3.7500021 3.7500021 0 0 1 -3.75-3.75 3.7500021 3.7500021 0 0 1 3.75-3.75z"/><path d="m385.35714 551.07647a4.5000026 4.5000026 0 0 0 -4.5 4.5 4.5000026 4.5000026 0 0 0 4.5 4.5 4.5000026 4.5000026 0 0 0 4.5-4.5 4.5000026 4.5000026 0 0 0 -4.5-4.5zm0 .75a3.7500021 3.7500021 0 0 1 3.75 3.75 3.7500021 3.7500021 0 0 1 -3.75 3.75 3.7500021 3.7500021 0 0 1 -3.75-3.75 3.7500021 3.7500021 0 0 1 3.75-3.75z"/><path d="m388.35714 548.73272c-1.87621 0-3.43381 1.34511-3.77149 3.12305-1.7284.35667-3.02734 1.88667-3.02734 3.7207 0 2.09852 1.70031 3.79883 3.79883 3.79883 1.83403 0 3.36403-1.29894 3.7207-3.02735 1.77794-.33767 3.12305-1.89527 3.12305-3.77148 0-2.12285-1.7209-3.84375-3.84375-3.84375z" fill-opacity=".501961"/></g></svg>
