<?xml version="1.0" encoding="UTF-8" standalone="no"?>
<!-- Created with Inkscape (http://www.inkscape.org/) -->

<svg
   width="22mm"
   height="22mm"
   viewBox="0 0 22 22"
   version="1.1"
   id="svg1"
   xmlns="http://www.w3.org/2000/svg"
   xmlns:svg="http://www.w3.org/2000/svg">
  <defs
     id="defs1" />
  <g
     id="layer1">
    <path
       id="path7"
       style="fill:#232629;stroke-width:0.264583;fill-opacity:1"
       d="M 2.9998169 2.9998169 L 2.9998169 6.0001506 L 5.0002116 6.0001506 L 5.0002116 5.0002116 L 3.9997559 5.0002116 L 3.9997559 3.9997559 L 5.0002116 3.9997559 L 5.0002116 5.0002116 L 6.0001506 5.0002116 L 6.0001506 2.9998169 L 2.9998169 2.9998169 z M 16.000057 2.9998169 L 16.000057 6.0001506 L 16.999996 6.0001506 L 16.999996 16.000057 L 16.000057 16.000057 L 16.000057 16.909045 L 7.0000895 16.091007 L 7.0000895 15.000118 L 3.9997559 15.000118 L 3.9997559 17.999935 L 7.0000895 17.999935 L 7.0000895 17.090946 L 16.000057 17.908984 L 16.000057 18.999874 L 18.999874 18.999874 L 18.999874 16.000057 L 17.999935 16.000057 L 17.999935 6.0001506 L 18.999874 6.0001506 L 18.999874 2.9998169 L 16.000057 2.9998169 z M 8.0000285 3.9997559 L 8.0000285 5.0002116 L 9.9999064 5.0002116 L 9.9999064 3.9997559 L 8.0000285 3.9997559 z M 11.999784 3.9997559 L 11.999784 5.0002116 L 13.999662 5.0002116 L 13.999662 3.9997559 L 11.999784 3.9997559 z M 3.9997559 7.0000895 L 4.1816569 8.9999674 L 5.1815959 8.9999674 L 4.9996948 7.0000895 L 3.9997559 7.0000895 z M 10.999845 8.9999674 A 2 2 0 0 0 8.9999674 10.999845 A 2 2 0 0 0 10.999845 13.00024 A 2 2 0 0 0 13.00024 10.999845 A 2 2 0 0 0 10.999845 8.9999674 z M 4.8177938 11.001396 L 4.9996948 13.00179 L 5.9996338 13.00179 L 5.8177327 11.001396 L 4.8177938 11.001396 z " />
  </g>
</svg>
