<svg height="22" width="22" xmlns="http://www.w3.org/2000/svg"><g fill="#232629" transform="translate(-553.72253 -583.11926)"><path d="m11 3a8 6 0 0 0 -8 6 8 6 0 0 0 2.2011719 4.128906l-2.2011719 5.871094 6.5625-4.101562a8 6 0 0 0 1.4375.101562 8 6 0 0 0 8-6 8 6 0 0 0 -8-6zm0 1.0273438c1.892663-.0000002 3.766628.5969435 5.041016 1.5527343 1.274387.9557909 1.93164 2.2077596 1.93164 3.4199219 0 1.212162-.657253 2.464131-1.93164 3.419922-1.273946.955459-3.147069 1.552321-5.039063 1.552734-.43552-.001163-.869751-.032083-1.2968749-.091797a1.0275136 1.0275136 0 0 0 -.6875.146485l-3.9902343 2.49414 1.1367187-3.03125a1.0275136 1.0275136 0 0 0 -.3261719-1.167968c-1.1959735-.943789-1.8093714-2.152455-1.8105468-3.3242191.0006623-1.2115925.6578948-2.4626594 1.9316406-3.4179688 1.2743877-.9557908 3.1483521-1.5527343 5.0410156-1.5527343z" transform="translate(553.72253 583.11926)"/><rect height="1" ry=".5" width="10" x="559.72253" y="590.11926"/><rect height="1" ry=".5" width="10" x="559.72253" y="593.11926"/></g></svg>
