<?xml version="1.0" encoding="UTF-8" standalone="no"?>
<svg
   viewBox="0 0 22 22"
   version="1.1"
   id="svg241"
   width="22"
   height="22"
   xmlns="http://www.w3.org/2000/svg"
   xmlns:svg="http://www.w3.org/2000/svg">
  <defs id="defs3051">
    <style type="text/css" id="current-color-scheme">
      .ColorScheme-Text {
        color:#232629;
      }
      </style>
  </defs>
  <!--! Font Awesome Free 6.4.0 by @fontawesome - https://fontawesome.com License - https://fontawesome.com/license/free (Icons: CC BY 4.0, Fonts: SIL OFL 1.1, Code: MIT License) Copyright 2023 Fonticons, Inc. -->
  <path
     d="m 16.565491,5.9343395 a 0.04081645,0.04081645 0 0 0 -0.02079,-0.01905 13.19909,13.19909 0 0 0 -3.256771,-1.00969 0.04941512,0.04941512 0 0 0 -0.05234,0.02476 9.1826417,9.1826417 0 0 0 -0.405444,0.832655 12.18638,12.18638 0 0 0 -3.6578616,0 8.4229116,8.4229116 0 0 0 -0.4118303,-0.832655 0.05142873,0.05142873 0 0 0 -0.05235,-0.02476 13.161649,13.161649 0 0 0 -3.256828,1.009718 0.0465852,0.0465852 0 0 0 -0.02144,0.01839 c -2.07426,3.097642 -2.64248,6.1191215 -2.36373,9.1031845 a 0.05485732,0.05485732 0 0 0 0.02082,0.03741 13.269867,13.269867 0 0 0 3.995251,2.018752 0.05170084,0.05170084 0 0 0 0.05614,-0.01839 9.4748606,9.4748606 0 0 0 0.817336,-1.32904 0.05061241,0.05061241 0 0 0 -0.02773,-0.07042 8.7394297,8.7394297 0 0 1 -1.248113,-0.594642 0.05129267,0.05129267 0 0 1 -0.005,-0.08505 c 0.08386,-0.06282 0.167783,-0.128188 0.247865,-0.1942 a 0.04949676,0.04949676 0 0 1 0.0517,-0.007 c 2.6184845,1.195023 5.4533529,1.195023 8.0408429,0 a 0.04930628,0.04930628 0 0 1 0.05236,0.0063 c 0.08011,0.06602 0.164,0.131999 0.24849,0.194831 a 0.05126547,0.05126547 0 0 1 -0.0044,0.08508 8.2015775,8.2015775 0 0 1 -1.248712,0.594015 0.05102057,0.05102057 0 0 0 -0.02722,0.07105 10.640986,10.640986 0 0 0 0.816711,1.328305 0.05072126,0.05072126 0 0 0 0.05613,0.01905 13.22584,13.22584 0 0 0 4.001699,-2.018672 0.05121104,0.05121104 0 0 0 0.02081,-0.03679 C 19.264801,11.587631 18.372391,8.5909115 16.565527,5.9343325 Z M 8.3466891,13.219914 c -0.788356,0 -1.437936,-0.723458 -1.437936,-1.611952 0,-0.888491 0.636981,-1.6120025 1.437936,-1.6120025 0.8072139,0 1.4505087,0.7297965 1.4379097,1.6119485 0,0.888548 -0.6370087,1.612006 -1.4379097,1.612006 z m 5.3164809,0 c -0.78833,0 -1.43791,-0.723458 -1.43791,-1.611952 0,-0.888491 0.636981,-1.6120025 1.43791,-1.6120025 0.807266,0 1.450534,0.7297965 1.437935,1.6119485 0,0.888548 -0.630669,1.612006 -1.437935,1.612006 z"
     id="path239"
     style="stroke-width:0.027211;fill:currentColor;fill-opacity:1;stroke:currentColor"
     class="ColorScheme-Text" />
</svg>
