<?xml version="1.0" encoding="UTF-8" standalone="no"?>
<!-- Created with Inkscape (http://www.inkscape.org/) -->

<svg
   xmlns:dc="http://purl.org/dc/elements/1.1/"
   xmlns:cc="http://creativecommons.org/ns#"
   xmlns:rdf="http://www.w3.org/1999/02/22-rdf-syntax-ns#"
   xmlns:svg="http://www.w3.org/2000/svg"
   xmlns="http://www.w3.org/2000/svg"
   xmlns:sodipodi="http://sodipodi.sourceforge.net/DTD/sodipodi-0.dtd"
   xmlns:inkscape="http://www.inkscape.org/namespaces/inkscape"
   width="16"
   height="16"
   id="svg3813"
   version="1.1"
   inkscape:version="0.91 r13725"
   sodipodi:docname="paintmode-incremental.svg">
  <defs
     id="defs3815" />
  <sodipodi:namedview
     id="base"
     pagecolor="#ffffff"
     bordercolor="#666666"
     borderopacity="1.0"
     inkscape:pageopacity="0.0"
     inkscape:pageshadow="2"
     inkscape:zoom="32"
     inkscape:cx="4.2551249"
     inkscape:cy="7.7825986"
     inkscape:document-units="px"
     inkscape:current-layer="layer1"
     showgrid="true"
     fit-margin-top="0"
     fit-margin-left="0"
     fit-margin-right="0"
     fit-margin-bottom="0"
     inkscape:window-width="1920"
     inkscape:window-height="1012"
     inkscape:window-x="-4"
     inkscape:window-y="39"
     inkscape:window-maximized="1"
     inkscape:showpageshadow="false"
     showguides="true"
     inkscape:snap-center="false"
     inkscape:snap-bbox="true"
     inkscape:snap-bbox-edge-midpoints="false"
     inkscape:bbox-paths="true"
     inkscape:bbox-nodes="true">
    <inkscape:grid
       type="xygrid"
       id="grid4109" />
  </sodipodi:namedview>
  <metadata
     id="metadata3818">
    <rdf:RDF>
      <cc:Work
         rdf:about="">
        <dc:format>image/svg+xml</dc:format>
        <dc:type
           rdf:resource="http://purl.org/dc/dcmitype/StillImage" />
        <dc:title />
      </cc:Work>
    </rdf:RDF>
  </metadata>
  <g
     inkscape:label="Capa 1"
     inkscape:groupmode="layer"
     id="layer1"
     transform="translate(-378.85714,-546.07647)">
    <path
       style="opacity:1;fill:#4d4d4d;fill-opacity:1;stroke:none;stroke-width:3;stroke-linecap:round;stroke-linejoin:bevel;stroke-miterlimit:4;stroke-dasharray:none;stroke-dashoffset:0;stroke-opacity:1"
       d="m 385.29084,551.72704 c 2.1626,0 3.91573,1.75313 3.91573,3.91573 -7.5e-4,0.24021 -0.024,0.47983 -0.0688,0.71584 -0.23554,0.0442 -0.47464,0.0667 -0.71431,0.0672 -2.16259,0 -3.91573,-1.75313 -3.91573,-3.91572 7.5e-4,-0.24022 0.024,-0.47985 0.0688,-0.71585 0.23554,-0.0442 0.47465,-0.0667 0.71431,-0.0672 z"
       id="path4153"
       inkscape:connector-curvature="0"
       sodipodi:nodetypes="ccccccc" />
    <path
       style="opacity:1;fill:#4d4d4d;fill-opacity:1;stroke:none;stroke-width:3;stroke-linecap:round;stroke-linejoin:bevel;stroke-miterlimit:4;stroke-dasharray:none;stroke-dashoffset:0;stroke-opacity:1"
       d="m 388.35714,548.07647 a 4.5000026,4.5000026 0 0 0 -4.5,4.5 4.5000026,4.5000026 0 0 0 4.5,4.5 4.5000026,4.5000026 0 0 0 4.5,-4.5 4.5000026,4.5000026 0 0 0 -4.5,-4.5 z m 0,0.75 a 3.7500021,3.7500021 0 0 1 3.75,3.75 3.7500021,3.7500021 0 0 1 -3.75,3.75 3.7500021,3.7500021 0 0 1 -3.75,-3.75 3.7500021,3.7500021 0 0 1 3.75,-3.75 z"
       id="circle4164"
       inkscape:connector-curvature="0" />
    <path
       id="path4174"
       d="m 385.35714,551.07647 a 4.5000026,4.5000026 0 0 0 -4.5,4.5 4.5000026,4.5000026 0 0 0 4.5,4.5 4.5000026,4.5000026 0 0 0 4.5,-4.5 4.5000026,4.5000026 0 0 0 -4.5,-4.5 z m 0,0.75 a 3.7500021,3.7500021 0 0 1 3.75,3.75 3.7500021,3.7500021 0 0 1 -3.75,3.75 3.7500021,3.7500021 0 0 1 -3.75,-3.75 3.7500021,3.7500021 0 0 1 3.75,-3.75 z"
       style="opacity:1;fill:#4d4d4d;fill-opacity:1;stroke:none;stroke-width:3;stroke-linecap:round;stroke-linejoin:bevel;stroke-miterlimit:4;stroke-dasharray:none;stroke-dashoffset:0;stroke-opacity:1"
       inkscape:connector-curvature="0" />
    <path
       inkscape:connector-curvature="0"
       style="opacity:1;fill:#4d4d4d;fill-opacity:0.50196078;stroke:none;stroke-width:3;stroke-linecap:round;stroke-linejoin:bevel;stroke-miterlimit:4;stroke-dasharray:none;stroke-dashoffset:0;stroke-opacity:1"
       d="m 388.35714,548.73272 c -1.87621,0 -3.43381,1.34511 -3.77149,3.12305 -1.7284,0.35667 -3.02734,1.88667 -3.02734,3.7207 0,2.09852 1.70031,3.79883 3.79883,3.79883 1.83403,0 3.36403,-1.29894 3.7207,-3.02735 1.77794,-0.33767 3.12305,-1.89527 3.12305,-3.77148 0,-2.12285 -1.7209,-3.84375 -3.84375,-3.84375 z"
       id="path4181" />
  </g>
</svg>
