<?xml version="1.0" encoding="UTF-8" standalone="no"?>
<!-- Created with Inkscape (http://www.inkscape.org/) -->

<svg
   xmlns:dc="http://purl.org/dc/elements/1.1/"
   xmlns:cc="http://creativecommons.org/ns#"
   xmlns:rdf="http://www.w3.org/1999/02/22-rdf-syntax-ns#"
   xmlns:svg="http://www.w3.org/2000/svg"
   xmlns="http://www.w3.org/2000/svg"
   xmlns:sodipodi="http://sodipodi.sourceforge.net/DTD/sodipodi-0.dtd"
   xmlns:inkscape="http://www.inkscape.org/namespaces/inkscape"
   width="128"
   height="128"
   viewBox="0 0 33.866666 33.866668"
   version="1.1"
   id="svg5680"
   inkscape:version="0.92.1 r"
   sodipodi:docname="drawpile.svg">
  <defs
     id="defs5674" />
  <sodipodi:namedview
     id="base"
     pagecolor="#ffffff"
     bordercolor="#666666"
     borderopacity="1.0"
     inkscape:pageopacity="0.0"
     inkscape:pageshadow="2"
     inkscape:zoom="2.8284271"
     inkscape:cx="27.044537"
     inkscape:cy="30.656237"
     inkscape:document-units="mm"
     inkscape:current-layer="layer1"
     showgrid="false"
     units="px"
     inkscape:snap-global="false"
     inkscape:window-width="1920"
     inkscape:window-height="1012"
     inkscape:window-x="0"
     inkscape:window-y="39"
     inkscape:window-maximized="1">
    <inkscape:grid
       type="xygrid"
       id="grid6269" />
  </sodipodi:namedview>
  <metadata
     id="metadata5677">
    <rdf:RDF>
      <cc:Work
         rdf:about="">
        <dc:format>image/svg+xml</dc:format>
        <dc:type
           rdf:resource="http://purl.org/dc/dcmitype/StillImage" />
        <dc:title></dc:title>
        <dc:creator>
          <cc:Agent>
            <dc:title>Leandro Pacheco</dc:title>
          </cc:Agent>
        </dc:creator>
      </cc:Work>
    </rdf:RDF>
  </metadata>
  <g
     inkscape:label="Layer 1"
     inkscape:groupmode="layer"
     id="layer1"
     transform="translate(0,-263.13332)">
    <path
       inkscape:connector-curvature="0"
       id="path3701-1-4-6-7-3-2-4-2-4-3-2-0-5-1-5-8-6-7-6-5"
       d="m 17.037946,266.73362 a 13.375455,13.375455 0 0 0 -6.082844,1.387 13.375455,13.375455 0 0 0 -6.8285207,15.96956 c 0.0895,-0.0444 0.44884,-0.22238 1.04593,-0.51779 1.30993,-0.64826 3.3158204,-1.49336 3.3543204,-1.49037 0.38208,0.21053 0.61854,0.77578 0.50953,1.23042 l -3.1744904,1.65571 -1.19062,0.56742 a 13.375455,13.375455 0 0 0 0.22841,0.50538 13.375455,13.375455 0 0 0 17.9203547,6.05543 13.375455,13.375455 0 0 0 6.055449,-17.92032 13.375455,13.375455 0 0 0 -11.837519,-7.44244 z m 11.83442,7.92456 c 0.308179,0.28916 0.695651,1.08201 0.61495,1.40922 0,0 -0.500441,0.24882 -1.166341,0.57828 -1.309929,0.64823 -3.315819,1.49283 -3.354319,1.48981 -0.38209,-0.2105 -0.61854,-0.77525 -0.50953,-1.22989 l 3.175,-1.65623 z"
       style="fill:#00e6ff;fill-opacity:1;stroke:none;stroke-width:0.04631785;stroke-opacity:1" />
    <path
       inkscape:connector-curvature="0"
       id="path6273"
       d="m 24.960568,278.25522 4.539257,-2.06705 -0.835091,-1.44694 -4.34082,2.27376 z"
       style="fill:#ffffff;fill-opacity:1;fill-rule:evenodd;stroke:none;stroke-width:0.26458332px;stroke-linecap:butt;stroke-linejoin:miter;stroke-opacity:1" />
    <path
       id="path3701-1-4-6-7-3-2-4-2-4-3-2-0-5-1-5-8-6-5-1-6-8-0"
       d="m 17.222786,265.64459 a 14.489,14.489 0 0 0 -0.0475,0.003 c 0.0439,0 0.0874,0.003 0.13126,0.003 a 14.489,14.489 0 0 0 -0.0837,-0.005 z m -1.377174,0.0532 a 14.489,14.489 0 0 0 -0.11059,0.008 c 0.0367,-0.003 0.0738,-0.005 0.11059,-0.008 z m 2.803444,0.0341 c 0.0189,0.003 0.0375,0.005 0.0563,0.007 a 14.489,14.489 0 0 0 -0.0563,-0.007 z m -4.287074,0.16587 a 14.489,14.489 0 0 0 -0.0331,0.006 c 0.011,-0.003 0.0221,-0.004 0.0331,-0.006 z m 2.698544,0.9493 c -1.649124,0 -3.228424,0.30437 -4.686544,0.85626 -0.26212,0.36224 -0.31731,0.65273 0.22273,0.61651 1.35605,-0.0902 1.37828,-0.38381 1.85312,0.24907 0.47418,0.63291 0.2485,1.94337 -0.6103,1.58182 -0.85881,-0.36222 -2.28272,-0.97224 -2.64429,-0.24908 -0.36157,0.72376 0.15813,0.90432 0.85887,0.47492 0.70075,-0.42942 1.26579,-0.22584 1.40146,0.4749 0.135,0.70075 0.0901,2.05762 -0.67851,1.80867 -0.76858,-0.24892 -1.01714,0.13539 -0.56534,0.51935 0.45179,0.38394 -0.0455,0.61 -0.74621,0.31626 -0.70073,-0.29372 -0.67825,0.61023 -1.6272903,0.56483 -0.94969,-0.0454 -1.0173,0.99481 -1.31103,1.37872 -0.29373,0.38399 -0.33941,1.62708 -0.40721,1.92082 -0.0678,0.29374 -0.3612904,0.51996 -0.5193504,-0.40669 -0.15805,-0.92665 0.0452,-1.33366 -0.79116,-1.40147 -0.83642,-0.0678 -1.67275,1.68941 -1.24334,2.06549 0.4294,0.37605 1.01743,-0.34785 0.97203,0.19484 -0.0448,0.54269 -0.33859,3.00588 0.54261,3.11917 0.8812,0.11327 1.4695004,0.0222 2.1926304,0.49713 0.72314,0.47485 2.0788803,0.51959 3.0509703,2.05674 0.97208,1.53715 2.10218,1.71733 3.18689,1.96628 1.085364,0.249 0.97228,0.85992 0.40721,1.67327 -0.56508,0.81336 -0.24843,1.64965 -2.14716,2.28256 -1.89875,0.63225 -2.03409,2.21464 -1.96628,2.50838 0.0139,0.0599 -0.0112,0.2023 -0.06,0.39066 1.6287,0.71393 3.42607,1.11313 5.314924,1.11313 3.75201,0 7.14282,-1.56649 9.56117,-4.07572 -0.31613,-0.97999 -0.63269,-2.09881 -0.64389,-2.69287 -0.0231,-1.19732 0.31623,-1.28797 -0.11317,-2.07894 -0.42941,-0.79164 -1.31166,-0.0233 -3.02927,-0.24908 -1.71761,-0.22654 -1.44631,-1.31125 -2.64428,-2.80294 -1.19799,-1.4917 1.10807,-2.71217 1.74098,-4.24934 0.53555,-1.3007 2.58087,-1.08046 3.57084,-0.91313 l 1.81952,-0.94205 c 0.0891,-0.0729 0.17366,-0.1441 0.28319,-0.22479 1.28886,-0.9497 -0.63275,-0.97169 -1.15238,-1.33327 -0.52029,-0.36155 -0.4527,-0.0454 -0.83665,0.42945 -0.38395,0.47482 -0.97175,-0.36171 -1.49138,-0.63304 -0.52029,-0.27067 -0.63282,0.63283 -1.24333,1.67275 -0.60987,1.03989 -0.97144,0.56507 -1.51412,0 -0.54268,-0.5651 -0.20385,-1.06238 0.36122,-1.28829 0.56506,-0.2259 0.61061,-0.31662 0.2036,-0.76843 -0.40701,-0.45177 -0.58787,-0.27146 -0.18087,-0.63304 0.40702,-0.36155 0.65566,-0.3162 1.53686,-0.85886 0.88186,-0.54266 -0.13547,-1.03968 -0.72295,-0.64389 -0.58745,0.39584 -1.33384,-0.8028 -1.4919,-1.81176 -0.15806,-1.00891 0.31618,-0.68646 0.85886,-1.04799 0.12908,-0.0863 0.0539,-0.29038 -0.13177,-0.54986 -1.47327,-0.56507 -3.07024,-0.87745 -4.73976,-0.87745 z m 7.07192,0.64078 c 0.0137,0.008 0.0271,0.0159 0.0408,0.0238 a 14.489,14.489 0 0 0 -0.0408,-0.0238 z m -7.689974,0.0238 c 0.822074,0.0312 1.764074,0.33149 1.487254,1.21389 -0.36157,1.15252 -0.39716,0.81221 -0.81339,1.06247 -0.45047,0.27067 -0.679034,0.45157 -1.062984,0.99426 -0.38397,0.54268 -1.26505,0.42934 -0.78032,-0.15815 0.48537,-0.58811 0.30652,-2.16991 0.0351,-2.59932 0,0 -0.36171,-0.33924 0.45165,-0.4749 0.10175,-0.0169 0.21742,-0.0293 0.34159,-0.0357 0.10864,-0.006 0.22362,-0.007 0.34106,-0.003 z m -7.0450503,0.32507 a 14.489,14.489 0 0 0 -0.0692,0.0444 c 0.0232,-0.0148 0.046,-0.0299 0.0692,-0.0444 z m 15.9385643,0.40565 c 0.0297,0.0206 0.0588,0.042 0.0884,0.063 a 14.489,14.489 0 0 0 -0.0884,-0.063 z m -17.1100743,0.40876 a 14.489,14.489 0 0 0 -0.0966,0.076 c 0.0323,-0.0254 0.0642,-0.0509 0.0966,-0.076 z m 18.2319743,0.45836 c 0.041,0.035 0.0818,0.0704 0.12247,0.10595 a 14.489,14.489 0 0 0 -0.12247,-0.10595 z m -19.3120047,0.462 a 14.489,14.489 0 0 0 -0.12454,0.11884 c 0.0414,-0.0398 0.0827,-0.0796 0.12454,-0.11884 z m 20.3532847,0.51934 c 0.0412,0.0428 0.0823,0.0859 0.12299,0.1292 a 14.489,14.489 0 0 0 -0.12299,-0.1292 z M 6.1407713,270.6143 a 14.489,14.489 0 0 0 -0.10128,0.11731 c 0.0336,-0.0393 0.0673,-0.0784 0.10128,-0.11731 z m 22.3237057,0.58756 c 0.0254,0.0323 0.0514,0.0636 0.0765,0.0961 a 14.489,14.489 0 0 0 -0.0765,-0.0961 z m -23.2337257,0.56896 a 14.489,14.489 0 0 0 -0.0599,0.0842 c 0.0198,-0.0284 0.04,-0.056 0.0599,-0.0842 z m 24.0801857,0.62995 c 0.01468,0.0233 0.0299,0.046 0.0444,0.0693 a 14.489,14.489 0 0 0 -0.0444,-0.0693 z m -24.8718657,0.61804 a 14.489,14.489 0 0 0 -0.0238,0.0408 c 0.008,-0.0138 0.016,-0.0271 0.0238,-0.0408 z m 0.80098,1.05833 c -0.93454,1.81705 -1.46606,3.87485 -1.46606,6.05544 0,1.33631 0.19955,2.62596 0.56844,3.84318 l 2.25774,-1.03042 c 0.0401,-0.39795 0.26025,-0.5052 0.3452,-0.59016 0.15872,-0.15806 -1.06179,-0.81378 -1.01699,-2.39572 0.0448,-1.58193 -1.28919,-1.22055 -1.04024,-2.89334 0.21338,-1.43445 0.49021,-2.43312 0.35191,-2.98898 z m 26.0475137,3.31868 c 0.003,0.0159 0.005,0.0317 0.008,0.0475 a 14.489,14.489 0 0 0 -0.008,-0.0475 z m -28.6215137,1.09293 a 14.489,14.489 0 0 0 -0.007,0.0537 c 0.002,-0.018 0.005,-0.0357 0.007,-0.0537 z m 28.8199457,0.31885 c 0.003,0.0369 0.005,0.0741 0.008,0.1111 a 14.489,14.489 0 0 0 -0.008,-0.1111 z m -28.9088357,1.07746 a 14.489,14.489 0 0 0 -0.003,0.13229 c 2.6e-4,-0.0443 0.002,-0.0881 0.003,-0.13229 z m 28.9687857,0.36174 c -2.6e-4,0.0457 -0.0021,0.0908 -0.003,0.13642 a 14.489,14.489 0 0 0 0.003,-0.13642 z m -28.9207257,1.09967 a 14.489,14.489 0 0 0 0.008,0.11059 c -0.003,-0.0367 -0.005,-0.0738 -0.008,-0.11059 z m 28.8349447,0.3767 c -0.0021,0.0172 -0.004,0.0341 -0.006,0.0512 a 14.489,14.489 0 0 0 0.006,-0.0512 z m -28.6344347,1.10795 a 14.489,14.489 0 0 0 0.006,0.0315 z m 4.16667,1.71308 -2.00246,1.07176 -0.19792,-0.38755 c 1.12052,2.6851 3.09769,4.92701 5.5888007,6.38203 l -0.0677,-0.30438 c 0,0 -1.2204903,-1.62748 -1.3337703,-2.73523 -0.11328,-1.10709 -0.92734,-1.71764 -1.8763704,-3.77444 -0.041,-0.0889 -0.0753,-0.16996 -0.11059,-0.25219 z m 22.7097247,2.66548 c -0.006,0.0101 -0.01191,0.0193 -0.0176,0.0295 a 14.489,14.489 0 0 0 0.0176,-0.0295 z m -24.9333647,0.59225 a 14.489,14.489 0 0 0 0.0331,0.0517 c -0.0109,-0.0172 -0.0222,-0.0343 -0.0331,-0.0517 z m 24.1850937,0.6005 c -0.02389,0.0343 -0.0482,0.0682 -0.0724,0.10231 a 14.489,14.489 0 0 0 0.0724,-0.10231 z M 5.5759513,288.9626 a 14.489,14.489 0 0 0 0.0832,0.10593 c -0.0277,-0.0353 -0.0558,-0.0704 -0.0832,-0.10593 z m 22.5102547,0.56378 c -0.0368,0.0431 -0.0738,0.086 -0.1111,0.12866 a 14.489,14.489 0 0 0 0.1111,-0.12866 z m -21.5847347,0.52297 a 14.489,14.489 0 0 0 0.11369,0.11938 c -0.0381,-0.0397 -0.076,-0.0793 -0.11369,-0.11938 z m 20.5982347,0.52399 c -0.0414,0.0398 -0.0827,0.0796 -0.12454,0.11888 a 14.489,14.489 0 0 0 0.12454,-0.11888 z m -19.5543647,0.48111 a 14.489,14.489 0 0 0 0.11162,0.0966 c -0.0374,-0.032 -0.0745,-0.0642 -0.11162,-0.0966 z m 18.4510747,0.47801 c -0.0357,0.028 -0.071,0.0565 -0.10697,0.0842 a 14.489,14.489 0 0 0 0.10697,-0.0842 z M 8.6910017,291.9562 a 14.489,14.489 0 0 0 0.0977,0.0698 c -0.0328,-0.023 -0.065,-0.0466 -0.0977,-0.0698 z m 16.0982443,0.42843 c -0.0222,0.014 -0.0438,0.0289 -0.0662,0.0429 a 14.489,14.489 0 0 0 0.0662,-0.0429 z M 9.9524217,292.7572 a 14.489,14.489 0 0 0 0.03,0.0175 c -0.0101,-0.006 -0.0199,-0.0119 -0.03,-0.0175 z m 9.8433343,1.60298 c -0.0155,0.003 -0.0311,0.005 -0.0465,0.008 a 14.489,14.489 0 0 0 0.0465,-0.008 z m -4.376484,0.16642 a 14.489,14.489 0 0 0 0.0496,0.006 c -0.0166,-0.003 -0.033,-0.004 -0.0496,-0.006 z m 2.966234,0.032 c -0.0373,0.003 -0.0748,0.005 -0.11214,0.008 a 14.489,14.489 0 0 0 0.11214,-0.008 z m -1.57664,0.0563 a 14.489,14.489 0 0 0 0.13694,0.003 c -0.0458,-2.6e-4 -0.0912,-0.003 -0.13694,-0.003 z"
       style="fill:#00bcff;fill-opacity:1;stroke:none;stroke-width:0.05017395;stroke-opacity:1"
       inkscape:connector-curvature="0" />
    <path
       sodipodi:nodetypes="cccccccccccccccccccccccccccccccccccccccccccccccccccccccccccccccccccccccccccccccccccccccccccccccccccccccccccccccccccccccccccccccccccccccsccccccccccccccccccccccccccccccccccccccccccccsccccccccccccccccccccccccccccccccccccccccccccccccccccccccccccccccccccccccccccccccccccccccccccccccccccccccccccccccccccccccccccccccccccccccccccccccccccccccccccccccccccccccc"
       inkscape:connector-curvature="0"
       id="path4618-3-2-7-4-4-5-7-8-1-6-8-1-4-5-4-9-2-3"
       d="m 10.380982,266.68917 c 0.63396,-0.31657 1.26312,-0.57726 1.89738,-0.78756 0.35991,-0.11934 0.68146,-0.21949 0.7145,-0.22259 0.033,-0.003 0.25742,-0.0603 0.49869,-0.12718 0.24127,-0.0668 0.57576,-0.14948 0.74324,-0.18365 0.19185,-0.0392 0.2916,-0.0945 0.26961,-0.14965 -0.005,-0.0114 0.0119,-0.0242 0.0426,-0.0376 -0.008,-0.002 -0.0148,-0.005 -0.0228,-0.007 0.0499,-0.01 0.0862,-0.0178 0.13327,-0.0274 0.0204,-0.005 0.0397,-0.0103 0.0637,-0.0155 l 8e-5,-1.9e-4 c 0.003,8e-4 0.004,10e-4 0.006,10e-4 0.0369,-0.008 0.0857,-0.0171 0.11409,-0.0234 0.29343,-0.0649 0.33634,-0.0574 0.2408,0.042 -0.0198,0.0206 -0.0312,0.0341 -0.0429,0.0481 0.0687,0.0151 0.13756,0.0301 0.20468,0.0457 0.6136,-0.0538 2.508024,-0.0818 2.685104,-0.0375 0.11205,0.0281 0.34155,0.0494 0.51009,0.0476 0.77499,-0.008 3.63614,0.62973 3.86511,0.86192 0.0453,0.0459 0.0913,0.0304 0.14195,-0.0474 0.06,-0.0924 -0.143721,-0.18086 -1.024521,-0.44484 -0.60468,-0.18124 -1.07063,-0.34374 -1.0355,-0.36111 0.10835,-0.0536 2.69333,0.75428 3.23797,1.01196 1.97694,0.93541 3.73034,2.38259 4.96584,4.09914 0.21804,0.30292 0.383831,0.76371 0.466299,0.87067 0.0825,0.10696 0.167881,0.28878 0.189921,0.40399 0.0378,0.19724 0.0249,0.19265 -0.219951,-0.0769 -0.143039,-0.15744 -0.22138,-0.49166 -0.271809,-0.58954 -0.0503,-0.0979 -0.132951,-0.18061 -0.183039,-0.18402 -0.0575,-0.004 -0.005,0.16766 0.14179,0.46443 0.128109,0.25884 0.331838,0.80293 0.298688,0.81933 -0.433969,-1.03571 -0.84881,-1.34821 -0.836689,-1.48824 0.005,-0.0559 -0.007,-0.0659 -0.0254,-0.022 -0.0437,0.10256 -0.72411,-0.6522 -0.98108,-1.08833 -0.10837,-0.18394 -0.29083,-0.39983 -0.40542,-0.47985 -0.11461,-0.08 -0.23757,-0.20457 -0.27323,-0.27667 -0.0357,-0.0721 -0.0942,-0.12897 -0.12999,-0.12647 -0.0358,0.003 -0.28522,-0.16669 -0.55425,-0.37591 -0.26906,-0.20922 -0.6508,-0.48042 -0.84836,-0.60269 -0.19764,-0.12219 -0.35531,-0.26829 -0.35042,-0.32455 0.005,-0.0563 -0.006,-0.0675 -0.0241,-0.025 -0.0183,0.0426 -0.0955,0.0473 -0.17188,0.0102 -0.0762,-0.0369 -0.16512,-0.0271 -0.19751,0.0219 -0.0426,0.0645 0.003,0.12041 0.1614,0.2025 0.58004,0.29858 1.66997,1.22281 1.71069,1.4507 0.007,0.0419 0.0265,0.0415 0.0422,-8e-4 0.0273,-0.0737 0.28964,0.13181 0.63368,0.49643 0.60325,0.6393 0.77867,0.85198 0.78605,0.95302 0.005,0.0632 0.0282,0.0848 0.0525,0.0481 0.0241,-0.0368 0.13494,0.0652 0.24593,0.22665 0.11097,0.16142 0.29766,0.41417 0.41476,0.56164 0.11711,0.14746 0.30721,0.42438 0.42246,0.61537 0.184812,0.30619 0.190852,0.3381 0.0508,0.27019 -0.31501,-0.5178 -0.404889,-0.48807 -0.451588,-0.58177 -0.11612,-0.23271 -0.932581,-1.16383 -1.161921,-1.35793 l -0.18568,-0.15709 0.0357,0.18984 c 0.0344,0.18274 0.0304,0.18626 -0.10932,0.0962 -0.20789,-0.13385 -0.2136,-0.0255 -0.0209,0.39122 l 0.168699,0.36487 -0.25762,-0.20448 c -0.14174,-0.11245 -0.28512,-0.25408 -0.31869,-0.31465 -0.0336,-0.0606 -0.10478,-0.11301 -0.1583,-0.11665 -0.0535,-0.004 -0.10105,-0.0572 -0.10555,-0.11879 -0.005,-0.0616 -0.0479,-0.0924 -0.0965,-0.0683 -0.0486,0.024 -0.31374,-0.11552 -0.58928,-0.3101 -0.830711,-0.58673 -1.239761,-1.10877 -2.370691,-1.65642 -1.10654,-0.53583 -1.46971,-0.68418 -2.37011,-0.96778 -0.52631,-0.16574 -0.73716,-0.12466 -0.30311,0.0591 0.13594,0.0575 0.29149,0.14788 0.34578,0.20092 0.0543,0.053 0.12692,0.0824 0.16129,0.0654 0.0343,-0.017 0.0783,0.001 0.0977,0.0403 0.0193,0.0392 -0.29181,-0.003 -0.69162,-0.0935 -0.39978,-0.0906 -0.83664,-0.188 -0.97065,-0.21652 -0.14957,-0.13727 -0.29451,-0.26051 -0.43701,-0.37312 -0.29014,-0.0465 -0.58468,-0.0829 -0.89027,-0.10894 -0.56393,-0.0481 -1.12329,-0.0748 -1.24307,-0.0593 -0.11977,0.0154 -0.24061,0.012 -0.2686,-0.007 -0.058,-0.0404 -1.389014,0.10168 -2.126514,0.22692 -0.84357,0.14319 -1.55763,0.35005 -2.4533,0.71091 -0.47471,0.19126 -0.89381,0.34071 -0.93128,0.332 -0.0375,-0.009 -0.1044,0.0313 -0.14874,0.0889 -0.0443,0.0575 -0.16077,0.13306 -0.25877,0.16776 -0.30027,0.10634 -1.5168003,0.88109 -2.2040303,1.40388 -0.4811204,0.36602 -0.5790904,0.42168 -0.37616,0.21323 0.77491,-0.79608 3.2095003,-2.19279 4.5951303,-2.63612 0.79293,-0.25371 1.86978,-0.50486 2.64128,-0.61589 0.87582,-0.12606 0.85037,-0.11946 0.79229,-0.19983 -0.0773,-0.10702 -0.4637,-0.10425 -1.22237,0.009 -0.41656,0.0623 -0.67932,0.0626 -0.70406,5.3e-4 -0.0251,-0.0627 -0.0434,-0.0619 -0.0502,0.002 -0.006,0.057 -0.19381,0.13922 -0.43106,0.18883 -0.2313,0.0483 -0.53136,0.13403 -0.66675,0.19056 -0.13541,0.0565 -0.2889,0.10044 -0.34107,0.0976 -0.15306,-0.008 -1.54893,0.54605 -1.93609,0.76878 -0.19545,0.11246 -0.48117,0.26632 -0.63476,0.34202 -0.9754103,0.4805 -2.6852807,1.95236 -3.7781207,3.25189 -0.2536,0.30154 -0.22847,0.25485 0.1112,-0.2074 0.52772,-0.71815 0.39963,-0.70957 -0.31985,0.0213 -0.79386,0.80644 -1.88309,2.49175 -2.2383,3.46346 -0.0608,0.16638 -0.19237,0.50185 -0.29231,0.74538 -0.0999,0.24354 -0.23024,0.66521 -0.28964,0.93697 -0.0594,0.27179 -0.13155,0.58438 -0.16044,0.69472 -0.0288,0.11038 -0.0678,0.33159 -0.0864,0.49176 -0.0185,0.16019 -0.0759,0.30841 -0.12718,0.32942 -0.0513,0.021 -0.0518,0.0405 0,0.0433 0.0508,0.003 0.0663,0.14409 0.0342,0.31407 -0.032,0.17 -0.0611,0.50087 -0.0643,0.73536 -0.003,0.23447 -0.0334,0.5352 -0.0671,0.66829 -0.0337,0.13309 -0.0377,0.21573 -0.009,0.18365 0.0289,-0.032 0.0607,0.0946 0.0707,0.28157 0.013,0.24018 -0.014,0.33816 -0.0913,0.33399 -0.0802,-0.004 -0.10464,0.0496 -0.092,0.20178 0.0292,0.3499 -0.0368,0.1912 -0.0832,-0.20036 -0.0241,-0.20433 -0.01,-0.31636 0.0329,-0.25167 0.0849,0.12952 0.15045,0.08 0.16637,-0.12545 0.008,-0.10795 -0.0122,-0.12633 -0.10292,-0.0912 -0.081,0.0314 -0.11098,-0.12467 -0.10504,-0.54746 0.013,-0.93638 0.10564,-1.81701 0.20457,-1.94543 0.05,-0.0649 0.0531,-0.11995 0.007,-0.12243 -0.0461,-0.002 -0.0408,-0.12482 0.0119,-0.27183 0.0525,-0.147 0.0893,-0.32482 0.0817,-0.39493 -0.0451,-0.41072 0.75131,-2.49623 1.01782,-2.66529 0.0701,-0.0444 0.0703,-0.0701 0,-0.0738 -0.0659,-0.004 -0.0757,-0.0501 -0.0257,-0.12116 0.10554,-0.15008 0.22066,-0.34688 0.54451,-0.93083 0.38629,-0.69671 0.42971,-0.80786 0.31827,-0.81384 -0.11917,-0.006 -0.53716,0.63694 -0.88773,1.36634 -0.13148,0.27356 -0.28218,0.57422 -0.33494,0.66793 -0.0528,0.0937 -0.12835,0.27582 -0.16788,0.40485 -0.0397,0.12899 -0.0808,0.24968 -0.0921,0.26796 -0.0114,0.0183 -0.0328,0.0673 -0.0481,0.10875 -0.0151,0.0416 -0.0759,0.1916 -0.13444,0.33352 -0.29871,0.72439 -0.71704,2.53069 -0.68278,2.94768 0.007,0.0874 -0.01,0.18841 -0.0372,0.22429 -0.0277,0.0359 -0.0539,0.42551 -0.0583,0.86607 -0.0106,1.06179 -0.005,1.17831 0.0716,1.57875 0.20876,1.08892 0.2263,1.88296 0.03,1.35924 -0.12854,-0.34305 -0.17868,-1.00704 -0.0521,-0.69002 0.0233,0.0586 0.0416,0.055 0.0484,-0.01 0.006,-0.0569 -0.0254,-0.10547 -0.0697,-0.10784 -0.0443,-0.002 -0.0999,-0.21785 -0.12348,-0.47883 -0.0236,-0.26099 -0.048,-0.52484 -0.0545,-0.58641 -0.0209,-0.19881 0,-1.22215 0.0388,-2.00104 0.0411,-0.8025 0.36328,-2.52603 0.50713,-2.71277 0.0469,-0.0609 0.0721,-0.14352 0.0561,-0.18378 -0.0432,-0.10821 0.48196,-1.44777 0.84921,-2.16606 0.0787,-0.15392 0.35501,-0.62347 0.61404,-1.04322 0.625742,-1.01396 0.696942,-1.10882 1.482382,-1.97526 0.68855,-0.75953 1.63301,-1.63504 2.18012,-2.02131 0.8531204,-0.60236 1.6764004,-1.10133 2.4915807,-1.50825 z m 4.91892,-1.63864 c 0.036,-0.0178 0.12234,-0.036 0.23902,-0.0447 0.11192,-0.008 0.13417,0.006 0.0655,0.0435 -0.0573,0.0309 -0.16635,0.0507 -0.24228,0.044 -0.0841,-0.007 -0.0983,-0.0249 -0.0622,-0.0428 z m 0.80795,-0.0737 c 0.0709,-0.0408 0.653824,-0.0791 0.671154,-0.0441 0.009,0.0179 -0.008,0.043 -0.0384,0.0559 -0.0727,0.0313 -0.687814,0.0198 -0.632834,-0.0118 z m 0.763354,-0.0322 c 0.0101,-0.008 0.0572,-0.0152 0.14457,-0.0226 0.18436,-0.0156 0.93287,2.7e-4 1.35655,0.0288 0.42415,0.0285 1.79604,0.24991 1.8175,0.29331 0.0246,0.0497 -0.13081,0.033 -0.87053,-0.0937 -0.36301,-0.0622 -1.05773,-0.12538 -1.54379,-0.14038 -0.61746,-0.0191 -0.93271,-0.0424 -0.9043,-0.0654 z m 0.46996,0.50466 c -0.0285,0.0131 0.0201,0.0284 0.14946,0.0679 0.11385,0.0349 0.39365,0.0718 0.62153,0.0821 0.22789,0.0103 0.42775,0.0459 0.44416,0.0791 0.0164,0.0332 0.0639,0.0435 0.10551,0.0228 0.13571,-0.0671 0.90729,0.0572 0.8967,0.14451 -0.006,0.0467 0.0124,0.0648 0.0402,0.0402 0.11084,-0.0981 0.46485,-0.0329 0.47366,0.0872 0.006,0.0866 0.0353,0.0955 0.0978,0.0301 0.0595,-0.0622 0.38026,-0.002 0.97274,0.18178 0.48609,0.15091 0.94433,0.31528 1.01836,0.36538 0.15388,0.10415 0.36385,0.0332 0.29763,-0.10061 -0.0573,-0.11584 -2.18848,-0.73449 -2.92936,-0.85037 -0.82061,-0.12835 -1.83325,-0.21616 -2.05537,-0.1782 -0.0714,0.0122 -0.11602,0.0198 -0.133,0.0279 z m -9.6462347,4.84348 c 0.007,-0.004 0.0122,-0.006 0.0148,-0.006 0.005,5.3e-4 0.003,0.008 -0.009,0.0238 -0.0206,0.0281 -0.069,0.082 -0.15041,0.16505 -0.12159,0.12406 -0.28002,0.3018 -0.35246,0.39488 -0.0726,0.0928 -0.15507,0.15243 -0.18401,0.13257 -0.0283,-0.0208 0.0953,-0.1794 0.2754,-0.35367 0.20339,-0.19693 0.35664,-0.32774 0.40613,-0.3566 z m -3.66427,1.88433 c 0.0106,-0.003 0.0177,10e-4 0.0196,0.0142 0.003,0.0174 -0.006,0.0398 -0.0217,0.0619 -0.0156,0.022 -0.0385,0.0439 -0.0645,0.06 -0.0577,0.0355 -0.061,0.0106 -0.009,-0.0634 0.0297,-0.0418 0.0574,-0.0676 0.0752,-0.0727 z m 2.8195,-1.04013 c 0.005,5.3e-4 -1.6e-4,0.0158 -0.0183,0.0481 -0.029,0.0516 -0.0729,0.11561 -0.12012,0.17729 -0.0474,0.0616 -0.0984,0.12084 -0.14148,0.16257 -0.0861,0.0835 -0.039,-10e-4 0.10486,-0.18791 0.099,-0.12844 0.1633,-0.20093 0.17502,-0.20008 z m -1.08677,0.7654 c 0.005,-0.004 0.01,-0.006 0.0135,-0.006 v 1e-5 c 0.008,-0.001 0.0106,0.008 0.004,0.0288 -0.008,0.0272 -0.0251,0.0582 -0.0466,0.0861 -0.0217,0.028 -0.0476,0.0529 -0.0725,0.0682 -0.0499,0.0305 -0.0369,-0.0141 0.0282,-0.0989 0.0307,-0.0398 0.0559,-0.0664 0.0724,-0.0778 z m 15.3437447,-6.08333 c -0.0196,0.01 0.0519,0.049 0.15864,0.0875 0.10668,0.0385 0.2099,0.0621 0.22935,0.0525 0.0196,-0.01 -0.052,-0.049 -0.15865,-0.0875 -0.10668,-0.0385 -0.20989,-0.0621 -0.22934,-0.0525 z M 1.7396813,279.43915 c 0.005,-0.003 0.0111,-0.005 0.0167,-0.006 l -7e-5,-1.3e-4 c 0.0185,-0.002 0.0367,0.0122 0.0479,0.0402 0.0177,0.0447 0.0111,0.10899 -0.0151,0.14296 -0.0262,0.034 -0.0623,0.0251 -0.0801,-0.0195 -0.0177,-0.0447 -0.0111,-0.10904 0.0153,-0.14301 0.005,-0.006 0.0101,-0.0113 0.0156,-0.0147 z m 0.0507,0.55475 c 0.008,-0.005 0.0127,-0.002 0.0116,0.008 -0.003,0.0204 -0.003,0.14501 2.6e-4,0.27706 l 0.004,0.24012 -0.0483,-0.21471 c -0.0266,-0.11802 -0.0269,-0.24243 0,-0.27679 0.0132,-0.0172 0.0246,-0.0288 0.0328,-0.0334 z m 0.0119,0.96324 c 0.007,-0.004 0.0169,-0.002 0.0297,0.007 0.013,0.009 0.0241,0.0915 0.0251,0.18347 0,0.0758 2.1e-4,0.11376 -0.006,0.11472 -0.006,10e-4 -0.0164,-0.0353 -0.0361,-0.10776 -0.0306,-0.11432 -0.0346,-0.18416 -0.0132,-0.19703 z m 1.04707,-0.12377 c 0.003,-0.003 0.005,-0.005 0.009,-0.004 0.004,2.6e-4 0.009,0.002 0.0154,0.007 0.0103,0.007 0.0346,0.1841 0.0536,0.39316 l 0.0348,0.3801 -0.0679,-0.37441 c -0.0483,-0.26681 -0.0624,-0.37818 -0.0451,-0.40095 z m -0.98933,0.54439 c 0.003,-0.003 0.005,-0.005 0.009,-0.004 0.004,2.6e-4 0.0101,0.002 0.0156,0.006 0.0103,0.007 0.0344,0.18405 0.0534,0.39309 l 0.0348,0.38011 -0.0677,-0.37449 c -0.0483,-0.26679 -0.0623,-0.37808 -0.045,-0.40081 z m 0.81647,-0.19511 c 0.0298,-0.0166 0.0473,0.0607 0.0562,0.24241 l 0.0106,0.22101 -0.0484,-0.21484 c -0.0267,-0.11799 -0.0413,-0.22394 -0.0321,-0.2357 0.005,-0.006 0.009,-0.0105 0.0135,-0.0129 z m -0.69932,1.0311 c 0.0297,-0.0163 0.0473,0.061 0.0562,0.24241 l 0.0109,0.22108 -0.0487,-0.2147 c -0.0267,-0.118 -0.0412,-0.22415 -0.032,-0.23591 0.005,-0.006 0.009,-0.0104 0.0135,-0.0128 z m 0.84716,-0.35959 c 0.029,-0.0147 0.0461,0.0702 0.0618,0.29443 l 0.019,0.27427 -0.0546,-0.26814 c -0.0301,-0.14749 -0.0479,-0.27715 -0.0393,-0.28821 0.005,-0.006 0.009,-0.0103 0.0132,-0.0123 z m -0.71415,0.92676 c 0.0298,-0.0166 0.0475,0.0608 0.0564,0.24248 l 0.0109,0.22101 -0.0485,-0.21464 c -0.0266,-0.11803 -0.0414,-0.22411 -0.032,-0.23591 0.005,-0.006 0.009,-0.0106 0.0135,-0.0129 z m 0.78901,-0.27974 c 0.014,-0.008 0.057,0.0581 0.11862,0.20326 0.0482,0.11368 0.0745,0.21181 0.0648,0.2372 -0.003,0.004 -0.003,0.006 -0.006,0.006 -0.023,0.004 -0.0776,-0.0901 -0.12129,-0.2089 -0.0547,-0.14888 -0.0698,-0.23009 -0.0558,-0.23776 z m -0.67368,0.74349 c 0.007,-0.004 0.0169,-0.002 0.0297,0.007 0.013,0.009 0.0241,0.0915 0.0251,0.18341 0,0.0758 5e-5,0.11382 -0.006,0.11478 -0.006,10e-4 -0.0164,-0.0351 -0.0357,-0.10781 -0.0306,-0.11431 -0.0349,-0.18416 -0.0135,-0.19702 z m 0.0789,0.39458 9e-5,1.3e-4 c 0.0254,-0.0104 0.0656,0.0349 0.0959,0.11175 0.0364,0.0925 0.0431,0.14783 0.0276,0.16008 -0.0154,0.012 -0.0528,-0.0191 -0.10486,-0.0987 -0.0394,-0.0604 -0.0523,-0.13464 -0.0287,-0.16527 0.003,-0.004 0.007,-0.006 0.01,-0.008 z m 0.20755,0.59481 5e-5,1.3e-4 c 0.0148,-0.007 0.0456,0.0168 0.084,0.0756 0.0323,0.0495 0.0414,0.094 0.0241,0.10784 -0.003,0.002 -0.006,0.003 -0.009,0.004 -0.0287,0.005 -0.0678,-0.0302 -0.0868,-0.0778 -0.0259,-0.0648 -0.0272,-0.1027 -0.0124,-0.10978 z m 0.18067,0.50549 c 0.0148,-0.007 0.0455,0.0171 0.0839,0.0757 0.0324,0.0496 0.0418,0.0943 0.0243,0.10803 -0.003,0.002 -0.006,0.003 -0.009,0.004 -0.0287,0.005 -0.0677,-0.03 -0.0867,-0.0777 -0.0259,-0.0647 -0.0271,-0.10271 -0.0124,-0.10991 z m 0.94264,-0.11424 c 0.0177,2.1e-4 0.0551,0.0512 0.0901,0.12446 0.0402,0.0837 0.0623,0.16615 0.0492,0.18314 -0.013,0.0171 -0.0567,-0.0376 -0.0967,-0.12138 -0.0401,-0.0837 -0.0622,-0.16604 -0.049,-0.18308 0,-0.002 0.004,-0.003 0.006,-0.003 z m -0.38135,1.35924 c 0.0148,-0.007 0.0455,0.0167 0.0839,0.0757 0.0324,0.0496 0.0417,0.0942 0.0243,0.10789 -0.003,0.002 -0.006,0.003 -0.009,0.004 -0.0287,0.005 -0.0676,-0.0301 -0.0866,-0.0777 -0.0259,-0.0648 -0.0272,-0.10286 -0.0124,-0.10991 z m 0.17307,0.30242 c 0.003,-0.002 0.005,-0.003 0.009,-0.004 0.0282,-0.005 0.079,0.0564 0.11337,0.13533 0.0259,0.0601 0.0349,0.0963 0.0297,0.10914 -0.009,0.0213 -0.0551,-0.0221 -0.12356,-0.12705 -0.0341,-0.0522 -0.0451,-0.0993 -0.0285,-0.11348 z"
       style="fill:#000000;stroke-width:0.07660326" />
    <path
       inkscape:connector-curvature="0"
       id="path4618-3-2-7-3-5-3-2-7-9-3-1-9-5-4-6-1-2-4-0"
       d="m 23.485686,293.44414 c -0.63399,0.31656 -1.26312,0.57726 -1.89738,0.78756 -0.35994,0.11934 -0.68149,0.21949 -0.71451,0.2226 -0.033,0.003 -0.25741,0.0603 -0.49871,0.12716 -0.24127,0.0668 -0.57576,0.14948 -0.74324,0.18366 -0.19185,0.0392 -0.2916,0.0945 -0.26958,0.14964 0.005,0.0114 -0.0119,0.0241 -0.0426,0.0376 0.008,0.002 0.0148,0.005 0.0228,0.007 -0.0499,0.01 -0.0862,0.0178 -0.13327,0.0274 -0.0204,0.005 -0.0397,0.0103 -0.0637,0.0155 l -8e-5,2.1e-4 c -0.003,-7.9e-4 -0.004,-0.001 -0.006,-0.002 -0.0369,0.008 -0.0857,0.0171 -0.11409,0.0234 -0.29342,0.0649 -0.33633,0.0574 -0.24079,-0.042 0.0198,-0.0206 0.0312,-0.0341 0.0429,-0.0481 -0.0687,-0.0151 -0.13756,-0.0301 -0.20469,-0.0457 -0.61362,0.0538 -2.508014,0.0818 -2.685124,0.0375 -0.11202,-0.0281 -0.34152,-0.0495 -0.51006,-0.0476 -0.77502,0.008 -3.63617,-0.62971 -3.86514,-0.86191 -0.0453,-0.0459 -0.0913,-0.0304 -0.141929,0.0474 -0.06,0.0924 0.143729,0.18086 1.024519,0.44483 0.60468,0.18125 1.07061,0.34373 1.0355,0.36112 -0.10837,0.0536 -2.693349,-0.75428 -3.23797,-1.01196 -1.9769623,-0.93547 -3.7303617,-2.38264 -4.9658627,-4.09919 -0.21804,-0.30293 -0.46392,-0.63836 -0.54639,-0.74533 -0.0825,-0.10694 -0.16787,-0.28878 -0.18991,-0.40397 -0.0378,-0.19724 -0.0251,-0.19265 0.21994,0.0769 0.14304,0.15745 0.3015,0.3663 0.351931,0.46418 0.0503,0.0979 0.132949,0.18061 0.18303,0.18402 0.0574,0.004 0.005,-0.16766 -0.141791,-0.46442 -0.12811,-0.25884 -0.20568,-0.48405 -0.17253,-0.50045 0.0747,-0.037 0.72263,1.02933 0.710511,1.16935 -0.005,0.056 0.007,0.0659 0.0254,0.022 0.0437,-0.10256 0.724109,0.6522 0.98108,1.08832 0.108369,0.18395 0.29083,0.39983 0.40542,0.47986 0.11459,0.08 0.237569,0.20457 0.273229,0.27667 0.0357,0.0721 0.0942,0.12896 0.129991,0.12647 0.0358,-0.003 0.28522,0.16669 0.5542494,0.3759 0.269061,0.20921 0.6508,0.48042 0.84836,0.60269 0.197651,0.12219 0.35531,0.26829 0.35042,0.32456 -0.005,0.0563 0.006,0.0675 0.0241,0.025 0.0183,-0.0426 0.0955,-0.0473 0.17187,-0.0102 0.0762,0.0369 0.16515,0.0271 0.19752,-0.0219 0.0426,-0.0645 -0.003,-0.12042 -0.16141,-0.20252 -0.58003,-0.29854 -1.6699604,-1.22278 -1.7106904,-1.4507 -0.007,-0.0419 -0.0265,-0.0415 -0.0422,7.9e-4 -0.0273,0.0737 -0.28965,-0.1318 -0.6337,-0.49642 -0.60325,-0.63931 -0.77865,-0.85199 -0.78603,-0.95303 -0.005,-0.0632 -0.0282,-0.0848 -0.0525,-0.0481 -0.0241,0.0368 -0.13494,-0.0652 -0.24593,-0.22666 -0.11096,-0.16142 -0.29765,-0.41416 -0.41475,-0.56163 -0.11711,-0.14746 -0.30718,-0.42439 -0.42246,-0.61538 -0.18482,-0.30619 -0.19086,-0.33809 -0.0508,-0.27019 0.0873,0.0424 0.19706,0.15364 0.24376,0.24733 0.1161,0.23273 1.14041,1.49828 1.36974,1.69239 l 0.18569,0.15709 -0.0357,-0.18984 c -0.0344,-0.18275 -0.0304,-0.18626 0.10932,-0.0962 0.20789,0.13385 0.2136,0.0255 0.0209,-0.39123 l -0.1687,-0.36487 0.25762,0.20448 c 0.14171,0.11245 0.28512,0.25409 0.31869,0.31465 0.0336,0.0606 0.10478,0.11301 0.1583,0.11665 0.0535,0.004 0.10105,0.0572 0.10555,0.1188 0.005,0.0616 0.0479,0.0924 0.0965,0.0683 0.0486,-0.024 0.3137404,0.11551 0.5892504,0.31011 0.83072,0.58672 1.23976,1.10876 2.3707213,1.65641 1.106539,0.53583 1.469709,0.68417 2.370109,0.96779 0.52631,0.16573 0.73716,0.12464 0.303111,-0.059 -0.135921,-0.0575 -0.291491,-0.1479 -0.345781,-0.20092 -0.0543,-0.053 -0.12692,-0.0825 -0.16129,-0.0654 -0.0343,0.017 -0.0783,-10e-4 -0.0977,-0.0403 -0.0193,-0.0392 0.29181,0.003 0.691619,0.0935 0.39978,0.0906 0.83664,0.188 0.97065,0.21652 0.14959,0.13727 0.294511,0.2605 0.43701,0.37312 0.29014,0.0465 0.584681,0.0829 0.89027,0.10895 0.563961,0.0481 1.123294,0.0748 1.243075,0.0593 0.11977,-0.0154 0.24063,-0.012 0.268599,0.007 0.058,0.0404 1.389011,-0.10168 2.12651,-0.22693 0.843601,-0.14319 1.557631,-0.35005 2.4533,-0.71091 0.474711,-0.19126 0.89378,-0.34071 0.931281,-0.33199 0.0375,0.009 0.10443,-0.0313 0.148749,-0.0888 0.0444,-0.0576 0.16076,-0.13307 0.258761,-0.16776 0.30027,-0.10634 1.516799,-0.88111 2.20403,-1.4039 0.48114,-0.36601 0.57912,-0.42169 0.37618,-0.21323 -0.77493,0.79608 -3.209521,2.1928 -4.59515,2.63613 -0.79293,0.25371 -1.86978,0.50486 -2.641251,0.6159 -0.87585,0.12604 -0.850369,0.11945 -0.79232,0.19982 0.0773,0.10702 0.4637,0.10425 1.22237,-0.009 0.41656,-0.0623 0.679321,-0.0626 0.70406,-5.3e-4 0.0251,0.0627 0.0434,0.0619 0.0502,-0.002 0.006,-0.057 0.19378,-0.13924 0.43103,-0.18886 0.231299,-0.0483 0.53139,-0.13401 0.666769,-0.19054 0.13539,-0.0565 0.288881,-0.10045 0.34108,-0.0976 0.153031,0.008 1.548901,-0.54605 1.936061,-0.76877 0.195449,-0.11247 0.481199,-0.26633 0.63479,-0.34202 0.97541,-0.48051 2.68526,-1.95237 3.77812,-3.2519 0.25357,-0.30154 0.22844,-0.25485 -0.11123,0.20741 -0.52772,0.71814 -0.3996,0.70956 0.31988,-0.0213 0.79383,-0.80644 1.88309,-2.49174 2.238291,-3.46345 0.0608,-0.16638 0.192349,-0.50185 0.29229,-0.74538 0.0999,-0.24354 0.230259,-0.66519 0.289661,-0.93697 0.0594,-0.27179 0.131529,-0.58438 0.160419,-0.69472 0.0288,-0.11038 0.0678,-0.33159 0.0864,-0.49176 0.01849,-0.16019 0.0759,-0.30841 0.12718,-0.32941 0.0513,-0.0211 0.0518,-0.0405 0,-0.0433 -0.0508,-0.003 -0.0663,-0.14408 -0.0342,-0.31406 0.0321,-0.17 0.0611,-0.50087 0.0643,-0.73536 0.003,-0.23448 0.0334,-0.53521 0.0671,-0.66829 0.0337,-0.13309 0.0377,-0.21573 0.009,-0.18366 -0.0289,0.0321 -0.0607,-0.0946 -0.0708,-0.28156 -0.01299,-0.24018 0.014,-0.33816 0.0913,-0.33399 0.0802,0.004 0.10464,-0.0496 0.092,-0.20179 -0.0292,-0.3499 0.0368,-0.19118 0.0832,0.20036 0.02429,0.20433 0.01011,0.31637 -0.0329,0.25167 -0.0849,-0.1295 -0.15044,-0.08 -0.16637,0.12546 -0.008,0.10795 0.0122,0.12633 0.102902,0.0912 0.081,-0.0314 0.110968,0.12467 0.105039,0.54747 -0.0132,0.93637 -0.105622,1.817 -0.204549,1.94543 -0.05,0.0649 -0.0531,0.11996 -0.007,0.12243 0.0461,0.002 0.0408,0.12481 -0.01191,0.27182 -0.0525,0.14701 -0.0893,0.32484 -0.0817,0.39494 0.0451,0.41072 -0.751311,2.49623 -1.01782,2.66529 -0.0701,0.0444 -0.0703,0.0701 0,0.0738 0.0659,0.004 0.0757,0.0501 0.02569,0.12115 -0.10554,0.15008 -0.220689,0.34688 -0.54451,0.93083 -0.386289,0.6967 -0.42971,0.80785 -0.31827,0.81383 0.119171,0.006 0.537181,-0.63694 0.88773,-1.36633 0.131469,-0.27356 0.282181,-0.57422 0.334939,-0.66793 0.0527,-0.0937 0.128352,-0.27582 0.16788,-0.40485 0.0397,-0.12899 0.0808,-0.24968 0.0921,-0.26797 0.0114,-0.0183 0.0328,-0.0673 0.0481,-0.10875 0.01511,-0.0416 0.0759,-0.1916 0.13443,-0.33351 0.29872,-0.72439 0.71705,-2.5307 0.68281,-2.94769 -0.007,-0.0874 0.01011,-0.1884 0.0372,-0.22427 0.0277,-0.0359 0.0539,-0.42552 0.0583,-0.86607 0.01061,-1.0618 0.005,-1.1783 -0.0716,-1.57875 -0.20873,-1.08892 -0.226298,-1.88296 -0.03,-1.35925 0.128559,0.34306 0.1787,1.00705 0.0521,0.69003 -0.02331,-0.0586 -0.0415,-0.055 -0.0484,0.01 -0.006,0.0569 0.0254,0.10547 0.0697,0.10783 0.0443,0.002 0.0999,0.21785 0.123502,0.47884 0.0236,0.26099 0.048,0.52484 0.0545,0.58641 0.0209,0.19881 0,1.22214 -0.0388,2.00103 -0.0411,0.80251 -0.36327,2.52604 -0.507151,2.71277 -0.0469,0.0609 -0.0721,0.14352 -0.0561,0.18379 0.0432,0.10821 -0.481992,1.44777 -0.849212,2.16606 -0.0787,0.15393 -0.355039,0.62345 -0.614069,1.0432 -0.625771,1.01395 -0.696939,1.10882 -1.48241,1.97527 -0.688551,0.75952 -1.633002,1.63503 -2.180082,2.0213 -0.853129,0.60236 -1.6764,1.10133 -2.49159,1.50825 z m -4.91892,1.63863 c -0.036,0.0178 -0.12234,0.036 -0.23902,0.0447 -0.11195,0.008 -0.1342,-0.006 -0.0655,-0.0435 0.0573,-0.0309 0.16632,-0.0507 0.24225,-0.044 0.0841,0.007 0.0983,0.0249 0.0623,0.0428 z m -0.80796,0.0737 c -0.0709,0.0408 -0.65384,0.0791 -0.67117,0.0441 -0.009,-0.0179 0.008,-0.043 0.0384,-0.0559 0.0727,-0.0313 0.68782,-0.0198 0.63283,0.0118 z m -0.76337,0.0322 c -0.0101,0.008 -0.0572,0.0152 -0.14457,0.0226 -0.18436,0.0156 -0.932874,-2.6e-4 -1.356554,-0.0288 -0.42415,-0.0285 -1.79604,-0.24991 -1.8175,-0.29331 -0.0246,-0.0497 0.13081,-0.033 0.87053,0.0937 0.36301,0.0622 1.05773,0.12537 1.54379,0.14038 0.617494,0.0191 0.932744,0.0424 0.904304,0.0654 z m -0.46996,-0.50465 c 0.0285,-0.0131 -0.0201,-0.0284 -0.149464,-0.0679 -0.11385,-0.0349 -0.39362,-0.0718 -0.62153,-0.0821 -0.22789,-0.0103 -0.42773,-0.0459 -0.44416,-0.0791 -0.0164,-0.0332 -0.0639,-0.0435 -0.10551,-0.0228 -0.13571,0.0671 -0.90729,-0.0572 -0.8967,-0.14451 0.006,-0.0468 -0.0124,-0.0648 -0.0402,-0.0402 -0.11081,0.0981 -0.46485,0.0329 -0.47363,-0.0872 -0.006,-0.0866 -0.0352,-0.0955 -0.0978,-0.0301 -0.0595,0.0622 -0.38023,0.002 -0.97272,-0.18179 -0.48611,-0.15091 -0.94435,-0.31528 -1.01835,-0.36539 -0.15391,-0.10415 -0.36388,-0.0332 -0.29766,0.10063 0.0573,0.11584 2.18848,0.73447 2.92936,0.85036 0.82064,0.12836 1.83328,0.21614 2.05537,0.17819 0.0714,-0.0122 0.11602,-0.0198 0.133004,-0.0279 z m 9.64626,-4.84349 c -0.007,0.004 -0.0122,0.006 -0.0148,0.006 -0.005,-5.3e-4 -0.003,-0.008 0.009,-0.0238 0.0206,-0.0281 0.069,-0.082 0.15041,-0.16505 0.121601,-0.12406 0.28004,-0.3018 0.35247,-0.39488 0.0726,-0.0928 0.15506,-0.15243 0.18401,-0.13256 0.0283,0.0208 -0.0953,0.1794 -0.27538,0.35367 -0.2034,0.19694 -0.35663,0.32775 -0.406149,0.35659 z m 3.66424,-1.88433 c -0.01061,0.003 -0.0177,-0.001 -0.01961,-0.0142 -0.003,-0.0174 0.006,-0.0398 0.0217,-0.0619 0.01561,-0.022 0.0385,-0.0439 0.0645,-0.06 0.0577,-0.0355 0.061,-0.0106 0.009,0.0634 -0.0297,0.0418 -0.0574,0.0676 -0.0752,0.0727 z m -2.8195,1.04013 c -0.005,-5.3e-4 1.8e-4,-0.0159 0.0182,-0.0481 0.029,-0.0516 0.0729,-0.1156 0.12013,-0.17729 0.0474,-0.0616 0.0984,-0.12082 0.14149,-0.16257 0.0861,-0.0835 0.039,0.001 -0.10487,0.18792 -0.0989,0.12844 -0.1633,0.20093 -0.17503,0.20007 z m 1.08677,-0.76541 c -0.006,0.004 -0.0101,0.006 -0.0135,0.006 l -2.65e-4,10e-6 c -0.008,0.001 -0.0106,-0.008 -0.004,-0.0287 0.008,-0.0272 0.0251,-0.0581 0.0466,-0.0861 0.0217,-0.028 0.0476,-0.0529 0.0725,-0.0682 0.0498,-0.0305 0.0369,0.0141 -0.0283,0.0989 -0.0307,0.0398 -0.0558,0.0664 -0.0724,0.0778 z m -15.343744,6.08334 c 0.0196,-0.01 -0.0519,-0.049 -0.15864,-0.0875 -0.10666,-0.0385 -0.2099,-0.0621 -0.22935,-0.0525 -0.0196,0.01 0.052,0.049 0.15862,0.0875 0.10671,0.0385 0.2099,0.0621 0.22937,0.0525 z m 19.367454,-13.62014 c -0.006,0.003 -0.01109,0.005 -0.0167,0.006 l 8.2e-5,1.4e-4 c -0.01849,0.002 -0.0367,-0.0122 -0.0479,-0.0402 -0.0177,-0.0447 -0.01111,-0.10901 0.01511,-0.14297 0.02619,-0.034 0.0623,-0.0251 0.0801,0.0195 0.0177,0.0447 0.01109,0.10906 -0.01511,0.14303 -0.005,0.006 -0.01029,0.0113 -0.01561,0.0147 z m -0.0507,-0.55474 c -0.008,0.005 -0.0127,0.002 -0.01159,-0.008 0.003,-0.0203 0.003,-0.145 -2.4e-4,-0.27705 l -0.004,-0.24013 0.0483,0.21471 c 0.0266,0.11802 0.0269,0.24243 0,0.27679 -0.0132,0.0172 -0.02461,0.0288 -0.0328,0.0334 z m -0.01191,-0.96325 c -0.007,0.004 -0.01691,0.002 -0.0297,-0.007 -0.01299,-0.009 -0.0241,-0.0915 -0.0249,-0.18347 0,-0.0758 -2.09e-4,-0.11375 0.005,-0.11472 0.006,-0.001 0.0164,0.0353 0.0361,0.10777 0.0306,0.11431 0.0346,0.18416 0.0132,0.19702 z m -1.04707,0.12377 c -0.003,0.003 -0.005,0.005 -0.009,0.004 -0.004,-2.6e-4 -0.009,-0.002 -0.01511,-0.007 -0.01029,-0.007 -0.0346,-0.1841 -0.0536,-0.39316 l -0.0348,-0.3801 0.0679,0.37441 c 0.0483,0.26681 0.0624,0.37819 0.0451,0.40096 z m 0.989351,-0.54438 c -0.003,0.003 -0.005,0.005 -0.009,0.004 -0.004,-2.6e-4 -0.01011,-0.002 -0.0154,-0.006 -0.01029,-0.007 -0.0344,-0.18405 -0.0534,-0.39309 l -0.0347,-0.38011 0.0677,0.37449 c 0.0483,0.26679 0.0623,0.37808 0.045,0.40081 z m -0.81648,0.1951 c -0.0298,0.0166 -0.0473,-0.0607 -0.0562,-0.24241 l -0.0109,-0.221 0.0484,0.21483 c 0.0267,0.11799 0.0413,0.22394 0.0321,0.2357 -0.005,0.006 -0.009,0.0105 -0.01349,0.0129 z m 0.699309,-1.0311 c -0.0297,0.0163 -0.0473,-0.061 -0.0562,-0.24241 l -0.0109,-0.22107 0.0487,0.21469 c 0.0267,0.118 0.0412,0.22415 0.032,0.23591 -0.005,0.006 -0.009,0.0104 -0.01349,0.0128 z m -0.84718,0.35958 c -0.029,0.0147 -0.0461,-0.0702 -0.0618,-0.29442 l -0.019,-0.27427 0.0546,0.26814 c 0.0301,0.14749 0.0478,0.27715 0.0393,0.28821 -0.005,0.006 -0.009,0.0103 -0.0132,0.0123 z m 0.714161,-0.92675 c -0.0298,0.0166 -0.0475,-0.0608 -0.0564,-0.24248 l -0.0108,-0.22101 0.0484,0.21464 c 0.0266,0.11802 0.0414,0.22411 0.032,0.23591 -0.005,0.006 -0.009,0.0106 -0.01349,0.0129 z m -0.789001,0.27974 c -0.014,0.008 -0.057,-0.0581 -0.11862,-0.20326 -0.0482,-0.11367 -0.0745,-0.21181 -0.0648,-0.23719 0.003,-0.004 0.003,-0.006 0.006,-0.006 0.02299,-0.004 0.0776,0.0901 0.12129,0.2089 0.0547,0.14888 0.0698,0.23009 0.0558,0.23776 z m 0.67368,-0.74349 c -0.007,0.004 -0.01691,0.002 -0.0297,-0.007 -0.01299,-0.009 -0.0241,-0.0915 -0.02511,-0.1834 0,-0.0758 -5e-5,-0.11383 0.006,-0.11479 0.006,-0.001 0.0164,0.0351 0.0357,0.10782 0.0306,0.11431 0.0349,0.18415 0.01349,0.19702 z m -0.0789,-0.39458 -7.9e-5,-1.5e-4 c -0.0254,0.0104 -0.0656,-0.0349 -0.0959,-0.11174 -0.0364,-0.0925 -0.0431,-0.14783 -0.0276,-0.16008 0.0154,-0.012 0.0528,0.0191 0.104881,0.0987 0.0394,0.0604 0.0523,0.13464 0.0287,0.16527 -0.003,0.004 -0.007,0.006 -0.01011,0.008 z m -0.207539,-0.59481 -7.2e-5,-1.4e-4 c -0.01479,0.007 -0.0456,-0.0168 -0.084,-0.0756 -0.0323,-0.0495 -0.0414,-0.094 -0.0241,-0.10784 0.003,-0.002 0.006,-0.003 0.009,-0.004 0.0287,-0.005 0.0678,0.0302 0.0868,0.0778 0.0259,0.0648 0.0272,0.1027 0.01241,0.10978 z m -0.180671,-0.50549 c -0.01479,0.007 -0.0455,-0.0171 -0.0839,-0.0757 -0.0324,-0.0496 -0.0418,-0.0943 -0.02429,-0.10803 0.003,-0.002 0.006,-0.003 0.009,-0.004 0.0287,-0.005 0.0677,0.03 0.0867,0.0777 0.0259,0.0647 0.0271,0.10272 0.01241,0.10991 z m -0.942631,0.11424 c -0.0177,-2.4e-4 -0.0551,-0.0512 -0.0901,-0.12446 -0.0402,-0.0837 -0.0623,-0.16615 -0.0492,-0.18314 0.01299,-0.0171 0.0567,0.0376 0.0967,0.12138 0.0402,0.0837 0.0622,0.16605 0.049,0.18308 0,0.002 -0.004,0.003 -0.006,0.003 z m 0.381341,-1.35924 c -0.01479,0.007 -0.0455,-0.0167 -0.0839,-0.0757 -0.0324,-0.0496 -0.0417,-0.0942 -0.02429,-0.10789 0.003,-0.002 0.006,-0.003 0.009,-0.004 0.0287,-0.005 0.0676,0.0301 0.0866,0.0777 0.02569,0.0648 0.0272,0.10286 0.01241,0.10991 z M 30.43966,273.8463 c -0.003,0.002 -0.005,0.003 -0.009,0.004 -0.0282,0.005 -0.079,-0.0564 -0.113371,-0.13533 -0.0259,-0.0601 -0.0349,-0.0964 -0.0297,-0.10913 0.008,-0.0213 0.0551,0.0221 0.12356,0.12705 0.0341,0.0522 0.0451,0.0993 0.0285,0.11348 z"
       style="fill:#000000;stroke-width:0.07660326" />
    <path
       sodipodi:nodetypes="ccscccccccc"
       inkscape:connector-curvature="0"
       id="path3693-5-1-3-1-7-4-7-6-5-7-4-6-2-5-3-9-4-3-3-7-6-5-8"
       d="m 27.634596,270.53255 c 1.457689,1.05063 1.887751,1.68705 2.39559,2.24529 0.961361,0.97107 1.112811,2.02005 0.305109,2.2863 -0.25005,0.0824 -0.60094,0.74536 -0.61047,0.80526 -0.0389,-0.33013 -0.0316,-0.15594 -0.101439,-0.37235 -0.01881,-0.003 -0.133559,-0.22034 -0.145941,-0.23669 -0.1592,-0.16403 -0.354838,-0.24821 -0.228338,-0.36687 0.132979,-0.16617 -0.110091,-0.31094 -0.305332,-0.4065 -0.352819,-0.1742 -0.977849,-0.57237 -0.887169,-2.15402 0.22153,-0.49937 -0.42201,-1.80042 -0.42201,-1.80042 z"
       style="fill:#000000;fill-rule:evenodd;stroke:#000000;stroke-width:0.03824098px;stroke-linecap:butt;stroke-linejoin:miter;stroke-opacity:1" />
    <path
       sodipodi:nodetypes="ccscccccccc"
       inkscape:connector-curvature="0"
       id="path3693-5-1-3-1-7-4-7-6-5-7-4-9-2-9-5-4-0-4-0-8-2-0-3-2"
       d="m 6.0382113,289.65364 c -1.4577,-1.05062 -1.88775,-1.68705 -2.39562,-2.24529 -0.96133,-0.97106 -1.11278,-2.02004 -0.30509,-2.28629 0.25003,-0.0824 0.60095,-0.74536 0.61048,-0.80526 0.0389,0.33013 0.0316,0.15595 0.10144,0.37235 0.0188,0.003 0.13353,0.22034 0.14594,0.23669 0.15917,0.16403 0.35481,0.24821 0.22834,0.36687 -0.13301,0.16617 0.11009,0.31094 0.3053,0.4065 0.35285,0.1742 0.97787,0.57237 0.88717,2.15401 -0.22151,0.49937 0.42204,1.80043 0.42204,1.80043 z"
       style="fill:#000000;fill-rule:evenodd;stroke:#000000;stroke-width:0.03824098px;stroke-linecap:butt;stroke-linejoin:miter;stroke-opacity:1" />
    <path
       sodipodi:nodetypes="sccccsscss"
       inkscape:connector-curvature="0"
       id="rect5652-5-5-1-9-4-2-5-2-5-7-8-3-8-5-7-2-7-9-7-9-8-7-6"
       d="m 12.637982,280.1297 c -0.17508,0.0792 -3.9777503,1.72432 -4.8010307,2.19253 0.4365104,-0.18635 0.7682704,-0.24242 0.7828804,-0.24118 0.38211,0.21052 0.61862,0.77556 0.50961,1.2302 l -0.59936,0.39027 c 0.81222,-0.33118 4.5210203,-2.30362 4.6823303,-2.38687 l 8.906144,-4.59656 c 0.33224,-0.17147 1.13776,-0.54743 1.02775,-0.94636 -0.24548,-0.32151 -0.97629,0.043 -1.37927,0.22541 z"
       style="fill:#000000;fill-opacity:1;stroke:none;stroke-width:0.22445539;stroke-miterlimit:4;stroke-dasharray:none;stroke-opacity:1" />
    <path
       style="fill:#ffffff;fill-rule:evenodd;stroke:none;stroke-width:0.26458332px;stroke-linecap:butt;stroke-linejoin:miter;stroke-opacity:1;fill-opacity:1"
       d="m 8.6816405,282.01796 -4.5392577,2.06705 0.8350911,1.44694 4.3408203,-2.27376 z"
       id="path6271"
       inkscape:connector-curvature="0" />
    <path
       sodipodi:nodetypes="ccccsccc"
       inkscape:connector-curvature="0"
       id="path4936-8-1-1-7-5-8-5-73-7-1-8-5-5-7-6-4-7-8"
       d="m 4.7143913,285.55835 1.24037,-0.59124 3.1746804,-1.65582 c 0.10901,-0.45464 -0.1275,-1.01967 -0.50958,-1.23019 -0.0385,-0.003 -2.0442004,0.84175 -3.3541304,1.49 -0.6659,0.32946 -1.16641,0.57811 -1.16641,0.57811 -0.0807,0.32722 0.30686,1.11993 0.61505,1.40909 z"
       style="fill:none;fill-rule:evenodd;stroke:#000000;stroke-width:0.17276806;stroke-linecap:butt;stroke-linejoin:miter;stroke-miterlimit:4;stroke-dasharray:none;stroke-opacity:1" />
    <path
       inkscape:connector-curvature="0"
       id="path8266-3-4-2-6-2"
       d="m 3.8882313,284.27232 -0.16459,-0.30202 18.4079647,-8.13635 z"
       style="fill:#000000;fill-rule:evenodd;stroke:none;stroke-width:0.26458332px;stroke-linecap:butt;stroke-linejoin:miter;stroke-opacity:1" />
    <path
       inkscape:connector-curvature="0"
       id="path8268-6-7-9-5-0"
       d="m 6.5269013,283.2349 -1.18118,0.5906 0.44886,0.89768 1.19298,-0.56695 -1.15755,0.40158 -0.33073,-0.67326 z"
       style="fill:#000000;fill-opacity:1;fill-rule:evenodd;stroke:none;stroke-width:0.26458332px;stroke-linecap:butt;stroke-linejoin:miter;stroke-opacity:1" />
    <path
       inkscape:connector-curvature="0"
       id="path8266-2-5-9-7-1-4"
       d="m 4.7561713,285.91476 -0.18119,-0.29237 17.9258247,-9.14977 z"
       style="fill:#000000;fill-rule:evenodd;stroke:none;stroke-width:0.26458332px;stroke-linecap:butt;stroke-linejoin:miter;stroke-opacity:1" />
    <rect
       transform="rotate(-26.894958)"
       y="255.16692"
       x="-125.12769"
       height="1.721338"
       width="0.47667822"
       id="rect8307-1-3-3-5-6"
       style="fill:#000000;fill-opacity:1;stroke:none;stroke-width:0.37890041;stroke-miterlimit:4;stroke-dasharray:none;stroke-opacity:1" />
    <g
       id="g8362-5-4-9-6-4-5"
       transform="rotate(180,27.406715,232.34842)">
      <path
         style="fill:#000000;fill-opacity:1;stroke:none;stroke-width:0.22445539;stroke-miterlimit:4;stroke-dasharray:none;stroke-opacity:1"
         d="m 33.771675,184.61104 c -0.17507,0.0792 -3.97773,1.72432 -4.80102,2.19253 0.43652,-0.18635 0.76828,-0.24242 0.78289,-0.24118 0.38209,0.21052 0.61861,0.77556 0.5096,1.2302 l -0.59936,0.39027 c 0.81222,-0.33118 4.52103,-2.30362 4.68234,-2.38687 l 8.90613,-4.59656 c 0.33225,-0.17147 1.13777,-0.54743 1.02775,-0.94636 -0.24549,-0.32151 -0.97628,0.043 -1.37928,0.22541 z"
         id="rect5652-5-5-1-9-4-2-5-2-5-7-8-3-8-5-7-2-7-9-7-0-4-6-0-0"
         inkscape:connector-curvature="0"
         sodipodi:nodetypes="sccccsscss" />
      <path
         style="fill:none;fill-rule:evenodd;stroke:#000000;stroke-width:0.17276806;stroke-linecap:butt;stroke-linejoin:miter;stroke-miterlimit:4;stroke-dasharray:none;stroke-opacity:1"
         d="m 25.848095,190.03969 1.24036,-0.59124 3.1747,-1.65582 c 0.10901,-0.45464 -0.1275,-1.01967 -0.50959,-1.23019 -0.0385,-0.003 -2.04419,0.84175 -3.35412,1.49 -0.6659,0.32946 -1.16642,0.57811 -1.16642,0.57811 -0.0807,0.32722 0.30686,1.11993 0.61505,1.40909 z"
         id="path4936-8-1-1-7-5-8-5-73-7-1-8-5-5-7-7-6-1-2-8"
         inkscape:connector-curvature="0"
         sodipodi:nodetypes="ccccsccc" />
      <path
         style="fill:#000000;fill-rule:evenodd;stroke:none;stroke-width:0.26458332px;stroke-linecap:butt;stroke-linejoin:miter;stroke-opacity:1"
         d="m 25.021943,188.75366 -0.164598,-0.30202 18.407948,-8.13635 z"
         id="path8266-3-8-5-1-5-2"
         inkscape:connector-curvature="0" />
      <path
         style="fill:#000000;fill-opacity:1;fill-rule:evenodd;stroke:none;stroke-width:0.26458332px;stroke-linecap:butt;stroke-linejoin:miter;stroke-opacity:1"
         d="m 27.660598,187.71624 -1.181174,0.5906 0.448847,0.89768 1.192985,-0.56695 -1.157552,0.40158 -0.330729,-0.67326 z"
         id="path8268-6-6-6-3-6-6"
         inkscape:connector-curvature="0" />
      <path
         style="fill:#000000;fill-rule:evenodd;stroke:none;stroke-width:0.26458332px;stroke-linecap:butt;stroke-linejoin:miter;stroke-opacity:1"
         d="m 25.889865,190.3961 -0.181178,-0.29237 17.925803,-9.14977 z"
         id="path8266-2-5-7-8-2-9-5"
         inkscape:connector-curvature="0" />
      <rect
         style="fill:#000000;fill-opacity:1;stroke:none;stroke-width:0.37890041;stroke-miterlimit:4;stroke-dasharray:none;stroke-opacity:1"
         id="rect8307-1-4-0-6-7-7"
         width="0.47667822"
         height="1.721338"
         x="-63.071384"
         y="179.53983"
         transform="rotate(-26.894957)" />
    </g>
  </g>
</svg>
