<?xml version="1.0" encoding="UTF-8" standalone="no"?>
<!-- Created with Inkscape (http://www.inkscape.org/) -->

<svg
   xmlns:dc="http://purl.org/dc/elements/1.1/"
   xmlns:cc="http://creativecommons.org/ns#"
   xmlns:rdf="http://www.w3.org/1999/02/22-rdf-syntax-ns#"
   xmlns:svg="http://www.w3.org/2000/svg"
   xmlns="http://www.w3.org/2000/svg"
   xmlns:sodipodi="http://sodipodi.sourceforge.net/DTD/sodipodi-0.dtd"
   xmlns:inkscape="http://www.inkscape.org/namespaces/inkscape"
   width="16"
   height="16"
   id="svg3813"
   version="1.1"
   inkscape:version="0.91 r13725"
   sodipodi:docname="paintmode-indirect.svg">
  <defs
     id="defs3815" />
  <sodipodi:namedview
     id="base"
     pagecolor="#ffffff"
     bordercolor="#666666"
     borderopacity="1.0"
     inkscape:pageopacity="0.0"
     inkscape:pageshadow="2"
     inkscape:zoom="22.627417"
     inkscape:cx="8.0208253"
     inkscape:cy="8.0447501"
     inkscape:document-units="px"
     inkscape:current-layer="layer1"
     showgrid="true"
     fit-margin-top="0"
     fit-margin-left="0"
     fit-margin-right="0"
     fit-margin-bottom="0"
     inkscape:window-width="1920"
     inkscape:window-height="1012"
     inkscape:window-x="-4"
     inkscape:window-y="39"
     inkscape:window-maximized="1"
     inkscape:showpageshadow="false"
     showguides="true"
     inkscape:snap-bbox="true"
     inkscape:bbox-nodes="true">
    <inkscape:grid
       type="xygrid"
       id="grid4109" />
  </sodipodi:namedview>
  <metadata
     id="metadata3818">
    <rdf:RDF>
      <cc:Work
         rdf:about="">
        <dc:format>image/svg+xml</dc:format>
        <dc:type
           rdf:resource="http://purl.org/dc/dcmitype/StillImage" />
        <dc:title />
      </cc:Work>
    </rdf:RDF>
  </metadata>
  <g
     inkscape:label="Capa 1"
     inkscape:groupmode="layer"
     id="layer1"
     transform="translate(-378.85714,-546.07647)">
    <path
       style="opacity:1;fill:#c0c0c0;fill-opacity:1;stroke:none;stroke-width:3;stroke-linecap:round;stroke-linejoin:bevel;stroke-miterlimit:4;stroke-dasharray:none;stroke-dashoffset:0;stroke-opacity:1"
       d="M 9.5 2.65625 C 7.6237879 2.65625 6.0661902 4.0013552 5.7285156 5.7792969 C 4.0001117 6.1359687 2.7011719 7.6659655 2.7011719 9.5 C 2.7011719 11.59852 4.40148 13.298828 6.5 13.298828 C 8.3340345 13.298828 9.8640313 11.999888 10.220703 10.271484 C 11.998645 9.9338098 13.34375 8.3762121 13.34375 6.5 C 13.34375 4.37715 11.62285 2.65625 9.5 2.65625 z "
       transform="translate(378.85714,546.07647)"
       id="path4181" />
    <path
       style="opacity:1;fill:#f2f2f2;fill-opacity:1;stroke:none;stroke-width:3;stroke-linecap:round;stroke-linejoin:bevel;stroke-miterlimit:4;stroke-dasharray:none;stroke-dashoffset:0;stroke-opacity:1"
       d="m 388.35714,548.07647 a 4.5,4.5 0 0 0 -4.5,4.5 4.5,4.5 0 0 0 4.5,4.5 4.5,4.5 0 0 0 4.5,-4.5 4.5,4.5 0 0 0 -4.5,-4.5 z m 0,0.75 a 3.75,3.75 0 0 1 3.75,3.75 3.75,3.75 0 0 1 -3.75,3.75 3.75,3.75 0 0 1 -3.75,-3.75 3.75,3.75 0 0 1 3.75,-3.75 z"
       id="circle4164"
       inkscape:connector-curvature="0" />
    <path
       id="path4174"
       d="m 385.35714,551.07647 a 4.5,4.5 0 0 0 -4.5,4.5 4.5,4.5 0 0 0 4.5,4.5 4.5,4.5 0 0 0 4.5,-4.5 4.5,4.5 0 0 0 -4.5,-4.5 z m 0,0.75 a 3.75,3.75 0 0 1 3.75,3.75 3.75,3.75 0 0 1 -3.75,3.75 3.75,3.75 0 0 1 -3.75,-3.75 3.75,3.75 0 0 1 3.75,-3.75 z"
       style="opacity:1;fill:#f2f2f2;fill-opacity:1;stroke:none;stroke-width:3;stroke-linecap:round;stroke-linejoin:bevel;stroke-miterlimit:4;stroke-dasharray:none;stroke-dashoffset:0;stroke-opacity:1"
       inkscape:connector-curvature="0" />
  </g>
</svg>
