<?xml version="1.0" encoding="UTF-8" standalone="no"?>
<svg
   id="a"
   viewBox="0 0 21.999999 21.999999"
   version="1.1"
   width="22"
   height="22"
   xmlns="http://www.w3.org/2000/svg"
   xmlns:svg="http://www.w3.org/2000/svg">
  <defs
     id="defs1" />
  <path
     id="c"
     style="fill:#eff0f1;fill-opacity:1;stroke-width:0px"
     d="M 9.340672,2 C 7.8937814,3.0221806 6.4468899,4.0443613 5.0000001,5.0665418 c 1.4468898,0.9819198 2.8937813,1.9638393 4.3406719,2.945759 0,-0.7442685 0,-1.4885363 0,-2.2328048 2.63479,-0.100062 5.152611,1.6168539 5.76183,3.896276 0.610119,2.029114 -0.228159,4.373334 -2.197335,5.580253 -1.027411,0.658084 -2.301539,0.992565 -3.564495,0.964479 0,-0.74427 0,-1.488536 0,-2.232806 -1.4468906,0.98192 -2.8937821,1.96384 -4.3406719,2.945759 C 6.4468899,17.955639 7.8937814,18.977819 9.340672,20 c 0,-0.743149 0,-1.486299 0,-2.22945 3.104161,0.101284 6.144959,-1.709531 7.185962,-4.323705 1.073739,-2.565881 0.290895,-5.6870287 -2.04453,-7.5063352 -1.386266,-1.1261239 -3.26497,-1.7550144 -5.141432,-1.7110602 0,-0.7431498 0,-1.4862995 0,-2.2294496 z" />
</svg>
