<?xml version="1.0" encoding="UTF-8" standalone="no"?>
<svg
   viewBox="0 0 22 22"
   version="1.1"
   id="svg1"
   xmlns="http://www.w3.org/2000/svg"
   xmlns:svg="http://www.w3.org/2000/svg">
  <defs
     id="defs3051">
    <style
       type="text/css"
       id="current-color-scheme">.ColorScheme-Text { color:#232629; }</style>
  </defs>
  <path
     d="M 15.292969,0 0,15.292969 0.7070313,16 16,0.7070313 Z"
     style="color:#232629;fill:#eff0f1;fill-opacity:1"
     id="path8" />
  <path
     id="path7"
     style="color:#232629;fill:#eff0f1;fill-opacity:1"
     d="m 0,0 v 1 12.986328 l 1,-1 V 7 H 2.5996094 4 L 6,5 H 8.9863281 L 11.986328,2 H 9 L 7,0 H 1 Z m 1,1 h 3 2.5996094 l 1,1 -4,4 H 1 Z m 15,1 -3,3 h 2 v 4 h 1 z" />
  <path
     id="path824"
     style="fill:#eff0f1;fill-opacity:1;stroke:none;stroke-width:1.25px;stroke-linecap:butt;stroke-linejoin:miter;stroke-opacity:1"
     d="M 13.25 9.2734375 C 9.462408 9.2734375 7.0804917 11.616787 6.1035156 14.273438 L 3.8476562 14.273438 L 2 16.121094 L 2 16.773438 L 5.6015625 16.773438 C 5.4954875 19.431085 6.793759 21.773437 9.5 21.773438 C 12.231755 21.773439 14.248387 20.818835 15.964844 19.117188 C 16.664096 21.729997 18.072074 23.3291 22 20.523438 C 19.098341 20.523438 18.256835 18.838308 17.878906 16.773438 L 22 16.773438 L 22 14.273438 L 19.40625 14.273438 C 20.244332 12.778397 21.085781 11.101878 22 9.2734375 L 19.5 9.2734375 C 19.06993 10.13358 18.338095 11.65914 17.417969 13.287109 C 17.062079 11.104078 16.27404 9.2734375 13.25 9.2734375 z M 13.25 11.175781 C 14.352806 11.175781 14.804928 12.527618 15.119141 14.273438 L 9.1171875 14.273438 C 9.8324945 12.586995 11.235567 11.175781 13.25 11.175781 z M 8.5722656 16.773438 L 15.160156 16.773438 C 13.802481 18.533241 12.276209 19.873047 10.75 19.873047 C 9.238355 19.873047 8.5408496 18.461096 8.5722656 16.773438 z " />
</svg>
