<?xml version="1.0" encoding="UTF-8" standalone="no"?>
<svg
   version="1.1"
   viewBox="0 0 22 22"
   id="svg1"
   xmlns="http://www.w3.org/2000/svg"
   xmlns:svg="http://www.w3.org/2000/svg">
  <defs
     id="defs1">
    <style
       type="text/css"
       id="style1">.ColorScheme-Text {
        color:#eff0f1;
      }</style>
  </defs>
  <path
     id="path1"
     style="fill:currentColor;fill-opacity:1;stroke:none"
     class="ColorScheme-Text"
     d="M 18.292969 3 L 3 18.292969 L 3.7070312 19 L 19 3.7070312 L 18.292969 3 z M 1 5 L 1 17 L 2.8789062 17 L 3.8789062 16 L 2 16 L 2 6 L 13.878906 6 L 14.878906 5 L 1 5 z M 21 5 L 17.242188 6.8789062 L 15.007812 9.1132812 L 20 6.6171875 L 20 15.382812 L 15 12.882812 L 15 9.1210938 L 14 10.121094 L 14 16 L 8.1210938 16 L 7.1210938 17 L 15 17 L 15 14 L 21 17 L 21 5 z M 10 7 L 10 8 L 11.878906 8 L 12.878906 7 L 10 7 z " />
</svg>
