<?xml version="1.0" encoding="UTF-8" standalone="no"?>
<svg
   id="a"
   viewBox="0 0 21.999999 21.999999"
   version="1.1"
   width="22"
   height="22"
   xmlns="http://www.w3.org/2000/svg"
   xmlns:svg="http://www.w3.org/2000/svg">
  <defs
     id="defs1" />
  <path
     id="c"
     style="fill:#eff0f1;fill-opacity:1;stroke-width:0px"
     d="M 3.0018051,10.887886 C 3.0357871,8.579669 4.0386691,6.3016948 5.9363911,4.7513203 9.3092471,1.9939131 14.260052,2.5542894 16.960254,5.9974905 L 19,4.3314829 V 10.026863 L 13.557773,8.7771349 15.599262,7.1093483 C 13.488068,4.4168735 9.6630001,3.9845832 7.0255331,6.1398083 4.3880661,8.2950334 3.9646071,12.199878 6.0758011,14.892353 7.2625301,16.406258 9.2460451,17.204426 11,17.232 V 19 C 8.7406831,18.96264 6.2317661,17.939732 4.7139371,16.00421 3.5324351,14.497421 2.9739231,12.682869 3.0009341,10.886996 v 0 z M 10.969993,9.0002145 c 1.10425,-0.016004 2.013789,0.8655289 2.029792,1.9697785 0.016,1.104249 -0.86553,2.013788 -1.969777,2.029792 v 0 c -1.1042499,0.016 -2.0137889,-0.865529 -2.0297929,-1.969778 -0.01601,-1.1042496 0.865528,-2.0137887 1.9697779,-2.0297925 z" />
</svg>
