<?xml version="1.0" encoding="UTF-8" standalone="no"?>
<svg
   version="1.1"
   viewBox="0 0 22 22"
   id="svg1"
   xmlns="http://www.w3.org/2000/svg"
   xmlns:svg="http://www.w3.org/2000/svg">
  <defs
     id="defs1">
    <style
       type="text/css"
       id="current-color-scheme">.ColorScheme-Text {
        color:#232629;
      }</style>
  </defs>
  <ellipse
     style="fill:none;stroke-width:0;stroke-linejoin:round;paint-order:stroke fill markers;fill-opacity:1;stroke:#000000;stroke-opacity:1"
     id="path1"
     cx="10.004436"
     cy="10.95724"
     rx="7.8056593"
     ry="7.3659039" />
  <path
     id="path2"
     style="baseline-shift:baseline;display:inline;overflow:visible;opacity:1;fill:#eff0f1;fill-opacity:1;stroke:none;stroke-width:0;stroke-linejoin:round;stroke-dasharray:none;paint-order:stroke fill markers;enable-background:accumulate;stop-color:#000000;stop-opacity:1"
     d="M 19 4.140625 C 16.221978 5.0478538 13.673993 6.4654513 11.466797 8.2832031 L 12.523438 9.3417969 C 14.438412 7.7869262 16.624453 6.5519925 19 5.71875 L 19 4.140625 z M 8.2832031 11.466797 C 6.4654513 13.673993 5.0475877 16.221978 4.140625 19 L 5.7207031 19 C 6.554194 16.624885 7.7870284 14.438286 9.3417969 12.523438 L 8.2832031 11.466797 z " />
  <path
     id="path4"
     style="fill:#eff0f1;fill-opacity:0.50196081;stroke:none;stroke-width:0;stroke-linejoin:round;stroke-dasharray:none;stroke-opacity:1;paint-order:stroke fill markers"
     d="m 13.019531,8.7294922 c -0.895209,0.061879 0.1167,-0.03841 -0.574219,0.5341797 l 1.59961,1.5996091 -3.181641,3.181641 -1.5996091,-1.59961 C 7.6362636,14.411022 6.3327826,16.623709 5.4023438,19 H 19 V 15.316407 C 19,13.769666 14.56259,8.6228322 13.019531,8.7294922 Z" />
  <path
     id="rect6"
     style="baseline-shift:baseline;display:inline;overflow:visible;opacity:1;fill:#eff0f1;fill-opacity:1;stroke:none;stroke-width:0;stroke-linejoin:bevel;stroke-dasharray:none;paint-order:stroke fill markers;enable-background:accumulate;stop-color:#000000;stop-opacity:1"
     d="M 4.0605468,3 3,4.0605468 6.4394532,7.5 3,10.939453 4.0605468,12 7.5,8.5605468 10.939453,12 12,10.939453 8.5605468,7.5 12,4.0605468 10.939453,3 7.5,6.4394532 Z" />
</svg>
