<?xml version="1.0" encoding="UTF-8" standalone="no"?>
<svg
   viewBox="0 0 22 22"
   version="1.1"
   id="svg1"
   xmlns="http://www.w3.org/2000/svg"
   xmlns:svg="http://www.w3.org/2000/svg">
  <defs
     id="defs3051">
    <style
       type="text/css"
       id="current-color-scheme">
      .ColorScheme-Text {
        color:#232629;
      }
      </style>
  </defs>
  <path
     id="path1"
     style="fill:#eff0f1;fill-opacity:1;stroke:none"
     class="ColorScheme-Text"
     d="M 3,0 0,4 H 17 L 20,0 Z M 3,6 0,10 H 6.4941406 C 8.2470061,8.267481 10.686728,7.2351377 13.171875,7.2753906 c 1.538121,-0.026248 3.132654,0.3871502 4.279297,1.4589844 0.01505,-0.011119 0.149362,0.1276363 0.3125,0.2480469 L 20,6 Z" />
  <path
     id="path824"
     style="fill:#eff0f1;fill-opacity:1;stroke:none;stroke-width:1.25px;stroke-linecap:butt;stroke-linejoin:miter;stroke-opacity:1"
     d="m 13.25,9.2729585 c -3.787592,0 -6.16902,2.3433495 -7.145996,5.0000005 H 2 v 2.5 h 3.601074 c -0.106075,2.657646 1.192685,5 3.898926,5 2.731755,1e-6 4.748387,-0.954602 6.464844,-2.65625 0.699252,2.61281 2.10723,4.211913 6.035156,1.40625 -2.901659,0 -3.743165,-1.68513 -4.121094,-3.75 H 22 v -2.5 H 19.407226 C 20.245308,12.777918 21.085781,11.101398 22,9.2729585 H 19.5 C 19.06993,10.1331 18.337606,11.658662 17.41748,13.286631 17.06159,11.1036 16.27404,9.2729585 13.25,9.2729585 Z m 0,1.9018565 c 1.102806,0 1.555904,1.352324 1.870117,3.098144 H 9.116699 C 9.832006,12.586516 11.235567,11.174815 13.25,11.174815 Z m -4.677735,5.598144 h 6.586915 c -1.357675,1.759803 -2.882971,3.100586 -4.40918,3.100586 -1.511645,0 -2.209151,-1.412928 -2.177735,-3.100586 z" />
</svg>
