<?xml version="1.0" encoding="UTF-8" standalone="no"?>
<svg
   id="a"
   viewBox="0 0 21.999999 21.999999"
   version="1.1"
   width="22"
   height="22"
   xmlns="http://www.w3.org/2000/svg"
   xmlns:svg="http://www.w3.org/2000/svg">
  <defs
     id="defs1" />
  <path
     id="c"
     style="fill:#eff0f1;stroke-width:0px;fill-opacity:1"
     d="M 18.998195,10.887886 C 18.964213,8.579669 17.961331,6.3016948 16.063609,4.7513203 12.690753,1.9939131 7.7399477,2.5542894 5.0397459,5.9974905 L 3,4.3314829 V 10.026863 L 8.4422267,8.7771349 6.4007382,7.1093483 C 8.5119318,4.4168735 12.337,3.9845832 14.974467,6.1398083 17.611934,8.2950334 18.035393,12.199878 15.924199,14.892353 14.73747,16.406258 12.753955,17.204426 11,17.232 V 19 c 2.259317,-0.03736 4.768234,-1.060268 6.286063,-2.99579 1.181502,-1.506789 1.740014,-3.321341 1.713003,-5.117214 v 0 z M 11.030007,9.0002145 C 9.9257572,8.9842105 9.0162183,9.8657434 9.0002147,10.969993 c -0.016004,1.104249 0.8655299,2.013788 1.9697773,2.029792 v 0 c 1.10425,0.016 2.013789,-0.865529 2.029793,-1.969778 0.01601,-1.1042496 -0.865528,-2.0137887 -1.969778,-2.0297925 z" />
</svg>
