<?xml version="1.0" encoding="UTF-8" standalone="no"?>
<svg
   version="1.1"
   viewBox="0 0 22 22"
   id="svg1"
   xmlns="http://www.w3.org/2000/svg"
   xmlns:svg="http://www.w3.org/2000/svg">
  <defs
     id="defs1">
    <style
       type="text/css"
       id="current-color-scheme">.ColorScheme-Text {
        color:#232629;
      }</style>
  </defs>
  <path
     id="path3"
     style="color:#232629;baseline-shift:baseline;display:inline;overflow:visible;vector-effect:none;fill:#eff0f1;fill-opacity:0.50196081;enable-background:accumulate;stop-color:#000000"
     d="M 11.910156 4.5117188 C 9.6065876 4.4623566 7.2741554 5.2558593 5.9902344 6.5976562 C 3.9098503 8.7718216 9.8191539 10.929059 8.4589844 12.537109 C 7.0988149 14.14516 4.9545689 11.288244 3.8339844 12.640625 C 2.718781 13.986513 4.5761717 15.748048 4.5761719 15.748047 C 4.5761719 15.748047 5.8443739 17.175628 7.9667969 17.494141 C 10.502314 17.874646 12.107586 12.265777 15.21875 15.476562 C 15.539121 14.443079 16.154253 13.485004 16.623047 12.521484 L 17.5 10.912109 C 17.807062 11.485722 18.125435 12.054033 18.435547 12.626953 C 18.644122 10.870934 18.444868 8.849534 17.658203 7.484375 C 16.487559 5.452868 14.213725 4.5610809 11.910156 4.5117188 z " />
  <path
     id="path5"
     style="color:#232629;baseline-shift:baseline;display:inline;overflow:visible;vector-effect:none;fill:#eff0f1;enable-background:accumulate;stop-color:#000000;fill-opacity:1"
     d="M 11.919922 4.0117188 C 9.4943175 3.9597415 7.0537847 4.7628448 5.6289062 6.2519531 C 4.9985088 6.9107683 4.9376835 7.7630267 5.234375 8.421875 C 5.5310665 9.0807233 6.0745627 9.6234717 6.6074219 10.138672 C 7.140281 10.653872 7.6718611 11.141571 7.9472656 11.527344 C 8.0849679 11.72023 8.150409 11.879669 8.1621094 11.972656 C 8.1738094 12.065646 8.1707489 12.103029 8.0761719 12.214844 C 7.8251319 12.511634 7.6380418 12.557863 7.34375 12.542969 C 7.0494582 12.528079 6.6602832 12.392152 6.2441406 12.222656 C 5.8279981 12.053161 5.3906828 11.852366 4.90625 11.785156 C 4.4218172 11.717946 3.8345601 11.855266 3.4492188 12.320312 C 3.0927221 12.750553 2.9581305 13.258614 2.9804688 13.716797 C 3.0028066 14.17498 3.1602653 14.58615 3.3457031 14.933594 C 3.7127389 15.621287 4.2102136 16.087815 4.2207031 16.097656 C 4.2486881 16.129116 5.6058015 17.645104 7.8925781 17.988281 C 8.7240329 18.113058 9.4485172 17.735908 10.058594 17.267578 C 10.668669 16.799249 11.21539 16.218365 11.748047 15.765625 C 12.280703 15.312885 12.777744 15.012416 13.242188 14.982422 C 13.70663 14.952432 14.242736 15.142885 14.982422 15.955078 C 15.013163 15.988833 15.04313 16.020942 15.074219 16.052734 C 15.143915 15.67721 15.260473 15.313564 15.404297 14.957031 C 14.649569 14.244245 13.895607 13.938014 13.177734 13.984375 C 12.359152 14.037245 11.692215 14.498257 11.099609 15.001953 C 10.507 15.505649 9.96725 16.076485 9.4511719 16.472656 C 8.9350937 16.868828 8.4952631 17.068169 8.0410156 17 C 6.1066605 16.70971 4.9492187 15.416016 4.9492188 15.416016 L 4.9355469 15.400391 L 4.9199219 15.384766 C 4.9199219 15.384766 4.5054513 14.985428 4.2265625 14.462891 C 4.0871181 14.201622 3.9907385 13.918675 3.9785156 13.667969 C 3.9662926 13.417263 4.0176446 13.201689 4.21875 12.958984 C 4.3937008 12.747844 4.4942874 12.737204 4.7695312 12.775391 C 5.0447752 12.813581 5.4372264 12.973313 5.8671875 13.148438 C 6.2971486 13.323559 6.7696407 13.514431 7.2949219 13.541016 C 7.8202032 13.56761 8.4107988 13.368563 8.8398438 12.861328 C 9.0853078 12.57113 9.1972452 12.188984 9.1542969 11.847656 C 9.1113486 11.506328 8.9541568 11.216823 8.7617188 10.947266 C 8.3768425 10.408151 7.8169264 9.9170733 7.3027344 9.4199219 C 6.7885424 8.9227705 6.3280668 8.4192868 6.1445312 8.0117188 C 5.960996 7.6041505 5.941768 7.3716269 6.3515625 6.9433594 C 7.4945262 5.7488738 9.7169035 4.9649716 11.898438 5.0117188 C 14.079969 5.0584657 16.164212 5.8907982 17.226562 7.734375 C 17.82239 8.7683595 18.054236 10.340198 17.992188 11.818359 C 18.275199 12.333538 18.560144 12.847297 18.830078 13.369141 C 19.203782 11.384589 19.077618 8.9451441 18.091797 7.234375 C 16.812859 5.0149378 14.345526 4.0636961 11.919922 4.0117188 z M 17.5 13 C 17.5 13 16 15.6716 16 16.5 C 16 17.3284 16.67157 18 17.5 18 C 18.32843 18 19 17.3284 19 16.5 C 19 15.6716 17.5 13 17.5 13 z " />
</svg>
