<?xml version="1.0" encoding="UTF-8" standalone="no"?>
<svg
   id="svg6"
   version="1.1"
   viewBox="0 0 22 22"
   xmlns="http://www.w3.org/2000/svg"
   xmlns:svg="http://www.w3.org/2000/svg">
  <defs
     id="defs3051">
    <style
       id="current-color-scheme"
       type="text/css">.ColorScheme-Text {
        color:#eff0f1;
      }</style>
  </defs>
  <path
     id="path4"
     class="ColorScheme-Text"
     d="m 4,13 c 0,0.666667 0,1.333333 0,2 -0.333333,0 -0.666667,0 -1,0 0,-0.666667 0,-1.333333 0,-2 0.333333,0 0.666667,0 1,0 z M 19,3 c 0,5.3333333 0,10.666667 0,16 -3.333333,0 -6.666667,0 -10,0 0,-5.333333 0,-10.6666667 0,-16 3.333333,0 6.666667,0 10,0 z m -1,1 c -2.666667,0 -5.333333,0 -8,0 0,4.6666667 0,9.333333 0,14 2.666667,0 5.333333,0 8,0 0,-4.666667 0,-9.3333333 0,-14 z M 4,17 c 0,0.333333 0,0.666667 0,1 0.333333,0 0.666667,0 1,0 0,0.333333 0,0.666667 0,1 -0.666667,0 -1.333333,0 -2,0 0,-0.666667 0,-1.333333 0,-2 0.333333,0 0.666667,0 1,0 z m 4,1 c 0,0.333333 0,0.666667 0,1 -0.666667,0 -1.333333,0 -2,0 0,-0.333333 0,-0.666667 0,-1 0.666667,0 1.333333,0 2,0 z M 4,9 C 4,9.6666667 4,10.333333 4,11 3.666667,11 3.333333,11 3,11 3,10.333333 3,9.6666667 3,9 3.333333,9 3.666667,9 4,9 Z M 8,5 C 8,5.3333333 8,5.6666667 8,6 7.333333,6 6.666667,6 6,6 6,6.6666667 6,7.3333333 6,8 5.666667,8 5.333333,8 5,8 5,7.3333333 5,6.6666667 5,6 4.333333,6 3.666667,6 3,6 3,5.6666667 3,5.3333333 3,5 3.666667,5 4.333333,5 5,5 5,4.3333333 5,3.6666667 5,3 5.333333,3 5.666667,3 6,3 6,3.6666667 6,4.3333333 6,5 6.666667,5 7.333333,5 8,5 Z"
     fill="currentColor"
     style="fill:#eff0f1;fill-opacity:1" />
</svg>
