<?xml version="1.0" encoding="UTF-8" standalone="no"?>
<svg
   version="1.1"
   viewBox="0 0 22 22"
   id="svg1"
   xmlns="http://www.w3.org/2000/svg"
   xmlns:svg="http://www.w3.org/2000/svg">
  <defs
     id="defs1">
    <style
       id="current-color-scheme"
       type="text/css">.ColorScheme-Text {
        color:#232629;
      }</style>
  </defs>
  <path
     id="path1"
     style="fill:#eff0f1;fill-opacity:1;stroke:none"
     class="ColorScheme-Text"
     d="M 7 3 L 7 4 L 10 4 L 10 6.0253906 C 6.654686 6.283393 4 9.0908726 4 12.5 C 4 15.909127 6.654686 18.716607 10 18.974609 L 10 17.974609 C 7.1970264 17.721723 5 15.368824 5 12.5 C 5 9.4624339 7.4624339 7 10.5 7 C 13.368824 7 15.721723 9.1970264 15.974609 12 L 16.976562 12 C 16.866872 10.586145 16.300786 9.2988436 15.425781 8.28125 L 16.501953 7.2050781 L 17.300781 8 L 18.005859 7.2910156 L 15.707031 5.0019531 L 15.001953 5.7109375 L 15.792969 6.5 L 14.71875 7.5742188 C 13.700098 6.7020862 12.413238 6.1343845 11 6.0253906 L 11 4 L 14 4 L 14 3 L 7 3 z M 15 13 L 15 14 L 14 14 L 14 16 L 15 16 L 15 15 L 16 15 L 16 16 L 17 16 L 17 14 L 16 14 L 16 13 L 15 13 z M 14 16 L 12 16 L 12 17 L 11 17 L 11 18 L 12 18 L 12 19 L 14 19 L 14 18 L 13 18 L 13 17 L 14 17 L 14 16 z M 15 17 L 15 18 L 16 18 L 16 17 L 15 17 z " />
</svg>
