<?xml version="1.0" encoding="UTF-8" standalone="no"?>
<svg
   id="svg6"
   version="1.1"
   viewBox="0 0 22 22"
   xmlns="http://www.w3.org/2000/svg"
   xmlns:svg="http://www.w3.org/2000/svg">
  <defs
     id="defs3051">
    <style
       id="current-color-scheme"
       type="text/css">.ColorScheme-Text {
        color:#232629;
      }</style>
  </defs>
  <path
     id="path4"
     class="ColorScheme-Text"
     d="m 9,18 c -0.666667,0 -1.333333,0 -2,0 0,0.333333 0,0.666667 0,1 0.666667,0 1.333333,0 2,0 0,-0.333333 0,-0.666667 0,-1 z M 19,3 C 13.666667,3 8.333333,3 3,3 c 0,3.333333 0,6.666667 0,10 5.333333,0 10.666667,0 16,0 0,-3.333333 0,-6.666667 0,-10 z m -1,1 c 0,2.666667 0,5.333333 0,8 C 13.333333,12 8.666667,12 4,12 4,9.333333 4,6.666667 4,4 8.666667,4 13.333333,4 18,4 Z M 5,18 c -0.333333,0 -0.666667,0 -1,0 0,-0.333333 0,-0.666667 0,-1 -0.333333,0 -0.666667,0 -1,0 0,0.666667 0,1.333333 0,2 0.666667,0 1.333333,0 2,0 0,-0.333333 0,-0.666667 0,-1 z M 4,14 c -0.333333,0 -0.666667,0 -1,0 0,0.666667 0,1.333333 0,2 0.333333,0 0.666667,0 1,0 0,-0.666667 0,-1.333333 0,-2 z m 9,4 c -0.666667,0 -1.333333,0 -2,0 0,0.333333 0,0.666667 0,1 0.666667,0 1.333333,0 2,0 0,-0.333333 0,-0.666667 0,-1 z m 4,-4 c -0.333333,0 -0.666667,0 -1,0 0,0.666667 0,1.333333 0,2 -0.666667,0 -1.333333,0 -2,0 0,0.333333 0,0.666667 0,1 0.666667,0 1.333333,0 2,0 0,0.666667 0,1.333333 0,2 0.333333,0 0.666667,0 1,0 0,-0.666667 0,-1.333333 0,-2 0.666667,0 1.333333,0 2,0 0,-0.333333 0,-0.666667 0,-1 -0.666667,0 -1.333333,0 -2,0 0,-0.666667 0,-1.333333 0,-2 z"
     fill="currentColor"
     style="fill:#eff0f1;fill-opacity:1" />
</svg>
