<?xml version="1.0" encoding="UTF-8" standalone="no"?>
<svg
   id="svg6"
   version="1.1"
   viewBox="0 0 22 22"
   xmlns="http://www.w3.org/2000/svg"
   xmlns:svg="http://www.w3.org/2000/svg">
  <defs
     id="defs3051">
    <style
       id="current-color-scheme"
       type="text/css">.ColorScheme-Text {
        color:#232629;
      }</style>
  </defs>
  <path
     id="path4"
     class="ColorScheme-Text"
     d="m 18,13 c 0,0.666667 0,1.333333 0,2 0.333333,0 0.666667,0 1,0 0,-0.666667 0,-1.333333 0,-2 -0.333333,0 -0.666667,0 -1,0 z M 3,3 c 0,5.3333333 0,10.666667 0,16 3.333333,0 6.666667,0 10,0 C 13,13.666667 13,8.3333333 13,3 9.666667,3 6.333333,3 3,3 Z m 1,1 c 2.666667,0 5.333333,0 8,0 0,4.6666667 0,9.333333 0,14 C 9.333333,18 6.666667,18 4,18 4,13.333333 4,8.6666667 4,4 Z m 14,13 c 0,0.333333 0,0.666667 0,1 -0.333333,0 -0.666667,0 -1,0 0,0.333333 0,0.666667 0,1 0.666667,0 1.333333,0 2,0 0,-0.666667 0,-1.333333 0,-2 -0.333333,0 -0.666667,0 -1,0 z m -4,1 c 0,0.333333 0,0.666667 0,1 0.666667,0 1.333333,0 2,0 0,-0.333333 0,-0.666667 0,-1 -0.666667,0 -1.333333,0 -2,0 z m 4,-9 c 0,0.6666667 0,1.333333 0,2 0.333333,0 0.666667,0 1,0 0,-0.666667 0,-1.3333333 0,-2 -0.333333,0 -0.666667,0 -1,0 z M 14,5 c 0,0.3333333 0,0.6666667 0,1 0.666667,0 1.333333,0 2,0 0,0.6666667 0,1.3333333 0,2 0.333333,0 0.666667,0 1,0 0,-0.6666667 0,-1.3333333 0,-2 0.666667,0 1.333333,0 2,0 0,-0.3333333 0,-0.6666667 0,-1 -0.666667,0 -1.333333,0 -2,0 0,-0.6666667 0,-1.3333333 0,-2 -0.333333,0 -0.666667,0 -1,0 0,0.6666667 0,1.3333333 0,2 -0.666667,0 -1.333333,0 -2,0 z"
     fill="currentColor"
     style="fill:#eff0f1;fill-opacity:1" />
</svg>
