<?xml version="1.0" encoding="UTF-8" standalone="no"?>
<svg
   viewBox="0 0 22 22"
   version="1.1"
   id="svg1"
   xmlns="http://www.w3.org/2000/svg"
   xmlns:svg="http://www.w3.org/2000/svg">
  <defs
     id="defs3051">
    <style
       type="text/css"
       id="current-color-scheme">
      .ColorScheme-Text {
        color:#232629;
      }
      </style>
  </defs>
  <path
     id="path2"
     style="fill:#eff0f1;stroke-width:0;stroke-linejoin:bevel;paint-order:stroke fill markers;fill-opacity:1"
     d="M 11 3 A 2 2 0 0 0 9 5 A 2 2 0 0 0 11 7 A 2 2 0 0 0 13 5 A 2 2 0 0 0 11 3 z M 11 9 A 2 2 0 0 0 9 11 A 2 2 0 0 0 11 13 A 2 2 0 0 0 13 11 A 2 2 0 0 0 11 9 z M 11 15 A 2 2 0 0 0 9 17 A 2 2 0 0 0 11 19 A 2 2 0 0 0 13 17 A 2 2 0 0 0 11 15 z " />
</svg>
