<?xml version="1.0" encoding="UTF-8" standalone="no"?>
<svg
   id="svg6"
   version="1.1"
   viewBox="0 0 22 22"
   xmlns="http://www.w3.org/2000/svg"
   xmlns:svg="http://www.w3.org/2000/svg">
  <defs
     id="defs3051">
    <style
       id="current-color-scheme"
       type="text/css">.ColorScheme-Text {
        color:#232629;
      }</style>
  </defs>
  <path
     id="path4"
     class="ColorScheme-Text"
     d="M 9,4 C 8.333333,4 7.666667,4 7,4 7,3.666667 7,3.333333 7,3 7.666667,3 8.333333,3 9,3 9,3.333333 9,3.666667 9,4 Z M 19,19 C 13.666667,19 8.333333,19 3,19 3,15.666667 3,12.333333 3,9 c 5.333333,0 10.666667,0 16,0 0,3.333333 0,6.666667 0,10 z m -1,-1 c 0,-2.666667 0,-5.333333 0,-8 -4.666667,0 -9.333333,0 -14,0 0,2.666667 0,5.333333 0,8 4.666667,0 9.333333,0 14,0 z M 5,4 C 4.666667,4 4.333333,4 4,4 4,4.333333 4,4.666667 4,5 3.666667,5 3.333333,5 3,5 3,4.333333 3,3.666667 3,3 3.666667,3 4.333333,3 5,3 5,3.333333 5,3.666667 5,4 Z M 4,8 C 3.666667,8 3.333333,8 3,8 3,7.333333 3,6.666667 3,6 3.333333,6 3.666667,6 4,6 4,6.666667 4,7.333333 4,8 Z m 9,-4 c -0.666667,0 -1.333333,0 -2,0 0,-0.333333 0,-0.666667 0,-1 0.666667,0 1.333333,0 2,0 0,0.333333 0,0.666667 0,1 z m 4,4 c -0.333333,0 -0.666667,0 -1,0 0,-0.666667 0,-1.333333 0,-2 -0.666667,0 -1.333333,0 -2,0 0,-0.333333 0,-0.666667 0,-1 0.666667,0 1.333333,0 2,0 0,-0.666667 0,-1.333333 0,-2 0.333333,0 0.666667,0 1,0 0,0.666667 0,1.333333 0,2 0.666667,0 1.333333,0 2,0 0,0.333333 0,0.666667 0,1 -0.666667,0 -1.333333,0 -2,0 0,0.666667 0,1.333333 0,2 z"
     fill="currentColor"
     style="fill:#eff0f1;fill-opacity:1" />
</svg>
