<?xml version="1.0" encoding="UTF-8" standalone="no"?>
<svg
   viewBox="0 0 22 22"
   version="1.1"
   id="svg1"
   xmlns="http://www.w3.org/2000/svg"
   xmlns:svg="http://www.w3.org/2000/svg">
  <defs
     id="defs3051">
    <style
       type="text/css"
       id="current-color-scheme">
      .ColorScheme-Text {
        color:#232629
      }
      </style>
  </defs>
  <path
     id="path1"
     style="fill:#eff0f1;fill-opacity:1"
     class="ColorScheme-Text"
     d="M 0 0 L 0 1 L 0 16 L 1 16 L 1 15 L 1 9 L 1 7 L 2.5996094 7 L 4 7 L 6 5 L 15 5 L 15 9 L 16 9 L 16 2 L 9 2 L 7 0 L 1 0 L 0 0 z M 1 1 L 4 1 L 6.5996094 1 L 7.5996094 2 L 3.5996094 6 L 1 6 L 1 1 z " />
  <path
     id="path824"
     style="fill:#eff0f1;fill-opacity:1;stroke:none;stroke-width:1.25px;stroke-linecap:butt;stroke-linejoin:miter;stroke-opacity:1"
     d="m 13.25,9.2729575 c -3.787592,0 -6.16902,2.3433505 -7.145996,5.0000015 H 2 v 2.5 h 3.601074 c -0.106075,2.657646 1.192685,5 3.898926,5 2.731755,1e-6 4.748387,-0.954602 6.464844,-2.65625 0.699252,2.61281 2.10723,4.211913 6.035156,1.40625 -2.901659,0 -3.743165,-1.68513 -4.121094,-3.75 H 22 v -2.5 H 19.407226 C 20.245308,12.777918 21.085781,11.101398 22,9.2729575 H 19.5 C 19.06993,10.1331 18.337606,11.658662 17.41748,13.286631 17.06159,11.1036 16.27404,9.2729575 13.25,9.2729575 Z m 0,1.9018575 c 1.102806,0 1.555904,1.352324 1.870117,3.098144 H 9.116699 C 9.832006,12.586516 11.235567,11.174815 13.25,11.174815 Z m -4.677735,5.598144 h 6.586915 c -1.357675,1.759803 -2.882971,3.100586 -4.40918,3.100586 -1.511645,0 -2.209151,-1.412928 -2.177735,-3.100586 z" />
</svg>
