<?xml version="1.0" encoding="UTF-8" standalone="no"?>
<svg
   viewBox="0 0 22 22"
   version="1.1"
   id="svg359"
   width="22"
   height="22"
   xmlns="http://www.w3.org/2000/svg"
   xmlns:svg="http://www.w3.org/2000/svg">
  <defs
     id="defs363">
    <style
       type="text/css"
       id="current-color-scheme">
      .ColorScheme-Text {
        color:#eff0f1;
      }
      </style>
  </defs>
  <!--! Font Awesome Free 6.4.0 by @fontawesome - https://fontawesome.com License - https://fontawesome.com/license/free (Icons: CC BY 4.0, Fonts: SIL OFL 1.1, Code: MIT License) Copyright 2023 Fonticons, Inc. -->
  <path
     d="m 8.3569616,15.751633 c 0,0.06439 -0.074044,0.115896 -0.1674043,0.115896 -0.1062375,0.0097 -0.1802816,-0.04185 -0.1802816,-0.115896 0,-0.06439 0.074044,-0.115895 0.1674043,-0.115895 0.09658,-0.0097 0.1802816,0.04185 0.1802816,0.115895 z M 7.3557547,15.606764 c -0.022536,0.06439 0.04185,0.138431 0.1384307,0.157747 0.083702,0.03219 0.1802817,0 0.1995976,-0.06439 0.019314,-0.06439 -0.04185,-0.13843 -0.1384307,-0.167404 -0.083703,-0.02254 -0.1770627,0.0097 -0.1995976,0.07404 z m 1.4229377,-0.05473 c -0.09336,0.02254 -0.1577467,0.0837 -0.1480883,0.157747 0.00966,0.06439 0.093359,0.106237 0.1899392,0.0837 0.09336,-0.02254 0.1577467,-0.0837 0.1480884,-0.148088 -0.00966,-0.06116 -0.096579,-0.103018 -0.1899393,-0.09336 z M 10.897003,3.2156177 c -4.465192,0 -7.8808859,3.3899391 -7.8808859,7.8551303 0,3.570221 2.2470827,6.625352 5.4567403,7.700604 0.4120725,0.07404 0.5569411,-0.180282 0.5569411,-0.389537 0,-0.199598 -0.00966,-1.300605 -0.00966,-1.976661 0,0 -2.2535206,0.482898 -2.7267599,-0.959356 0,0 -0.3670019,-0.936821 -0.8949702,-1.178269 0,0 -0.7372228,-0.505432 0.051511,-0.495774 0,0 0.80161,0.06439 1.2426561,0.830582 0.7050302,1.242656 1.8865187,0.885313 2.3468815,0.672838 0.074044,-0.515091 0.2832993,-0.872435 0.5150902,-1.084909 -1.799598,-0.199598 -3.6152923,-0.460363 -3.6152923,-3.557344 0,-0.885313 0.2446682,-1.3295781 0.7597584,-1.8961775 C 6.6153108,8.5274885 6.3416691,7.6647124 6.7827151,6.5508286 7.4555521,6.3415727 9.0040432,7.4200442 9.0040432,7.4200442 9.6479058,7.2397626 10.340059,7.1464017 11.025773,7.1464017 c 0.685714,0 1.377867,0.093361 2.021731,0.2736425 0,0 1.548491,-1.0816905 2.221328,-0.8692156 0.441046,1.117102 0.167404,1.9766599 0.0837,2.1859159 0.515091,0.5698184 0.830584,1.0140842 0.830584,1.8961775 0,3.106639 -1.896177,3.354526 -3.695774,3.557344 0.296176,0.254326 0.547283,0.737222 0.547283,1.493762 0,1.084909 -0.0097,2.427364 -0.0097,2.691348 0,0.209255 0.148089,0.463581 0.556942,0.389537 3.21932,-1.068813 5.402016,-4.123944 5.402016,-7.694165 -10e-7,-4.4651912 -3.621731,-7.8551303 -8.086921,-7.8551303 z M 6.1452919,14.319038 c -0.04185,0.03219 -0.03219,0.106238 0.022536,0.167404 0.051511,0.05151 0.1255534,0.07404 0.1674043,0.0322 0.04185,-0.0322 0.03219,-0.106237 -0.022536,-0.167404 -0.051511,-0.05151 -0.1255534,-0.07404 -0.1674043,-0.03219 z M 5.797606,14.058274 c -0.022536,0.04185 0.00966,0.09336 0.074044,0.125553 0.051511,0.03219 0.1158951,0.02254 0.1384308,-0.02254 0.022536,-0.04185 -0.00966,-0.09336 -0.074044,-0.125553 -0.064387,-0.01931 -0.1158958,-0.0097 -0.1384308,0.02254 z m 1.0430577,1.146076 c -0.051511,0.04185 -0.03219,0.138431 0.04185,0.199597 0.074044,0.07404 0.1674043,0.0837 0.2092552,0.03219 0.04185,-0.04185 0.022536,-0.138431 -0.04185,-0.199598 -0.070825,-0.07404 -0.1674044,-0.0837 -0.209256,-0.0322 z M 6.4736619,14.73111 c -0.051511,0.0322 -0.051511,0.115896 0,0.18994 0.051511,0.07404 0.1384307,0.106237 0.1802816,0.07404 0.051511,-0.04185 0.051511,-0.125554 0,-0.199598 -0.045073,-0.07404 -0.1287724,-0.106237 -0.1802816,-0.06439 z"
     id="path357"
     style="fill:currentColor;fill-opacity:1;stroke:currentColor;stroke-width:0.0321931"
     class="ColorScheme-Text" />
</svg>
