<svg viewBox="0 0 33.867 33.867" xmlns="http://www.w3.org/2000/svg"><path d="M17.038 3.6a13.375 13.375 0 0 0-6.083 1.387 13.375 13.375 0 0 0-6.828 15.97c.09-.045.448-.223 1.046-.518 1.31-.648 3.315-1.493 3.354-1.49.382.21.618.775.51 1.23l-3.175 1.656-1.19.567a13.375 13.375 0 0 0 .228.506 13.375 13.375 0 0 0 17.92 6.055 13.375 13.375 0 0 0 6.055-17.92A13.375 13.375 0 0 0 17.038 3.6zm11.834 7.925c.309.289.696 1.082.615 1.41l-1.166.577c-1.31.649-3.316 1.493-3.354 1.49-.382-.21-.619-.775-.51-1.23l3.175-1.656z" fill="#00e6ff"/><path d="m24.96 15.122 4.54-2.067-.835-1.447-4.341 2.274z" fill="#fff" fill-rule="evenodd"/><path d="M17.223 2.511a14.489 14.489 0 0 0-.048.003l.132.003a14.489 14.489 0 0 0-.084-.005zm-1.377.053a14.489 14.489 0 0 0-.111.008l.11-.008zm2.803.035.056.007a14.489 14.489 0 0 0-.056-.007zm-4.287.165a14.489 14.489 0 0 0-.033.006c.01-.003.022-.004.033-.006zm2.699.95c-1.65 0-3.229.304-4.687.856-.262.362-.317.653.223.617 1.356-.09 1.378-.384 1.853.249.474.632.248 1.943-.61 1.581-.86-.362-2.283-.972-2.645-.249-.361.724.158.905.86.475.7-.43 1.265-.226 1.4.475.136.7.09 2.058-.678 1.809-.769-.25-1.017.135-.565.52.452.383-.046.61-.746.315-.701-.293-.679.61-1.628.565-.95-.045-1.017.995-1.31 1.379-.295.384-.34 1.627-.408 1.92s-.361.52-.52-.406c-.157-.927.046-1.334-.79-1.401-.837-.068-1.673 1.689-1.244 2.065.43.376 1.018-.348.972.195-.045.543-.338 3.006.543 3.12.881.112 1.47.021 2.192.496.724.475 2.08.52 3.051 2.057.972 1.537 2.103 1.717 3.187 1.966 1.086.25.973.86.407 1.674-.565.813-.248 1.65-2.147 2.282-1.898.632-2.034 2.215-1.966 2.508.014.06-.011.203-.06.391a13.246 13.246 0 0 0 14.876-2.963c-.316-.98-.633-2.098-.644-2.692-.023-1.198.316-1.288-.113-2.08-.43-.79-1.312-.023-3.03-.248-1.717-.227-1.446-1.312-2.643-2.803-1.198-1.492 1.108-2.712 1.74-4.25.536-1.3 2.581-1.08 3.571-.913l1.82-.942c.089-.073.174-.144.283-.225 1.289-.95-.633-.971-1.152-1.333-.52-.361-.453-.045-.837.43-.384.474-.972-.362-1.491-.633-.52-.271-.633.632-1.244 1.672-.61 1.04-.971.565-1.514 0-.542-.565-.204-1.062.361-1.288.565-.226.611-.317.204-.768-.407-.452-.588-.272-.18-.633.406-.362.655-.317 1.536-.86.882-.542-.135-1.039-.723-.643-.587.396-1.334-.803-1.492-1.812-.158-1.009.316-.686.859-1.048.13-.086.054-.29-.132-.55a13.206 13.206 0 0 0-4.74-.877zm7.071.64.041.024a14.489 14.489 0 0 0-.04-.023zm-7.69.024c.823.032 1.765.332 1.488 1.214-.362 1.153-.397.812-.814 1.063-.45.27-.679.451-1.063.994-.384.543-1.265.43-.78-.158.485-.588.307-2.17.035-2.6 0 0-.362-.339.452-.474.102-.017.217-.03.341-.036.109-.006.224-.007.341-.003zm-7.045.325a14.489 14.489 0 0 0-.069.045l.07-.045zm15.939.406c.03.02.059.042.088.063a14.489 14.489 0 0 0-.088-.063zm-17.11.409a14.489 14.489 0 0 0-.097.076l.097-.076zm18.232.458.122.106a14.489 14.489 0 0 0-.122-.106zm-19.312.462a14.489 14.489 0 0 0-.125.119l.125-.119zm20.353.52.123.129a14.489 14.489 0 0 0-.123-.13zM6.141 7.48a14.489 14.489 0 0 0-.102.117l.102-.117zm22.323.588c.026.032.052.063.077.096a14.489 14.489 0 0 0-.077-.096zm-23.233.568a14.489 14.489 0 0 0-.06.085l.06-.085zm24.08.63.044.07a14.489 14.489 0 0 0-.044-.07zm-24.872.618a14.489 14.489 0 0 0-.024.041l.024-.04zm.801 1.059a13.202 13.202 0 0 0-1.466 6.055c0 1.337.2 2.626.568 3.843l2.258-1.03c.04-.398.26-.505.345-.59.16-.158-1.061-.814-1.017-2.396.045-1.582-1.289-1.22-1.04-2.893.214-1.435.49-2.433.352-2.99zm26.048 3.318.008.048a14.489 14.489 0 0 0-.008-.048zM2.666 15.355a14.489 14.489 0 0 0-.007.054l.007-.054zm28.82.32.008.11a14.489 14.489 0 0 0-.008-.11zM2.577 16.751a14.489 14.489 0 0 0-.003.132l.003-.132zm28.969.361c0 .046-.002.091-.003.137a14.489 14.489 0 0 0 .003-.137zm-28.92 1.1a14.489 14.489 0 0 0 .007.11l-.008-.11zm28.834.377-.006.051a14.489 14.489 0 0 0 .006-.051zM2.826 19.698a14.489 14.489 0 0 0 .006.031zm4.166 1.713L4.99 22.483l-.198-.388a13.372 13.372 0 0 0 5.589 6.382l-.068-.304s-1.22-1.628-1.334-2.735c-.113-1.108-.927-1.718-1.876-3.775-.041-.089-.075-.17-.11-.252zm22.71 2.665-.017.03a14.489 14.489 0 0 0 .017-.03zM4.77 24.67a14.489 14.489 0 0 0 .033.051l-.033-.051zm24.185.6-.073.102a14.489 14.489 0 0 0 .073-.102zm-23.378.56a14.489 14.489 0 0 0 .083.106l-.083-.106zm22.51.564-.11.129a14.489 14.489 0 0 0 .11-.129zm-21.585.523a14.489 14.489 0 0 0 .114.12l-.114-.12zm20.599.524-.125.119a14.489 14.489 0 0 0 .125-.119zm-19.555.481a14.489 14.489 0 0 0 .112.097 14.955 14.955 0 0 1-.112-.097zm18.451.478c-.035.028-.07.057-.107.084a14.489 14.489 0 0 0 .107-.084zm-17.305.424a14.489 14.489 0 0 0 .098.07l-.098-.07zm16.098.428c-.022.014-.044.03-.066.043a14.489 14.489 0 0 0 .066-.043zm-14.837.373a14.489 14.489 0 0 0 .03.017l-.03-.017zm9.844 1.603-.047.008a14.489 14.489 0 0 0 .047-.008zm-4.377.166a14.489 14.489 0 0 0 .05.006l-.05-.006zm2.967.032-.113.008a14.489 14.489 0 0 0 .113-.008zm-1.577.057a14.489 14.489 0 0 0 .137.003c-.046 0-.091-.003-.137-.003z" fill="#00bcff"/><path d="M10.381 3.556a14.331 14.331 0 0 1 1.897-.788c.36-.12.682-.22.715-.222.033-.003.257-.06.499-.127.24-.067.575-.15.743-.184.192-.04.291-.095.27-.15-.006-.011.011-.024.042-.037l-.023-.007.133-.028.064-.015a.02.02 0 0 0 .006 0l.114-.023c.294-.065.337-.057.241.042a.826.826 0 0 0-.043.048l.205.046c.614-.054 2.508-.082 2.685-.038.112.029.342.05.51.048.775-.008 3.636.63 3.865.862.046.046.092.03.142-.047.06-.093-.144-.181-1.024-.445-.605-.182-1.071-.344-1.036-.361.109-.054 2.693.754 3.238 1.012 1.977.935 3.73 2.382 4.966 4.099.218.303.384.763.466.87.083.107.168.29.19.404.038.198.025.193-.22-.077-.143-.157-.221-.491-.272-.59-.05-.097-.133-.18-.183-.183-.057-.004-.005.168.142.464.128.26.332.803.299.82-.434-1.036-.849-1.349-.837-1.489.005-.055-.007-.065-.025-.022-.044.103-.724-.652-.981-1.088-.109-.184-.291-.4-.406-.48a.992.992 0 0 1-.273-.276c-.036-.073-.094-.13-.13-.127-.036.003-.285-.167-.554-.376-.27-.209-.651-.48-.849-.603-.197-.122-.355-.268-.35-.324.005-.056-.006-.068-.024-.025-.018.043-.096.047-.172.01-.076-.037-.165-.027-.197.022-.043.065.003.12.16.203.581.298 1.67 1.222 1.712 1.45.007.042.026.042.042 0 .027-.074.29.131.634.496.603.64.778.852.786.953.005.063.028.085.052.048.024-.037.135.065.246.227.111.161.298.414.415.561.117.148.307.425.422.616.185.306.191.338.051.27-.315-.518-.405-.488-.452-.582-.116-.233-.932-1.164-1.162-1.358l-.185-.157.036.19c.034.183.03.186-.11.096-.208-.134-.213-.025-.02.391l.168.365-.258-.204c-.141-.113-.285-.254-.318-.315-.034-.06-.105-.113-.159-.117-.053-.004-.1-.057-.105-.118-.005-.062-.048-.093-.097-.069-.048.024-.313-.115-.589-.31-.83-.587-1.24-1.109-2.37-1.656-1.107-.536-1.47-.684-2.37-.968-.527-.166-.738-.125-.304.06.136.057.292.147.346.2.054.053.127.082.161.065.035-.017.079.001.098.04.02.04-.292-.002-.692-.093-.4-.09-.836-.188-.97-.216a7.768 7.768 0 0 0-.437-.373 12.09 12.09 0 0 0-.89-.11c-.565-.047-1.124-.074-1.244-.059-.12.016-.24.012-.268-.007-.058-.04-1.39.102-2.127.227-.843.143-1.557.35-2.453.711-.475.191-.894.34-.931.332-.038-.009-.105.031-.15.09a.66.66 0 0 1-.258.167c-.3.106-1.517.88-2.204 1.404-.481.366-.579.421-.376.213.775-.796 3.21-2.193 4.595-2.636.793-.254 1.87-.505 2.641-.616.876-.126.85-.12.793-.2-.078-.107-.464-.104-1.223.01-.416.061-.68.062-.704 0-.025-.063-.043-.062-.05.002-.006.057-.194.139-.431.188a4.64 4.64 0 0 0-.667.191c-.135.057-.289.1-.34.098-.154-.008-1.55.546-1.937.768-.195.113-.481.267-.635.342-.975.48-2.685 1.953-3.778 3.252-.253.302-.228.255.111-.207.528-.718.4-.71-.32.021-.793.807-1.883 2.492-2.238 3.464-.06.166-.192.502-.292.745-.1.244-.23.665-.29.937-.06.272-.131.584-.16.695-.029.11-.068.331-.087.492-.018.16-.076.308-.127.329-.051.02-.052.04 0 .043.051.003.066.144.034.314s-.06.501-.064.736c-.003.234-.033.535-.067.668s-.038.216-.009.184c.029-.032.06.094.07.281.014.24-.013.338-.09.334-.08-.004-.105.05-.093.202.03.35-.036.191-.083-.2-.024-.205-.01-.317.033-.252.085.13.15.08.166-.126.008-.107-.012-.126-.102-.09-.081.03-.111-.125-.105-.548.013-.937.105-1.817.204-1.946.05-.065.053-.12.007-.122-.046-.002-.04-.125.012-.272.052-.147.09-.325.082-.395-.045-.41.751-2.496 1.017-2.665.07-.045.07-.07 0-.074-.065-.004-.075-.05-.025-.121.105-.15.22-.347.544-.93.387-.698.43-.809.319-.815-.12-.006-.538.637-.888 1.367-.132.273-.282.574-.335.668a2.482 2.482 0 0 0-.168.404c-.04.13-.08.25-.092.268a.797.797 0 0 0-.048.11 14.68 14.68 0 0 1-.135.333c-.298.724-.717 2.53-.682 2.947.007.088-.01.189-.038.225-.027.035-.053.425-.058.866-.01 1.061-.005 1.178.072 1.578.208 1.09.226 1.883.03 1.36-.129-.343-.179-1.007-.052-.69.023.058.041.055.048-.01.006-.057-.025-.106-.07-.108-.044-.002-.1-.218-.123-.479a75.724 75.724 0 0 0-.055-.586c-.02-.2 0-1.223.04-2.001.04-.803.362-2.527.506-2.713.047-.061.072-.144.056-.184-.043-.108.482-1.448.85-2.166.078-.154.355-.624.614-1.043.625-1.014.697-1.11 1.482-1.976.689-.76 1.633-1.635 2.18-2.02a19.17 19.17 0 0 1 2.492-1.51zM15.3 1.917a.786.786 0 0 1 .239-.044c.112-.008.134.006.065.043a.508.508 0 0 1-.242.044c-.084-.007-.098-.025-.062-.043zm.808-.073c.07-.041.654-.08.671-.045.009.018-.008.043-.038.056-.073.032-.688.02-.633-.011zm.763-.033a.486.486 0 0 1 .145-.022c.184-.016.933 0 1.356.029.424.028 1.796.25 1.818.293.024.05-.131.033-.87-.094a13.74 13.74 0 0 0-1.544-.14c-.618-.02-.933-.043-.905-.066zm.47.505c-.028.013.02.028.15.068.113.035.393.072.621.082.228.01.428.046.444.08.017.032.064.043.106.022.136-.067.907.057.897.144-.006.047.012.065.04.04.11-.098.465-.032.473.088.006.086.036.095.098.03.06-.062.38-.002.973.182.486.15.944.315 1.018.365.154.104.364.033.298-.1-.057-.116-2.189-.735-2.93-.85-.82-.13-1.833-.217-2.055-.18-.071.013-.116.02-.133.029zM7.695 7.159a.039.039 0 0 1 .015-.006c.005.001.003.008-.01.024a1.94 1.94 0 0 1-.15.165 5.79 5.79 0 0 0-.352.395c-.073.093-.155.153-.184.133-.028-.021.095-.18.275-.354a3.55 3.55 0 0 1 .406-.357zM4.03 9.044c.01-.003.017 0 .02.014.002.017-.007.04-.022.062a.229.229 0 0 1-.065.06c-.058.035-.06.01-.009-.064.03-.041.057-.067.075-.072zm2.82-1.04c.004 0-.001.015-.02.048a1.616 1.616 0 0 1-.12.177c-.047.062-.098.12-.14.163-.087.083-.04-.001.104-.188.1-.129.163-.201.175-.2zm-1.088.765a.024.024 0 0 1 .014-.006c.008 0 .01.008.004.029a.278.278 0 0 1-.047.086.29.29 0 0 1-.072.068c-.05.03-.037-.014.028-.099a.403.403 0 0 1 .072-.078zm15.344-6.083c-.02.01.052.049.159.087.106.039.21.062.23.053.019-.01-.053-.05-.16-.088-.106-.038-.21-.062-.229-.052zM1.74 16.306a.05.05 0 0 1 .016-.006c.019-.002.037.012.048.04a.162.162 0 0 1-.015.143c-.026.034-.062.025-.08-.02-.018-.044-.011-.109.015-.143a.069.069 0 0 1 .016-.014zm.05.555c.008-.005.013-.002.012.008-.003.02-.003.145 0 .277l.004.24-.048-.215c-.027-.118-.027-.242 0-.277a.134.134 0 0 1 .033-.033zm.012.963c.007-.004.017-.002.03.007.013.009.024.091.025.183 0 .076 0 .114-.006.115-.006.001-.016-.035-.036-.108-.03-.114-.035-.184-.013-.197zM2.85 17.7c.003-.003.005-.005.01-.004.003 0 .008.002.015.007.01.007.034.184.053.393l.035.38-.068-.374c-.048-.267-.062-.378-.045-.401zm-.989.544c.003-.003.005-.005.009-.004.004 0 .01.002.016.006.01.007.034.184.053.394l.035.38-.068-.375c-.048-.267-.062-.378-.045-.4zm.816-.195c.03-.016.048.061.057.243l.01.22-.048-.214c-.027-.118-.041-.224-.032-.236a.051.051 0 0 1 .013-.013zm-.699 1.031c.03-.016.047.061.056.243l.011.22-.048-.214c-.027-.118-.042-.224-.032-.236a.05.05 0 0 1 .013-.012zm.847-.36c.03-.014.046.071.062.295l.02.275-.055-.269c-.03-.147-.048-.277-.04-.288a.045.045 0 0 1 .013-.012zm-.714.928c.03-.017.048.06.057.242l.01.221-.048-.215c-.027-.118-.041-.224-.032-.235a.05.05 0 0 1 .013-.013zm.79-.28c.013-.008.056.058.118.203.048.114.074.212.065.237-.003.004-.003.006-.006.006-.023.004-.078-.09-.122-.209-.054-.148-.07-.23-.055-.237zm-.674.743c.007-.004.016-.002.03.007.012.01.023.092.024.184 0 .076 0 .114-.006.115-.006 0-.016-.036-.035-.108-.031-.115-.035-.184-.014-.197zm.078.395c.026-.01.066.035.096.112.037.092.044.148.028.16-.015.012-.053-.02-.105-.099-.04-.06-.052-.134-.029-.165.003-.004.007-.006.01-.008zm.208.595c.015-.007.046.017.084.075.032.05.041.094.024.108l-.009.004c-.029.005-.068-.03-.087-.077-.026-.065-.027-.103-.012-.11zm.18.505c.015-.007.046.017.085.076.032.05.041.094.024.108l-.01.004c-.028.005-.067-.03-.086-.078-.026-.064-.027-.102-.012-.11zm.943-.114c.018 0 .055.051.09.124.04.084.063.167.05.184-.013.017-.057-.038-.097-.122-.04-.083-.062-.166-.05-.183 0-.002.005-.003.007-.003zm-.381 1.36c.015-.008.045.016.084.075.032.05.042.094.024.108l-.009.004c-.029.005-.067-.03-.086-.078-.026-.065-.028-.103-.013-.11zm.173.302a.025.025 0 0 1 .009-.004c.028-.005.079.056.113.135.026.06.035.096.03.11-.009.02-.055-.023-.123-.128-.035-.052-.046-.1-.029-.113zM23.486 30.31c-.634.317-1.263.578-1.898.788-.36.12-.681.22-.714.223-.033.003-.258.06-.499.127s-.576.15-.743.184c-.192.039-.292.094-.27.15.005.01-.012.024-.042.037l.022.007-.133.027-.064.016c-.003 0-.004 0-.006-.002l-.114.024c-.293.064-.336.057-.24-.042a.826.826 0 0 0 .042-.049l-.204-.045c-.614.054-2.508.082-2.685.037a2.482 2.482 0 0 0-.51-.047c-.775.008-3.637-.63-3.866-.862-.045-.046-.09-.03-.142.047-.06.093.144.181 1.025.445.605.181 1.07.344 1.036.361-.109.054-2.694-.754-3.238-1.012-1.977-.935-3.73-2.383-4.966-4.1a42.028 42.028 0 0 0-.547-.744 1.15 1.15 0 0 1-.19-.404c-.037-.198-.025-.193.22.077.143.157.302.366.352.464.05.098.133.18.183.184.058.004.005-.168-.142-.465-.128-.259-.205-.484-.172-.5.075-.037.723 1.03.71 1.17-.005.055.007.065.026.021.044-.102.724.652.981 1.089.108.183.29.4.405.48.115.08.238.204.274.276.035.072.094.129.13.127.035-.003.285.166.554.375.269.21.65.48.848.603.198.122.356.268.35.325-.004.056.007.067.025.025.018-.043.095-.048.172-.01.076.036.165.027.197-.022.043-.065-.003-.12-.161-.203-.58-.298-1.67-1.223-1.711-1.45-.007-.043-.026-.042-.042 0-.027.074-.29-.132-.634-.496-.603-.64-.779-.852-.786-.953-.005-.063-.028-.085-.052-.048-.025.036-.135-.066-.246-.227a12.287 12.287 0 0 0-.415-.562 7.1 7.1 0 0 1-.423-.615c-.184-.306-.19-.338-.05-.27a.631.631 0 0 1 .243.247c.116.233 1.14 1.498 1.37 1.692l.186.158-.036-.19c-.034-.183-.03-.187.11-.096.207.133.213.025.02-.392l-.168-.365.257.205c.142.112.285.254.319.315.034.06.105.113.158.116.054.004.101.057.106.119.005.062.048.092.096.068.049-.024.314.116.59.31.83.587 1.24 1.11 2.37 1.657 1.107.536 1.47.684 2.37.968.527.165.738.124.304-.06a1.416 1.416 0 0 1-.346-.2c-.055-.053-.127-.083-.162-.066-.034.017-.078 0-.097-.04-.02-.04.292.003.691.093.4.091.837.188.971.217.15.137.295.26.437.373.29.047.585.083.89.11.564.047 1.124.074 1.243.058.12-.015.241-.012.269.007.058.04 1.389-.101 2.126-.227.844-.143 1.558-.35 2.454-.71.474-.192.894-.341.931-.332.038.009.104-.032.149-.09a.66.66 0 0 1 .259-.167c.3-.106 1.516-.881 2.204-1.404.48-.366.579-.422.376-.213-.775.796-3.21 2.193-4.595 2.636a18.31 18.31 0 0 1-2.642.616c-.875.126-.85.12-.792.2.077.107.464.104 1.222-.01.417-.062.68-.062.704 0 .026.063.044.062.05-.002.007-.057.194-.14.432-.189a4.64 4.64 0 0 0 .666-.19c.136-.057.29-.1.342-.098.153.008 1.548-.546 1.936-.769.195-.112.48-.266.634-.342.976-.48 2.686-1.952 3.779-3.252.253-.301.228-.254-.112.208-.527.718-.4.71.32-.021.794-.807 1.883-2.492 2.238-3.464.061-.166.193-.502.293-.745.1-.244.23-.665.29-.937.059-.272.13-.585.16-.695.029-.11.068-.332.086-.492.019-.16.076-.308.127-.33.052-.02.052-.04 0-.042-.05-.003-.066-.144-.034-.314s.061-.501.065-.736a3.66 3.66 0 0 1 .067-.668c.033-.133.037-.216.009-.184-.03.032-.061-.094-.071-.281-.013-.24.014-.338.091-.334.08.004.105-.05.092-.202-.03-.35.037-.191.083.2.025.205.01.317-.033.252-.084-.13-.15-.08-.166.125-.008.108.012.127.103.092.08-.032.11.124.105.547-.013.936-.106 1.817-.205 1.945-.05.065-.053.12-.007.123.047.002.041.125-.011.272-.053.147-.09.325-.082.395.045.41-.751 2.496-1.018 2.665-.07.044-.07.07 0 .074.066.004.076.05.026.12-.106.151-.221.348-.545.932-.386.696-.43.808-.318.814.12.006.537-.637.888-1.367.131-.273.282-.574.335-.668a2.49 2.49 0 0 0 .167-.405c.04-.129.081-.25.093-.268a.797.797 0 0 0 .048-.108c.015-.042.076-.192.134-.334.299-.724.717-2.53.683-2.947-.007-.088.01-.189.037-.225.028-.036.054-.425.058-.866.011-1.062.005-1.178-.071-1.579-.209-1.088-.226-1.883-.03-1.359.128.343.179 1.007.052.69-.023-.058-.042-.055-.048.01-.006.057.025.106.07.108.044.002.1.218.123.479l.054.586c.021.2 0 1.222-.039 2.001-.04.803-.363 2.526-.507 2.713-.047.061-.072.144-.056.184.043.108-.482 1.448-.85 2.166-.078.154-.354.623-.613 1.043-.626 1.014-.697 1.109-1.483 1.975-.688.76-1.633 1.635-2.18 2.022a19.17 19.17 0 0 1-2.491 1.508zm-4.92 1.64a.786.786 0 0 1-.238.044c-.112.008-.134-.006-.066-.043a.508.508 0 0 1 .242-.044c.085.007.099.025.063.042zm-.807.073c-.071.04-.654.08-.671.044-.01-.018.008-.043.038-.056.073-.031.688-.02.633.012zm-.764.032a.486.486 0 0 1-.144.023c-.184.016-.933 0-1.357-.029-.424-.028-1.796-.25-1.817-.293-.025-.05.13-.033.87.094.363.062 1.058.125 1.544.14.618.019.933.042.904.065zm-.47-.504c.029-.013-.02-.029-.149-.068a3.282 3.282 0 0 0-.622-.082c-.227-.01-.427-.046-.444-.08-.016-.033-.064-.043-.105-.022-.136.067-.907-.057-.897-.145.006-.047-.012-.065-.04-.04-.11.098-.465.033-.474-.087-.006-.087-.035-.096-.098-.03-.059.062-.38.002-.972-.182-.486-.15-.945-.315-1.019-.365-.153-.105-.363-.034-.297.1.057.116 2.188.735 2.93.85.82.129 1.832.217 2.054.179.072-.012.117-.02.133-.028zm9.647-4.844a.039.039 0 0 1-.015.006c-.005 0-.003-.008.009-.024a1.94 1.94 0 0 1 .15-.165c.122-.124.28-.301.353-.395.072-.092.155-.152.184-.132.028.02-.095.18-.276.354a3.545 3.545 0 0 1-.406.356zm3.664-1.884c-.01.003-.018-.001-.02-.014-.003-.018.006-.04.022-.062a.229.229 0 0 1 .065-.06c.057-.036.06-.01.009.063-.03.042-.058.068-.076.073zm-2.82 1.04c-.005 0 0-.016.019-.048.029-.052.073-.116.12-.177.047-.062.098-.121.141-.163.086-.083.04.001-.105.188-.098.128-.163.2-.175.2zm1.087-.765c-.006.004-.01.006-.013.006-.009 0-.011-.008-.005-.03a.28.28 0 0 1 .047-.085.29.29 0 0 1 .073-.068c.05-.03.036.014-.029.099a.4.4 0 0 1-.072.077zM12.76 31.18c.02-.01-.052-.05-.16-.088-.106-.038-.209-.062-.228-.052-.02.01.052.049.158.087.107.039.21.063.23.053zm19.367-13.62a.06.06 0 0 1-.017.006c-.018.002-.036-.012-.048-.04a.162.162 0 0 1 .016-.143c.026-.034.062-.025.08.02a.162.162 0 0 1-.015.142.073.073 0 0 1-.016.015zm-.05-.555c-.009.005-.013.002-.012-.008.003-.02.003-.145 0-.277l-.005-.24.049.215c.026.118.027.242 0 .276a.135.135 0 0 1-.033.034zm-.013-.963c-.007.004-.017.002-.03-.007-.012-.01-.023-.092-.024-.184 0-.075 0-.113.005-.114.006-.001.016.035.036.107.03.115.034.185.013.197zm-1.047.124c-.003.003-.005.005-.009.004a.027.027 0 0 1-.015-.007c-.01-.007-.034-.185-.053-.394l-.035-.38.068.375c.048.267.062.378.045.4zm.99-.545c-.003.003-.005.005-.01.004a.03.03 0 0 1-.015-.006c-.01-.007-.034-.184-.053-.393l-.035-.38.068.374c.048.267.062.379.045.401zm-.817.195c-.03.017-.047-.06-.056-.242l-.011-.221.048.215c.027.118.042.224.033.235a.051.051 0 0 1-.014.013zm.7-1.03c-.03.015-.048-.062-.057-.243l-.01-.221.048.214c.027.118.041.225.032.236a.05.05 0 0 1-.013.013zm-.848.359c-.029.014-.046-.07-.062-.295l-.019-.274.055.268c.03.148.048.277.04.288a.045.045 0 0 1-.014.013zm.714-.927c-.03.017-.047-.06-.056-.242l-.01-.221.048.214c.026.118.041.224.032.236a.05.05 0 0 1-.014.013zm-.789.28c-.014.008-.057-.058-.118-.203-.048-.114-.075-.212-.065-.238.003-.004.003-.006.006-.006.023-.004.078.09.121.21.055.148.07.23.056.237zm.674-.744c-.007.004-.017.002-.03-.007-.013-.009-.024-.091-.025-.183 0-.076 0-.114.006-.115.006 0 .017.035.036.108.03.114.035.184.013.197zm-.079-.394c-.025.01-.065-.035-.096-.112-.036-.093-.043-.148-.027-.16.015-.012.052.019.105.098.039.06.052.135.028.166-.003.004-.007.006-.01.008zm-.207-.595c-.015.007-.046-.017-.084-.076-.033-.05-.042-.094-.024-.108l.009-.004c.028-.005.067.03.086.078.026.065.028.103.013.11zm-.181-.506c-.015.007-.045-.017-.084-.075-.032-.05-.042-.095-.024-.108l.009-.004c.029-.005.068.03.087.077.025.065.027.103.012.11zm-.943.115c-.017 0-.055-.052-.09-.125-.04-.084-.062-.166-.049-.183.013-.017.057.038.097.121.04.084.062.166.049.183 0 .002-.004.003-.006.003zm.382-1.36c-.015.007-.046-.016-.084-.075-.033-.05-.042-.095-.024-.108l.009-.004c.028-.005.067.03.086.078.026.064.027.102.013.11zm-.173-.302a.025.025 0 0 1-.01.004c-.028.005-.078-.056-.113-.135-.026-.06-.035-.097-.03-.11.009-.02.056.023.124.128.034.052.045.099.029.113z"/><path d="M27.635 7.4c1.457 1.05 1.887 1.686 2.395 2.245.962.97 1.113 2.02.305 2.286-.25.082-.6.745-.61.805-.04-.33-.032-.156-.102-.372-.018-.003-.133-.22-.146-.237-.159-.164-.354-.248-.228-.367.133-.166-.11-.31-.305-.406-.353-.175-.978-.573-.887-2.154.221-.5-.422-1.8-.422-1.8zM6.038 26.52c-1.457-1.05-1.888-1.687-2.395-2.245-.962-.971-1.113-2.02-.305-2.286.25-.083.6-.746.61-.806.039.33.032.156.101.373.02.003.134.22.146.237.16.164.355.248.229.366-.133.167.11.311.305.407.353.174.978.572.887 2.154-.221.5.422 1.8.422 1.8z" fill-rule="evenodd" stroke="#000" stroke-width=".038"/><path d="M12.638 16.996c-.175.08-3.978 1.725-4.801 2.193.436-.186.768-.243.783-.241.382.21.618.775.51 1.23l-.6.39c.812-.331 4.521-2.303 4.682-2.387l8.907-4.596c.332-.172 1.137-.548 1.027-.947-.245-.321-.976.043-1.379.226z"/><path d="m8.682 18.885-4.54 2.067.835 1.447 4.341-2.274z" fill="#fff" fill-rule="evenodd"/><path d="m4.714 22.425 1.24-.591 3.175-1.656c.11-.455-.127-1.02-.51-1.23-.038-.003-2.043.842-3.353 1.49l-1.167.578c-.08.327.307 1.12.615 1.409z" fill="none" stroke="#000" stroke-width=".173"/><g fill-rule="evenodd"><path d="m3.888 21.139-.164-.302 18.408-8.136zM6.527 20.102l-1.181.59.449.898 1.193-.567-1.158.401-.33-.673zM4.756 22.781l-.181-.292 17.926-9.15z"/></g><path d="m3.833 21.036.425-.215.779 1.535-.426.216zM21.042 16.952c.175-.079 3.977-1.724 4.8-2.192a3.362 3.362 0 0 1-.782.241c-.382-.21-.619-.775-.51-1.23l.6-.39c-.813.33-4.521 2.303-4.683 2.387l-8.906 4.596c-.332.172-1.138.548-1.028.946.246.322.977-.043 1.38-.225z"/><path d="m28.965 11.524-1.24.591-3.175 1.656c-.109.455.128 1.02.51 1.23.038.003 2.044-.842 3.354-1.49l1.166-.578c.081-.327-.306-1.12-.615-1.41z" fill="none" stroke="#000" stroke-width=".173"/><g fill-rule="evenodd"><path d="m29.791 12.81.165.302-18.408 8.136zM27.153 13.847l1.181-.59-.449-.898-1.193.567 1.158-.402.33.674zM28.924 11.167l.18.293-17.925 9.15z"/></g><path d="m29.847 12.912-.425.216-.779-1.535.425-.216z"/></svg>
