<?xml version="1.0" encoding="UTF-8" standalone="no"?>
<svg
   id="Layer_1"
   viewBox="0 0 999.99998 1000"
   version="1.1"
   sodipodi:docname="logo.svg"
   width="1000"
   height="1000"
   inkscape:version="1.4.2 (ebf0e940d0, 2025-05-08)"
   xmlns:inkscape="http://www.inkscape.org/namespaces/inkscape"
   xmlns:sodipodi="http://sodipodi.sourceforge.net/DTD/sodipodi-0.dtd"
   xmlns="http://www.w3.org/2000/svg"
   xmlns:svg="http://www.w3.org/2000/svg"
   xmlns:rdf="http://www.w3.org/1999/02/22-rdf-syntax-ns#"
   xmlns:cc="http://creativecommons.org/ns#"
   xmlns:dc="http://purl.org/dc/elements/1.1/">
  <title
     id="title124">Drawpile Logo</title>
  <sodipodi:namedview
     id="namedview124"
     pagecolor="#ffffff"
     bordercolor="#666666"
     borderopacity="1.0"
     inkscape:showpageshadow="2"
     inkscape:pageopacity="0.0"
     inkscape:pagecheckerboard="0"
     inkscape:deskcolor="#d1d1d1"
     inkscape:zoom="0.26852745"
     inkscape:cx="264.405"
     inkscape:cy="579.08419"
     inkscape:window-width="1920"
     inkscape:window-height="1060"
     inkscape:window-x="1920"
     inkscape:window-y="20"
     inkscape:window-maximized="1"
     inkscape:current-layer="Layer_1" />
  <defs
     id="defs97">
    <linearGradient
       id="linear-gradient"
       x1="90.607002"
       y1="253.09599"
       x2="820.69897"
       y2="326.79099"
       gradientUnits="userSpaceOnUse"
       gradientTransform="matrix(1.2546041,0,0,1.2546041,-90.021689,4.1660178)">
      <stop
         offset="0"
         stop-color="#1f38f1"
         id="stop1" />
      <stop
         offset=".127"
         stop-color="#1f38f1"
         id="stop2" />
      <stop
         offset=".294"
         stop-color="#1727b4"
         id="stop3" />
      <stop
         offset=".321"
         stop-color="#372fbb"
         id="stop4" />
      <stop
         offset=".376"
         stop-color="#7140c8"
         id="stop5" />
      <stop
         offset=".429"
         stop-color="#a24ed3"
         id="stop6" />
      <stop
         offset=".479"
         stop-color="#c959dc"
         id="stop7" />
      <stop
         offset=".525"
         stop-color="#e460e2"
         id="stop8" />
      <stop
         offset=".565"
         stop-color="#f565e6"
         id="stop9" />
      <stop
         offset=".596"
         stop-color="#fb67e8"
         id="stop10" />
      <stop
         offset=".668"
         stop-color="#fb67e8"
         id="stop11" />
      <stop
         offset="1"
         stop-color="#2138f1"
         id="stop12" />
    </linearGradient>
    <linearGradient
       id="linear-gradient-2"
       x1="465.16"
       y1="724.005"
       x2="825.83899"
       y2="318.495"
       gradientUnits="userSpaceOnUse"
       gradientTransform="matrix(1.2546041,0,0,1.2546041,-90.021689,4.1660178)">
      <stop
         offset="0"
         stop-color="#00ffcd"
         id="stop13" />
      <stop
         offset=".435"
         stop-color="#b7c789"
         id="stop14" />
      <stop
         offset=".508"
         stop-color="#d0ac6b"
         id="stop15" />
      <stop
         offset="1"
         stop-color="red"
         id="stop16" />
    </linearGradient>
    <linearGradient
       id="linear-gradient-3"
       x1="581.06403"
       y1="635.91602"
       x2="741.92401"
       y2="635.91602"
       gradientUnits="userSpaceOnUse"
       gradientTransform="matrix(1.2546041,0,0,1.2546041,-90.021689,4.1660178)">
      <stop
         offset="0"
         stop-color="#ff00e5"
         id="stop17" />
      <stop
         offset=".55"
         stop-color="#ff00c4"
         id="stop18" />
      <stop
         offset="1"
         stop-color="#ff0074"
         id="stop19" />
    </linearGradient>
    <linearGradient
       id="linear-gradient-4"
       x1="808.47601"
       y1="599.724"
       x2="827.495"
       y2="238.366"
       gradientUnits="userSpaceOnUse"
       gradientTransform="matrix(1.2546041,0,0,1.2546041,-90.021689,4.1660178)">
      <stop
         offset="0"
         stop-color="#fff"
         id="stop20" />
      <stop
         offset=".094"
         stop-color="#fff9f9"
         id="stop21" />
      <stop
         offset=".219"
         stop-color="#ffe8e8"
         id="stop22" />
      <stop
         offset=".361"
         stop-color="#fcc"
         id="stop23" />
      <stop
         offset=".516"
         stop-color="#ffa5a5"
         id="stop24" />
      <stop
         offset=".682"
         stop-color="#ff7474"
         id="stop25" />
      <stop
         offset=".853"
         stop-color="#ff3838"
         id="stop26" />
      <stop
         offset="1"
         stop-color="red"
         id="stop27" />
    </linearGradient>
    <linearGradient
       id="linear-gradient-5"
       x1="323.96399"
       y1="693.52002"
       x2="620.34399"
       y2="693.52002"
       gradientUnits="userSpaceOnUse"
       gradientTransform="matrix(1.2546041,0,0,1.2546041,-90.021689,4.1660178)">
      <stop
         offset="0"
         stop-color="red"
         id="stop28" />
      <stop
         offset=".508"
         stop-color="#d9d500"
         id="stop29" />
      <stop
         offset="1"
         stop-color="#14d9c7"
         id="stop30" />
    </linearGradient>
    <linearGradient
       id="linear-gradient-6"
       x1="574.203"
       y1="736.41498"
       x2="652.65503"
       y2="595.81097"
       gradientUnits="userSpaceOnUse"
       gradientTransform="matrix(1.2546041,0,0,1.2546041,-90.021689,4.1660178)">
      <stop
         offset="0"
         stop-color="#fff"
         id="stop31" />
      <stop
         offset=".658"
         stop-color="#fff"
         id="stop32" />
    </linearGradient>
    <linearGradient
       id="linear-gradient-7"
       x1="618.66901"
       y1="755.867"
       x2="773.53699"
       y2="544.961"
       gradientUnits="userSpaceOnUse"
       gradientTransform="matrix(1.2546041,0,0,1.2546041,-90.021689,4.1660178)">
      <stop
         offset="0"
         stop-color="#1eff00"
         id="stop33" />
      <stop
         offset=".517"
         stop-color="#1eff00"
         id="stop34" />
      <stop
         offset=".989"
         stop-color="#f06359"
         id="stop35" />
    </linearGradient>
    <linearGradient
       id="linear-gradient-8"
       x1="805.39697"
       y1="584.78699"
       x2="838.00098"
       y2="280.14499"
       gradientUnits="userSpaceOnUse"
       gradientTransform="matrix(1.2546041,0,0,1.2546041,-90.021689,4.1660178)">
      <stop
         offset="0"
         stop-color="#1f38f1"
         id="stop36" />
      <stop
         offset=".743"
         stop-color="#a62996"
         id="stop37" />
      <stop
         offset="1"
         stop-color="red"
         id="stop38" />
    </linearGradient>
    <linearGradient
       id="linear-gradient-9"
       x1="322.83401"
       y1="637.34601"
       x2="690.724"
       y2="637.34601"
       gradientUnits="userSpaceOnUse"
       gradientTransform="matrix(1.2546041,0,0,1.2546041,-90.021689,4.1660178)">
      <stop
         offset="0"
         stop-color="blue"
         id="stop39" />
      <stop
         offset=".508"
         stop-color="#a22aaf"
         id="stop40" />
      <stop
         offset="1"
         stop-color="#eb163e"
         id="stop41" />
    </linearGradient>
    <linearGradient
       id="linear-gradient-10"
       x1="31.976999"
       y1="468.021"
       x2="466.17401"
       y2="468.021"
       gradientUnits="userSpaceOnUse">
      <stop
         offset="0"
         stop-color="red"
         id="stop42" />
      <stop
         offset=".363"
         stop-color="#efe200"
         id="stop43" />
      <stop
         offset=".559"
         stop-color="#00ff30"
         id="stop44" />
      <stop
         offset=".81"
         stop-color="#00fff7"
         id="stop45" />
      <stop
         offset="1"
         stop-color="#00beff"
         id="stop46" />
    </linearGradient>
    <clipPath
       id="clippath">
      <path
         d="m 466.174,395.661 c -0.22,0.31 -0.43,0.61 -0.63,0.93 -1.87,2.11 -10.35,9.65 -47.02,29.28 -1.71,0.91 -3.48,1.85 -5.31,2.82 -64.63,34.13 -146.8,74.26 -266.15,113.1 l -103.45,32.94 c -1.05,0.33 -2.08,0.5 -3.06,0.5 -2,0 -3.69,-0.7 -5.02,-1.79 -1.61,-1.29 -2.7,-3.13 -3.21,-4.96 -0.52,-1.9 -1.19,-6.65 4.04,-9.79 l 76.55,-45.96 c 1.67,-1.06 168.62,-106.43 332.14,-150.98 l 3.46,-0.94 c -0.2,1.01 -0.31,2.06 -0.31,3.13 v 0.23 c 0.97,19.02 17.72,31.21 17.97,31.49 z"
         style="fill:none;stroke-width:0px"
         id="path46" />
    </clipPath>
    <linearGradient
       id="linear-gradient-11"
       x1="257.80499"
       y1="319.32999"
       x2="297.83499"
       y2="519.133"
       gradientUnits="userSpaceOnUse"
       gradientTransform="matrix(1.2546041,0,0,1.2546041,-90.021689,4.1660178)">
      <stop
         offset=".184"
         stop-color="#7642ca"
         stop-opacity="0"
         id="stop47" />
      <stop
         offset=".444"
         stop-color="#a555eb"
         id="stop48" />
      <stop
         offset=".651"
         stop-color="#d660ea"
         id="stop49" />
      <stop
         offset=".849"
         stop-color="#fefeff"
         id="stop50" />
      <stop
         offset="1"
         stop-color="#fefeff"
         id="stop51" />
    </linearGradient>
    <linearGradient
       id="linear-gradient-12"
       x1="106.706"
       y1="403.40399"
       x2="165.8"
       y2="552.159"
       gradientUnits="userSpaceOnUse"
       gradientTransform="matrix(1.2546041,0,0,1.2546041,-90.021689,4.1660178)">
      <stop
         offset=".184"
         stop-color="#7642ca"
         stop-opacity="0"
         id="stop52" />
      <stop
         offset=".366"
         stop-color="#5f45ef"
         id="stop53" />
      <stop
         offset=".64"
         stop-color="#c55cea"
         id="stop54" />
      <stop
         offset=".866"
         stop-color="#fff"
         id="stop55" />
      <stop
         offset="1"
         stop-color="#fff"
         id="stop56" />
    </linearGradient>
    <linearGradient
       id="linear-gradient-13"
       x1="523.03601"
       y1="174.453"
       x2="498.87799"
       y2="37.448002"
       gradientTransform="matrix(1.2546041,0,0,1.2546041,-89.972759,4.1120698)"
       gradientUnits="userSpaceOnUse">
      <stop
         offset=".1"
         stop-color="#f966e8"
         stop-opacity="0"
         id="stop57" />
      <stop
         offset=".101"
         stop-color="#f865e8"
         stop-opacity=".004"
         id="stop58" />
      <stop
         offset=".181"
         stop-color="#c25bea"
         stop-opacity=".264"
         id="stop59" />
      <stop
         offset=".26"
         stop-color="#9352ec"
         stop-opacity=".489"
         id="stop60" />
      <stop
         offset=".336"
         stop-color="#6d4bee"
         stop-opacity=".672"
         id="stop61" />
      <stop
         offset=".409"
         stop-color="#5046ef"
         stop-opacity=".815"
         id="stop62" />
      <stop
         offset=".478"
         stop-color="#3b42f0"
         stop-opacity=".917"
         id="stop63" />
      <stop
         offset=".541"
         stop-color="#2e3ff0"
         stop-opacity=".979"
         id="stop64" />
      <stop
         offset=".593"
         stop-color="#2a3ff1"
         id="stop65" />
      <stop
         offset=".63"
         stop-color="#2f44f1"
         id="stop66" />
      <stop
         offset=".679"
         stop-color="#4053f2"
         id="stop67" />
      <stop
         offset=".735"
         stop-color="#5c6cf4"
         id="stop68" />
      <stop
         offset=".797"
         stop-color="#838ff6"
         id="stop69" />
      <stop
         offset=".862"
         stop-color="#b4bbfa"
         id="stop70" />
      <stop
         offset=".93"
         stop-color="#f0f1fe"
         id="stop71" />
      <stop
         offset=".945"
         stop-color="#fefeff"
         id="stop72" />
    </linearGradient>
    <linearGradient
       id="linear-gradient-14"
       x1="655.54901"
       y1="338.655"
       x2="698.41498"
       y2="68.028"
       gradientUnits="userSpaceOnUse"
       gradientTransform="matrix(1.2546041,0,0,1.2546041,-90.021689,4.1660178)">
      <stop
         offset=".134"
         stop-color="#f966e8"
         stop-opacity="0"
         id="stop73" />
      <stop
         offset=".553"
         stop-color="#5543ef"
         id="stop74" />
      <stop
         offset=".585"
         stop-color="#4341ef"
         id="stop75" />
      <stop
         offset=".624"
         stop-color="#3440f0"
         id="stop76" />
      <stop
         offset=".673"
         stop-color="#2c3ff0"
         id="stop77" />
      <stop
         offset=".753"
         stop-color="#2a3ff1"
         id="stop78" />
      <stop
         offset=".77"
         stop-color="#2f44f1"
         id="stop79" />
      <stop
         offset=".792"
         stop-color="#4053f2"
         id="stop80" />
      <stop
         offset=".818"
         stop-color="#5c6cf4"
         id="stop81" />
      <stop
         offset=".845"
         stop-color="#838ff6"
         id="stop82" />
      <stop
         offset=".875"
         stop-color="#b4bbfa"
         id="stop83" />
      <stop
         offset=".906"
         stop-color="#f0f1fe"
         id="stop84" />
      <stop
         offset=".912"
         stop-color="#fefeff"
         id="stop85" />
    </linearGradient>
    <clipPath
       id="clippath-1">
      <path
         d="m 546.081,249.604 c -22.868,8.151 4.302,36.906 -49.132,45.962 -53.434,9.057 -53.208,61.358 -53.208,61.358 -166.189,45.283 -333.509,151.585 -333.509,151.585 l -76.443,45.895 c -14.099,8.465 -4.333,30.075 11.337,25.087 l 103.483,-32.944 c 123.509,-40.189 206.876,-80.79 266.943,-113.434 56.66,-30.792 55.019,-36 55.019,-36 65.887,22.076 97.811,-32.264 105.623,-68.604 7.288,-33.904 -10.868,-84.226 -30.113,-78.906 z"
         style="fill:none;stroke-width:0px"
         id="path85" />
    </clipPath>
    <linearGradient
       id="linear-gradient-15"
       x1="672.862"
       y1="140.205"
       x2="597.80902"
       y2="156.125"
       gradientUnits="userSpaceOnUse"
       gradientTransform="matrix(1.2546041,0,0,1.2546041,-90.021689,4.1660178)">
      <stop
         offset="0"
         stop-color="#ff0027"
         id="stop86" />
      <stop
         offset=".095"
         stop-color="#f4114e"
         id="stop87" />
      <stop
         offset=".235"
         stop-color="#e62981"
         id="stop88" />
      <stop
         offset=".356"
         stop-color="#dc3aa7"
         id="stop89" />
      <stop
         offset=".454"
         stop-color="#d645be"
         id="stop90" />
      <stop
         offset=".516"
         stop-color="#d449c7"
         id="stop91" />
      <stop
         offset=".564"
         stop-color="#d449c8"
         stop-opacity=".967"
         id="stop92" />
      <stop
         offset=".633"
         stop-color="#d74ccb"
         stop-opacity=".877"
         id="stop93" />
      <stop
         offset=".715"
         stop-color="#db50d0"
         stop-opacity=".728"
         id="stop94" />
      <stop
         offset=".808"
         stop-color="#e055d7"
         stop-opacity=".521"
         id="stop95" />
      <stop
         offset=".907"
         stop-color="#e75ce0"
         stop-opacity=".26"
         id="stop96" />
      <stop
         offset=".995"
         stop-color="#ee64e9"
         stop-opacity="0"
         id="stop97" />
    </linearGradient>
  </defs>
  <g
     id="g3">
    <path
       d="m 999.58817,527.46892 c -7.52762,208.26428 -121.6966,294.83196 -144.27947,308.6326 -22.58287,13.80065 -41.40194,43.91115 -72.76704,66.49402 -31.3651,22.58288 -189.44522,145.53406 -444.12985,67.74862 -45.16575,-18.81906 -42.65654,-21.32827 -27.60129,-37.63812 15.05525,-16.30985 52.06607,-34.50161 52.06607,-34.50161 0,0 -27.60129,-168.11695 227.08334,-255.93924 67.74862,-26.34669 174.38997,-66.49402 207.00968,-94.09531 32.61971,-27.60129 86.56768,-122.9512 60.221,-215.7919 0,0 -82.17657,285.42243 -402.10062,353.17105 -22.45328,4.89251 -115.37904,9.59105 -148.14024,6.36026 -38.33558,-3.78054 -92.47359,-14.57192 -120.15583,-23.64913 -49.84922,-16.34591 -65.6237,-39.69646 -71.34698,-46.70532 -6.74977,-8.24275 0.0217,-13.25178 -0.32957,-13.75362 0.0878,0.20073 0.57712,1.21696 1.39261,2.87304 4.45385,9.0457 18.49287,37.09864 29.9474,54.80111 7.52763,10.03683 13.80065,38.89272 -12.54604,40.14733 C 107.56466,706.8773 26.01539,662.96616 4.6871199,528.72352 4.0096337,523.59219 3.4074237,518.68669 2.893036,513.99447 -7.1563428,423.2615 11.449436,407.20257 20.996973,265.25666 24.760786,222.60012 41.070639,178.68898 88.745595,157.36071 136.42055,136.03244 285.71844,88.357481 299.51908,127.25021 c 13.80065,38.89272 -2.5092,91.5861 -43.91114,150.55249 -15.05525,22.58287 -40.14733,63.98481 5.01842,97.85912 13.80064,11.29144 40.14733,42.65654 40.14733,42.65654 0,0 102.87753,-3.76381 151.80709,-125.46041 15.05525,-37.63812 3.76382,-71.51243 20.07367,-117.93279 16.30985,-46.42035 48.92956,-81.549263 48.92956,-81.549263 0,0 -43.91114,-52.693372 -20.07367,-75.276246 23.83748,-22.5828739 72.76704,-20.0736657 115.42358,25.092082 42.65654,45.165748 32.61971,109.150557 32.61971,109.150557 0,0 40.14733,-18.81906 102.87753,-17.56446 0,0 -12.54604,-71.512431 30.1105,-72.767036 42.65654,-1.254604 60.221,61.475606 66.49402,76.530846 6.27302,15.05525 12.54604,22.58288 36.38352,43.91115 23.83748,21.32827 121.6966,136.75184 114.16897,345.01613 z"
       style="stroke-width:0px"
       id="path97"
       sodipodi:nodetypes="ssscsccsccssccccscccssccccscssccssss" />
    <path
       d="m 292.11065,143.65416 c -5.50772,3.18669 -17.36372,8.59403 -26.52233,2.73503 -10.23757,-6.56158 -1.17933,-19.35854 7.54017,-23.22272 9.83609,2.10774 17.8781,7.766 18.98216,20.48769 z"
       style="fill:#1f38f1;stroke-width:0px"
       id="path98" />
    <path
       d="m 767.73106,469.28665 c -21.65447,27.50092 -42.13837,51.09878 -66.59061,71.56136 -194.76853,162.9899 -406.08195,144.43549 -513.7229,107.98931 -42.85832,-14.5114 -63.20244,-32.16549 -70.65037,-41.24311 -12.05675,-17.01244 -20.939345,-40.43589 -22.495054,-72.66667 -0.150553,-3.01105 -0.238375,-6.10993 -0.250921,-9.28407 0,0 -0.740217,3.24942 -1.430249,8.87005 -2.270833,18.56814 -3.914365,63.00622 24.013124,101.53511 22.58287,30.1105 31.3651,53.94797 15.05525,53.94797 -16.30986,0 -90.331497,-48.92956 -111.659767,-151.80709 -1.279696,-8.73205 -2.195557,-18.0663 -2.822859,-27.66402 -3.111418,-46.94729 0.526933,-99.94177 1.568255,-116.61545 1.254604,-20.07367 16.309853,-115.42358 18.819061,-143.02487 1.242058,-9.89883 3.701082,-56.41955 62.76784,-81.76255 0.8155,-0.35129 1.63099,-0.70258 2.47157,-1.04132 22.65815,-9.24643 42.25507,-16.46041 59.5937,-22.23159 29.70902,-9.92392 52.80628,-15.67 73.39434,-20.42495 2.28338,-0.45166 5.59553,-1.15424 9.49735,-1.80663 8.11729,-1.34243 18.74379,-2.42139 27.83967,-0.45166 -8.7195,3.86418 -17.77774,16.66114 -7.54017,23.22272 9.15861,5.859 21.01461,0.45166 26.52233,-2.73503 0.0878,0.99113 0.138,2.01991 0.138,3.09887 0,25.09208 -10.32539,57.07194 -34.03741,99.50265 -8.30548,14.85451 -18.24194,30.97617 -29.9474,48.54063 -8.78223,13.80065 -7.52762,48.92956 -1.2546,60.221 6.27302,17.56446 58.96639,62.7302 71.51243,72.76704 2.13283,1.70626 4.25311,4.20292 6.24793,7.32688 1.63099,2.5343 3.1616,5.48262 4.54167,8.7446 6.9756,16.48549 10.06192,41.22629 0.50184,62.96858 -5.01842,15.05524 -12.54604,30.11049 -2.50921,96.60451 2.50921,22.58287 -8.78223,45.16575 -33.87431,12.54604 -13.80064,-16.30985 -25.09208,-55.20258 -25.09208,-90.33149 0,-35.12892 1.2546,-57.64906 -18.73124,-68.9405 1.40516,1.06641 19.6471,16.27222 11.20361,80.23193 -3.76381,23.83748 13.80065,102.87754 53.94798,107.89596 45.16575,2.5092 6.27302,-79.04006 23.83748,-132.98804 10.83978,-33.29719 9.25898,-53.20776 4.98078,-65.64089 -1.15424,-3.38743 -2.52176,-6.21029 -3.87673,-8.59403 -1.75645,-3.06124 -3.51289,-5.41989 -4.86786,-7.31435 0,0 134.24264,-31.3651 154.3163,-153.0617 1.84427,-14.20211 3.53798,-26.74815 5.13133,-37.93922 2.27083,-15.83311 4.37857,-28.93117 6.54903,-40.05951 8.81987,-45.00265 18.86925,-57.82471 46.03143,-88.86361 8.78223,-10.03683 13.80064,-26.346687 3.76381,-32.619707 -10.03683,-6.273021 -41.40193,-55.202581 -5.01841,-61.475601 20.07366,-2.509208 81.54926,6.27302 114.16897,90.331498 2.05755,5.34461 3.1616,13.9261 3.51289,24.00057 0.22583,6.6745 0.12546,14.01393 -0.27601,21.51646 -0.8155,15.56964 -2.84795,31.8544 -5.64572,44.3628 -0.0376,0.15056 -0.0627,0.30111 -0.10037,0.45166 0,0 8.68186,-9.92392 10.01174,-33.46029 0.0126,-0.13801 0.0126,-0.27601 0.0251,-0.41402 0,0 18.59324,-11.98147 50.77383,-17.87811 15.08034,-2.76013 33.14664,-4.19037 53.67196,-2.42138 0,0 2.98596,11.718 -3.18669,19.59691 -2.22065,2.83541 -15.77037,14.22721 -32.1806,31.5282 -12.6464,13.34899 -26.99908,30.19833 -39.1311,49.34358 -15.97111,25.16736 -28.12822,54.29927 -27.61383,84.59796 0,0 0.0125,-0.33874 0.0753,-0.99114 v -0.0126 c 0.82804,-8.80732 9.58518,-73.78326 92.2385,-142.44774 18.75633,-19.88548 22.73342,-19.59692 21.02716,-53.11994 -1.70626,-33.523024 4.25311,-64.762666 26.69798,-58.226179 22.44486,6.523942 65.05122,64.198089 67.32205,171.567109 1.6059,75.94119 -36.98573,158.26831 -89.26508,224.68705 z"
       style="fill:url(#linear-gradient);stroke-width:0px"
       id="path99"
       sodipodi:nodetypes="csscccccsccccccccccccscccscccccscccccccccccscccccccccccccccccsccc" />
    <path
       d="m 292.24865,146.75303 c 0,25.09208 -10.32539,57.07194 -34.03741,99.50265 -45.20338,41.21374 -112.36234,23.48619 -112.36234,23.48619 l -2.6974,-7.66563 -6.8125,2.6974 -0.71512,-8.24275 -11.36672,-0.28856 2.6974,-7.23907 -9.93646,0.13801 2.13282,-6.31066 -7.48998,1.45534 2.97341,-7.99183 h -9.47226 l 3.93946,-8.30548 -6.71214,-4.69222 3.41253,-5.97191 -6.185201,-3.82654 4.905501,-6.39848 -7.464893,-1.907 7.678173,-7.25161 -7.464891,-3.19924 7.038331,-5.74609 -6.611765,-4.26566 7.038325,-5.10623 -5.758629,-3.41253 8.744589,-5.31952 -7.38962,-1.76899 c 0.8155,-0.35129 1.63099,-0.70258 2.47157,-1.04132 22.65815,-9.24643 42.25507,-16.46041 59.5937,-22.23159 -1.71881,14.81688 -35.63076,41.80341 -0.35129,75.1006 30.46179,28.76808 85.85256,2.34611 72.21501,-44.09933 -8.04201,-27.4131 3.60071,-45.20338 11.02797,-53.23285 8.11729,-1.34243 18.74379,-2.42139 27.83967,-0.45166 -8.7195,3.86418 -17.77774,16.66114 -7.54017,23.22272 9.15861,5.859 21.01461,0.45166 26.52233,-2.73503 0.0878,0.99113 0.138,2.01991 0.138,3.09887 z"
       style="fill:#ffffff;stroke-width:0px"
       id="path100" />
    <path
       d="m 107.72148,270.16843 c -0.28856,-0.0502 -0.57712,-0.10036 -0.86568,-0.15055 -0.18819,-0.0251 -0.38892,-0.0627 -0.57711,-0.10037 C 76.356379,264.66072 61.84061,252.30287 57.436949,240.9738 49.871687,209.24486 75.46561,197.61468 76.168189,197.31357 l 0.01255,-0.0125 C 60.309993,247.297 100.3695,266.98174 106.8558,269.8046 c 0.55203,0.25092 0.86568,0.36383 0.86568,0.36383 z"
       style="fill:#ffffff;stroke-width:0px"
       id="path101" />
    <path
       d="m 106.86835,270.16843 c -0.20074,-0.0878 -0.38893,-0.16309 -0.58966,-0.25092 -66.180369,-28.02785 -30.925994,-71.6128 -30.110501,-72.60394 l 0.01255,-0.0125 C 60.309993,247.297 100.3695,266.98174 106.8558,269.8046 c 0,0.0878 0.0126,0.15055 0,0.21328 0.0126,0.10037 0.0126,0.15055 0.0126,0.15055 z"
       style="fill:#969696;stroke-width:0px"
       id="path102" />
    <circle
       cx="180.36432"
       cy="190.0607"
       r="15.33879"
       style="fill:#ffffff;stroke-width:0px"
       id="circle102" />
    <path
       d="m 986.53402,522.40659 c -6.82505,106.52843 -65.62834,235.21317 -111.63468,274.40701 0,0 0.0125,-0.0125 0.0125,-0.0376 0.28856,-1.53062 9.82355,-51.13766 12.33276,-108.18451 2.55939,-57.95017 43.04546,-98.00968 49.00483,-153.82701 11.49218,-57.88743 -6.34829,-154.86833 -13.61245,-197.97653 0.0502,0.38893 0.20074,1.50553 0.40147,3.26197 l 0.1631,1.34243 c 2.94832,26.1334 13.88847,153.63882 -44.04915,220.22066 -21.01462,26.69797 -57.95016,56.2439 -76.69395,73.28142 -8.33057,7.57781 -17.10025,18.51796 -25.89503,29.28246 -28.41678,15.21835 -58.46455,28.0404 -157.03879,42.86982 -117.02947,17.61464 -147.13997,83.23044 -147.13997,83.23044 l -4.83023,7.17633 c -15.30617,21.36591 -52.24171,69.37961 -85.65182,85.43854 0,0 -7.66563,-74.57366 62.21582,-140.18946 69.88145,-65.61579 144.44257,-93.31745 220.28339,-118.03315 75.84081,-24.70316 156.23585,-50.56055 188.05261,-135.77326 37.50011,-63.06895 24.42714,-155.67127 13.63754,-180.09842 0,0 10.9276,-89.1898 0.0627,-129.81388 0,0 16.00875,14.23975 36.35843,43.12074 9.04569,12.8346 18.94452,28.55479 28.68025,47.19821 29.68393,56.84611 57.81216,140.90458 55.34059,253.10383 z"
       style="fill:url(#linear-gradient-2);stroke-width:0px"
       id="path103" />
    <path
       d="m 782.57303,790.0011 c 0,0 0.61475,-1.5808 1.7188,-4.45385 -4.47893,20.98953 -14.42794,40.2477 -61.65124,92.22595 -47.17312,51.90297 -75.55226,73.15596 -83.657,78.78914 4.79259,-6.9756 32.88317,-47.80042 48.42772,-71.12351 13.34898,-20.01094 19.63455,-34.53925 21.74229,-39.90896 l 0.41401,-0.56457 c 0,0 21.94303,-39.84622 27.70166,-67.10877 3.82655,-18.17921 23.79984,-55.03948 36.70972,-77.60981 11.2538,-10.03683 20.08621,-18.44268 24.79098,-23.58656 17.61464,-19.29581 41.28902,-28.95626 42.02923,-29.24482 -1.01623,1.38007 -44.75172,60.59738 -58.22617,142.58576 z"
       style="fill:url(#linear-gradient-3);stroke-width:0px"
       id="path104" />
    <path
       d="m 986.53402,522.40659 c -6.82505,106.52843 -65.62834,235.21317 -111.63468,274.40701 0,0 0.0125,-0.0125 0.0125,-0.0376 0.28856,-1.53062 9.82355,-51.13766 12.33276,-108.18451 2.55939,-57.95017 43.04546,-98.00968 49.00483,-153.82701 11.49218,-57.88743 -6.34829,-154.86833 -13.61245,-197.97653 0.0502,0.38893 0.20074,1.50553 0.40147,3.26197 L 902.51318,222.10455 c 9.04569,12.8346 18.94452,28.55479 28.68025,47.19821 29.68393,56.84611 57.81216,140.90458 55.34059,253.10383 z"
       style="fill:url(#linear-gradient-4);stroke-width:0px"
       id="path105" />
    <path
       d="m 636.31128,874.24776 c 0.77786,-2.91068 1.46789,-5.38225 2.01991,-7.28925 -6.8125,18.96962 -41.2012,97.83403 -145.64699,110.94464 -36.08241,4.52912 -67.52279,-2.60957 -92.87834,-6.8125 -54.90147,-9.10842 -83.38099,-25.14226 -83.38099,-25.14226 0,0 89.76693,-0.56458 118.74828,-1.70627 35.78131,-0.42656 101.53511,-22.68324 139.32379,-86.06584 13.21098,-22.15631 42.7569,-46.30743 85.65182,-70.73458 8.29293,-4.71731 17.89065,-11.02797 28.11568,-18.27958 -13.31135,19.12017 -36.64699,57.43578 -51.95316,105.08564 z"
       style="fill:url(#linear-gradient-5);stroke-width:0px"
       id="path106" />
    <path
       d="m 706.50638,849.14313 c -5.5579,9.09588 -17.6021,27.5762 -34.63962,47.33622 z"
       style="fill:#1f38f1;stroke-width:0px"
       id="path107" />
    <path
       d="m 773.97899,700.24672 c -12.90988,22.57033 -32.88317,59.4306 -36.70972,77.60981 -5.75863,27.26255 -27.70166,67.10877 -27.70166,67.10877 l -0.41401,0.56457 c 0.43911,-1.14169 0.69003,-1.86936 0.7904,-2.14537 -0.28856,0.50184 -1.45535,2.5343 -3.43762,5.75863 l -34.63962,47.33622 c -14.50322,16.82424 -32.6448,34.56434 -53.48377,48.18934 0,0 11.85601,-47.90078 17.92829,-70.42093 15.30617,-47.64986 38.64181,-85.96547 51.95316,-105.08564 28.75552,-20.37477 62.404,-48.13916 85.71455,-68.9154 z"
       style="fill:url(#linear-gradient-6);stroke-width:0px"
       id="path108" />
    <path
       d="m 709.944,843.3845 c -0.10037,0.27601 -0.35129,1.00368 -0.7904,2.14537 l -2.64722,3.61326 c 1.98227,-3.22433 3.14906,-5.25679 3.43762,-5.75863 z"
       style="fill:#1f38f1;stroke-width:0px"
       id="path109" />
    <path
       d="m 800.75224,859.88254 c -38.06469,43.17093 -89.76692,76.69395 -162.48378,97.70857 0,0 0.25092,-0.35129 0.71513,-1.02877 8.10474,-5.63318 36.48388,-26.88617 83.657,-78.78914 47.2233,-51.97825 57.17231,-71.23642 61.65124,-92.22595 3.78891,-9.78591 13.3239,-34.55179 23.69948,-62.22836 7.46489,-17.05007 35.58057,-48.57827 52.41736,-48.79155 0,0 17.03752,101.83621 -59.65643,185.3552 z"
       style="fill:url(#linear-gradient-7);stroke-width:0px"
       id="path110" />
    <path
       d="m 986.53402,522.40659 c -6.82505,106.52843 -65.62834,235.21317 -111.63468,274.40701 0,0 0.0125,-0.0125 0.0125,-0.0376 0.65239,-1.14169 15.40654,-27.96513 19.58437,-98.81262 1.98227,-24.42714 15.61982,-55.95534 27.5511,-80.39503 11.93129,-24.42714 65.6158,-108.22215 28.6928,-260.4809 -18.17921,-43.74805 -24.7157,-76.69395 -24.7157,-76.69395 l 5.16897,-11.0907 c 29.68393,56.84611 57.81216,140.90458 55.34059,253.10383 z"
       style="fill:url(#linear-gradient-8);stroke-width:0px"
       id="path111" />
    <path
       d="m 776.56347,664.17685 c -10.97778,13.4619 -21.95557,26.64779 -32.05513,32.6448 -18.17921,10.80214 -36.923,22.73343 -105.09819,36.35843 -34.66471,10.23757 -64.19809,26.71052 -105.11073,111.35866 -32.38133,52.83138 -17.03752,62.49183 -219.29225,98.85025 0,0 12.35785,-17.03752 60.08299,-35.79385 47.72514,-18.74379 68.60175,-66.04236 76.69395,-82.65332 5.63317,-11.54236 14.54086,-25.35555 19.45891,-32.70753 -1.04132,1.48043 -2.27083,3.23688 -3.68854,5.21915 l 4.83023,-7.17633 c 0,0 30.1105,-65.6158 147.13997,-83.23044 98.57424,-14.82942 128.62201,-27.65147 157.03879,-42.86982 z"
       style="fill:url(#linear-gradient-9);stroke-width:0px"
       id="path112" />
    <path
       d="m 637.41659,196.42908 c -0.85313,1.60589 -1.79409,3.17415 -2.82286,4.70476 -10.08702,15.0678 -27.0869,24.42714 -44.689,28.76808 -17.6021,4.32838 -35.9695,4.15273 -54.08598,3.60071 -6.04719,-0.18819 -16.88697,3.19924 -22.62051,1.24206 -4.86787,-1.65608 -26.73562,3.85163 -38.86764,4.49148 2.27083,-15.8331 4.37857,-28.93117 6.54903,-40.05951 8.81987,-45.00265 18.86925,-57.8247 46.03143,-88.86361 8.78223,-10.03683 13.80064,-26.346684 3.76381,-32.619704 -10.03683,-6.273021 -41.40193,-55.202581 -5.01842,-61.475601 20.07367,-2.509208 81.54927,6.27302 114.16898,90.331495 6.23538,16.22203 3.7889,62.22836 -2.40884,89.87984 z"
       style="fill:url(#linear-gradient-13);stroke-width:0px"
       id="path119" />
    <path
       d="M 767.73106,469.28665 C 732.60215,445.16061 651.55472,383.49682 649.71045,326.8389 v -0.0126 c 0.82804,-8.80732 9.58518,-73.78326 92.2385,-142.44774 18.75633,-19.88548 22.73342,-19.59692 21.02716,-53.11994 -1.70626,-33.523024 4.25311,-64.762666 26.69798,-58.226179 22.44486,6.523942 65.05122,64.198089 67.32205,171.567109 1.6059,75.94119 -36.98573,158.26831 -89.26508,224.68705 z"
       style="fill:url(#linear-gradient-14);stroke-width:0px"
       id="path120" />
    <path
       d="m 748.56071,162.3603 c -2.22065,2.83541 -15.77037,14.22721 -32.1806,31.5282 -12.6464,13.34899 -26.99908,30.19833 -39.1311,49.34358 L 647.27652,163.4769 c 0.0126,-0.13801 0.0126,-0.27601 0.0251,-0.41402 0,0 18.59324,-11.98147 50.77383,-17.87811 15.08034,-2.76013 33.14664,-4.19037 53.67196,-2.42138 0,0 2.98596,11.718 -3.18669,19.59691 z"
       style="fill:url(#linear-gradient-15);stroke-width:0px"
       id="path124" />
  </g>
  <g
     id="g1">
    <path
       d="m 188.42891,438.96161 c 16.05015,3.55555 33.41011,9.25396 45.62493,20.67086 0.0703,0.0665 0.12797,0.14052 0.19823,0.20701 15.12425,12.09564 14.08669,33.71121 14.08669,65.80399 0,35.12891 11.29144,74.02164 25.09209,90.33149 25.09208,32.61971 36.38351,10.03683 33.87431,-12.54604 -10.03684,-66.49402 -2.50921,-81.54927 2.5092,-96.60451 9.56009,-21.74229 6.47376,-46.48309 -0.50184,-62.96858 -10.42576,-1.94464 -20.71351,-4.56676 -31.81676,-9.14607 -21.60428,-8.90769 -44.18715,-19.89802 -68.23791,-17.31354 -14.82566,1.59963 -28.82077,8.90017 -39.06712,19.70105 6.02461,0.0213 12.08685,0.50059 18.23818,1.86434 z"
       style="fill:url(#linear-gradient-11);stroke-width:0px"
       id="path117" />
    <path
       d="m 318.59534,511.84282 c -17.56446,53.94798 21.32827,135.49724 -23.83748,132.98804 -40.14733,-5.01842 -57.71179,-84.05848 -53.94798,-107.89596 8.44349,-63.95971 -9.79845,-79.16552 -11.20361,-80.23193 19.98584,11.29144 18.73124,33.86177 18.73124,68.9405 0,35.07873 11.29144,74.02164 25.09208,90.33149 25.09208,32.61971 36.38352,10.03683 33.87431,-12.54604 -10.03683,-66.49402 -2.50921,-81.54927 2.50921,-96.60451 9.56008,-21.74229 6.47376,-46.48309 -0.50184,-62.96858 -1.38007,-3.26198 -2.91068,-6.2103 -4.54167,-8.7446 4.9306,0.9535 9.87374,1.73136 14.92979,2.49667 1.35497,2.38374 2.72249,5.2066 3.87673,8.59403 4.2782,12.43313 5.859,32.3437 -4.98078,65.64089 z"
       style="stroke-width:0px"
       id="path121" />
  </g>
  <g
     id="g2">
    <path
       d="m 19.999563,538.18951 c -1.279696,-8.73205 -2.195557,-18.0663 -2.822859,-27.66402 19.446363,1.36752 37.951774,10.1372 55.792244,17.50172 6.774862,2.78523 13.236073,4.85532 19.622008,6.48631 -2.270833,18.56814 -3.914365,63.00622 24.013124,101.53511 22.58287,30.1105 31.3651,53.94797 15.05525,53.94797 -16.30986,0 -90.331497,-48.92956 -111.659767,-151.80709 z"
       style="fill:url(#linear-gradient-12);stroke-width:0px"
       id="path118" />
    <path
       d="M 134.16854,702.54264 C 107.82185,703.79725 26.272583,659.88611 4.9443137,525.64347 4.2668275,520.51214 3.6646176,515.60663 3.1502299,510.91441 c 0.5269337,-0.0753 1.0538674,-0.138 1.5808011,-0.20073 4.1903777,-0.45166 8.343117,-0.4893 12.445673,-0.18819 0.627302,9.59772 1.543163,18.93197 2.822859,27.66402 21.32827,102.87753 95.349907,151.80709 111.659767,151.80709 16.30985,0 7.52762,-23.83747 -15.05525,-53.94797 -27.927489,-38.52889 -26.283957,-82.96697 -24.013124,-101.53511 0.564572,0.138 1.116598,0.28856 1.68117,0.41402 1.555709,32.23078 10.438304,55.65423 22.495054,72.66667 4.45384,9.04569 18.49286,37.09864 29.9474,54.8011 7.52762,10.03684 13.80064,38.89273 -12.54604,40.14733 z"
       style="stroke-width:0px"
       id="path122" />
  </g>
  <metadata
     id="metadata124">
    <rdf:RDF>
      <cc:Work
         rdf:about="">
        <cc:license
           rdf:resource="http://creativecommons.org/licenses/by-sa/4.0/" />
        <dc:creator>
          <cc:Agent>
            <dc:title>MorrowShore</dc:title>
          </cc:Agent>
        </dc:creator>
        <dc:title>Drawpile Logo</dc:title>
        <dc:contributor>
          <cc:Agent>
            <dc:title>askmeaboutloom</dc:title>
          </cc:Agent>
        </dc:contributor>
      </cc:Work>
      <cc:License
         rdf:about="http://creativecommons.org/licenses/by-sa/4.0/">
        <cc:permits
           rdf:resource="http://creativecommons.org/ns#Reproduction" />
        <cc:permits
           rdf:resource="http://creativecommons.org/ns#Distribution" />
        <cc:requires
           rdf:resource="http://creativecommons.org/ns#Notice" />
        <cc:requires
           rdf:resource="http://creativecommons.org/ns#Attribution" />
        <cc:permits
           rdf:resource="http://creativecommons.org/ns#DerivativeWorks" />
        <cc:requires
           rdf:resource="http://creativecommons.org/ns#ShareAlike" />
      </cc:License>
    </rdf:RDF>
  </metadata>
</svg>
