/* XPM */
static const char * const qtcolortriangle_xpm[] = {
"22 22 33 1",
" 	c None",
".	c #1413D0",
"+	c #54573A",
"@	c #0276FE",
"#	c #6C871B",
"$	c #4DDDBA",
"%	c #8B858B",
"&	c #899E45",
"*	c #3A15FB",
"=	c #F64A5F",
"-	c #B69CA8",
";	c #58E50D",
">	c #FE100C",
",	c #87DDC9",
"'	c #A9DB18",
")	c #2B58F8",
"!	c #6A02FE",
"~	c #04FE1A",
"{	c #FD0F42",
"]	c #028AFE",
"^	c #A9BF63",
"/	c #E485A7",
"(	c #A549F2",
"_	c #FBDB0C",
":	c #FC8210",
"<	c #0AAAFE",
"[	c #8FB7B7",
"}	c #CFE49F",
"|	c #B7DE45",
"1	c #9216FC",
"2	c #C9C5C5",
"3	c #EC0FCD",
"4	c #04F6B2",
"2222222/==>==:22222222",
"22222/3{{{>>>==:222222",
"2222=3{{=/---::::_2222",
"222333/222222222::_222",
"22=33-2222222222}___22",
"2/33-++%222222222}__}2",
"233/2%.+++&-222222}__2",
"/3322&.+++###&2222}_|}",
"(3(222++++##&&&^'|2}||",
"(1/222+++##&&&^''|||'|",
"11-222-#%#%&^^&'||}};|",
"11-222-%%&&^^'|||}}};'",
"(!-2222%&&^^'|}}}22|;;",
"(*(2222--[^2|}}}222;;,",
"-.*22222[22}}}}2222~;|",
"2*.%22222}}}}22222,~;2",
"2%..[2222}}}}2222,~~,2",
"22).)222}}}22222}~~;22",
"222))@[2}}}2222,4~$222",
"2222@@]<,,,},$444$2222",
"22222[<<<4444444|22222",
"2222222[[$$4$,22222222"};
