<?xml version="1.0" encoding="UTF-8" standalone="no"?>
<!-- Created with Inkscape (http://www.inkscape.org/) -->

<svg
   xmlns:dc="http://purl.org/dc/elements/1.1/"
   xmlns:cc="http://creativecommons.org/ns#"
   xmlns:rdf="http://www.w3.org/1999/02/22-rdf-syntax-ns#"
   xmlns:svg="http://www.w3.org/2000/svg"
   xmlns="http://www.w3.org/2000/svg"
   xmlns:sodipodi="http://sodipodi.sourceforge.net/DTD/sodipodi-0.dtd"
   xmlns:inkscape="http://www.inkscape.org/namespaces/inkscape"
   width="32"
   height="32"
   id="svg2"
   version="1.1"
   inkscape:version="0.92.0 r"
   sodipodi:docname="drawpile-mc.svg"
   inkscape:export-filename="/home/calle/src/drawpile/desktop/drawpile-128x128.png"
   inkscape:export-xdpi="88.45993"
   inkscape:export-ydpi="88.45993">
  <defs
     id="defs4">
    <linearGradient
       id="linearGradient4952">
      <stop
         style="stop-color:#1c2122;stop-opacity:1;"
         offset="0"
         id="stop4954" />
      <stop
         style="stop-color:#1c2122;stop-opacity:1;"
         offset="1"
         id="stop4956" />
    </linearGradient>
    <linearGradient
       id="linearGradient4940">
      <stop
         style="stop-color:#2e3436;stop-opacity:1;"
         offset="0"
         id="stop4942" />
      <stop
         style="stop-color:#000000;stop-opacity:1;"
         offset="1"
         id="stop4944" />
    </linearGradient>
    <linearGradient
       id="linearGradient4896">
      <stop
         id="stop4898"
         offset="0"
         style="stop-color:#d3d7cf;stop-opacity:1;" />
      <stop
         style="stop-color:#eeeeec;stop-opacity:1;"
         offset="0.38586235"
         id="stop4900" />
      <stop
         id="stop4902"
         offset="1"
         style="stop-color:#d3d7cf;stop-opacity:1;" />
    </linearGradient>
    <linearGradient
       id="linearGradient4436">
      <stop
         id="stop4438"
         offset="0"
         style="stop-color:#ffffff;stop-opacity:0.44214876" />
      <stop
         id="stop4440"
         offset="1"
         style="stop-color:#ffffff;stop-opacity:0;" />
    </linearGradient>
    <linearGradient
       id="linearGradient4759">
      <stop
         style="stop-color:#ffffff;stop-opacity:1;"
         offset="0"
         id="stop4761" />
      <stop
         style="stop-color:#73d216;stop-opacity:1;"
         offset="1"
         id="stop4763" />
    </linearGradient>
    <linearGradient
       id="linearGradient3805">
      <stop
         style="stop-color:#6593ce;stop-opacity:1;"
         offset="0"
         id="stop3807" />
      <stop
         style="stop-color:#3465a4;stop-opacity:1;"
         offset="1"
         id="stop3809" />
    </linearGradient>
    <linearGradient
       id="linearGradient8344-9-2">
      <stop
         id="stop8346-6-0"
         offset="0"
         style="stop-color:#ce5c00;stop-opacity:1;" />
      <stop
         style="stop-color:#ff860f;stop-opacity:1;"
         offset="0.32546073"
         id="stop8348-8-2" />
      <stop
         id="stop4950"
         offset="0.55417114"
         style="stop-color:#e67107;stop-opacity:1;" />
      <stop
         id="stop8350-2-0"
         offset="1"
         style="stop-color:#ce5c00;stop-opacity:1;" />
    </linearGradient>
    <linearGradient
       id="linearGradient8194-4-7-4">
      <stop
         style="stop-color:#bec4b8;stop-opacity:1;"
         offset="0"
         id="stop8196-5-5-1" />
      <stop
         id="stop8202-4-2-8"
         offset="0.38080257"
         style="stop-color:#dcdcd8;stop-opacity:1;" />
      <stop
         style="stop-color:#9ba492;stop-opacity:1;"
         offset="1"
         id="stop8198-8-6-1" />
    </linearGradient>
    <linearGradient
       id="linearGradient8313-0-7">
      <stop
         style="stop-color:#ffffff;stop-opacity:1;"
         offset="0"
         id="stop8315-4-1" />
      <stop
         id="stop8323-0-9"
         offset="0.22181854"
         style="stop-color:#ffffff;stop-opacity:0;" />
      <stop
         style="stop-color:#ffffff;stop-opacity:0;"
         offset="0.43545151"
         id="stop8325-9-2" />
      <stop
         id="stop8321-3-3"
         offset="0.65514421"
         style="stop-color:#ffffff;stop-opacity:0;" />
      <stop
         style="stop-color:#ffffff;stop-opacity:1;"
         offset="1"
         id="stop8317-2-9" />
    </linearGradient>
    <linearGradient
       id="linearGradient8352-6-4">
      <stop
         id="stop8354-3-6"
         offset="0"
         style="stop-color:#ffffff;stop-opacity:1;" />
      <stop
         style="stop-color:#ffffff;stop-opacity:0;"
         offset="0.22181854"
         id="stop8356-5-5" />
      <stop
         id="stop8358-2-0"
         offset="0.28083938"
         style="stop-color:#ffffff;stop-opacity:0;" />
      <stop
         style="stop-color:#ffffff;stop-opacity:0;"
         offset="0.65514421"
         id="stop8360-4-3" />
      <stop
         id="stop8362-0-8"
         offset="1"
         style="stop-color:#ffffff;stop-opacity:1;" />
    </linearGradient>
  </defs>
  <sodipodi:namedview
     id="base"
     pagecolor="#ffffff"
     bordercolor="#666666"
     borderopacity="1.0"
     inkscape:pageopacity="0.0"
     inkscape:pageshadow="2"
     inkscape:zoom="5.6568542"
     inkscape:cx="13.384901"
     inkscape:cy="16.099359"
     inkscape:document-units="px"
     inkscape:current-layer="layer1"
     showgrid="false"
     inkscape:window-width="1084"
     inkscape:window-height="988"
     inkscape:window-x="0"
     inkscape:window-y="39"
     inkscape:window-maximized="0">
    <inkscape:grid
       type="xygrid"
       id="grid2985"
       empspacing="2"
       visible="true"
       enabled="true"
       snapvisiblegridlinesonly="true"
       spacingx="0.5"
       spacingy="0.5"
       originx="0"
       originy="0" />
  </sodipodi:namedview>
  <metadata
     id="metadata7">
    <rdf:RDF>
      <cc:Work
         rdf:about="">
        <dc:format>image/svg+xml</dc:format>
        <dc:type
           rdf:resource="http://purl.org/dc/dcmitype/StillImage" />
        <dc:title></dc:title>
      </cc:Work>
    </rdf:RDF>
  </metadata>
  <g
     inkscape:label="Globe"
     inkscape:groupmode="layer"
     id="layer1"
     transform="translate(0,-1090.5197)"
     style="display:inline">
    <ellipse
       style="fill:#232629;fill-opacity:1;stroke:#232629;stroke-width:0.90392226;stroke-linecap:round;stroke-linejoin:round;stroke-miterlimit:4;stroke-dasharray:none;stroke-opacity:1"
       id="path2989"
       cx="16.50923"
       cy="1107.3171"
       rx="14.171751"
       ry="14.176555" />
    <path
       inkscape:connector-curvature="0"
       style="display:inline;fill:#fcfcfc;fill-opacity:1;stroke:none;stroke-width:1.06666672"
       d="m 19.595461,1093.7083 c -0.143029,0.062 -0.235152,0.1396 -0.152236,0.2076 0.797702,0.2738 1.596409,0.5879 2.421931,0.7476 0.154954,0.2925 -0.514395,0.374 0.0692,0.5537 0.319527,0.1565 0.24472,0.6655 -0.110721,0.3047 0.408552,-0.091 -0.188505,-0.3455 -0.415187,-0.3324 -0.315637,0.052 -0.580961,-0.07 -0.885736,-0.027 -0.361435,0.1003 -0.175956,0.5826 -0.179914,0.8583 0.329281,0.2416 -0.414919,0.5893 -0.02768,0.8168 0.158616,0.2151 0.475125,0.5971 0.70582,0.2631 0.265921,-0.2514 0.430451,0.365 0.69198,0.429 0.41928,0.1586 0.295973,-0.3563 0.138397,-0.5537 0.14782,-0.431 -0.377753,-0.2878 -0.498227,-0.5953 0.07085,-0.2006 -0.387586,-0.7149 0.05536,-0.5675 0.0213,0.3542 0.405153,1.0045 0.816537,0.7752 0.483078,-0.2856 -0.177519,0.3237 0.221434,0.4015 0.02169,0.2971 0.481269,0.6409 -0.04152,0.6784 -0.456434,-0.1934 -1.376023,-0.089 -1.190206,0.5676 0.04487,0.2512 -0.381642,0.4164 -0.401347,0.6784 -0.286401,0.046 -0.527715,0.1341 -0.581264,0.4429 0.437083,-0.022 1.10824,0.9237 0.470546,0.8999 -0.320343,0.042 -0.753995,-0.096 -0.982612,0.18 0.333379,0.3528 0.07921,0.8863 0.304471,1.2737 0.229464,-0.039 0.563937,0.051 0.761178,0.2352 0.217875,-0.1789 0.623257,-0.08 0.747339,-0.4013 0.173542,-0.3598 -0.14757,-0.9326 0.401348,-1.1215 -0.08536,-0.4209 0.495738,-0.078 0.608943,-0.4707 0.219517,-0.1683 0.482824,0.3092 0.747337,0.3462 0.337165,0.1067 0.801255,0.2684 0.899574,0.623 -0.114788,0.1816 -0.982882,0.1143 -0.193753,0.3738 0.453828,0.1537 0.265422,-0.328 0.387507,-0.5815 -0.573085,-0.2834 0.457232,-0.1694 -0.221433,-0.4153 -0.404316,-0.1833 -0.863046,-0.3229 -1.148685,-0.6784 0.138292,-0.2664 1.082364,0.4825 1.411638,0.6646 0.223215,0.3164 0.5989,0.523 0.858056,0.8029 0.275379,-0.013 0.116567,-0.6276 -0.166076,-0.6507 -0.03095,-0.7475 0.652558,0.3686 0.913415,0.4846 0.345136,0.1512 0.577606,-0.2786 0.871893,-0.2215 0.229126,0.4249 0.63171,1.4328 -0.09689,1.1906 -0.24274,0.4783 -0.944509,-0.1947 -1.287082,0.1523 0.0091,0.66 -0.02623,0.5192 -0.581265,0.3875 -0.241188,-0.223 -0.573922,-0.1872 -0.885733,-0.2077 -0.476026,-0.047 -0.1464,-0.4587 -0.429027,-0.6782 -0.121639,-0.3931 -0.490953,-0.069 -0.761179,-0.028 -0.354407,0.1362 -0.752758,0.028 -1.065648,0.2769 -0.283064,0.5972 -0.86254,0 -1.162527,0.3184 -0.217458,0.4936 -0.740617,0.7698 -0.567424,1.4121 -0.31093,0.3096 -0.66668,0.5897 -0.885734,0.9554 -0.0084,0.5511 -0.805756,0.9522 -0.221434,1.495 0.09983,0.7636 -0.481442,1.4204 0.166075,2.049 0.676394,0.518 0.950924,1.288 1.812988,1.606 0.797937,0.077 1.643292,-0.2021 2.39425,-0.5122 0.645735,-0.3779 0.967472,0.456 1.536196,0.3461 0.278171,0.5365 -0.210568,1.2945 0.415188,1.8274 0.508308,0.6334 0.590939,1.5455 0.0692,2.2011 -0.181122,0.3318 -0.365356,0.7263 -0.221435,1.1077 0.07691,0.4804 0.146406,0.9661 -0.01386,1.4398 0.426358,0.4406 -0.57731,1.6801 0.290634,1.4121 0.578698,-0.2163 1.139287,-0.5209 1.591553,-0.9415 0.178031,-0.2031 0.359742,-0.4095 0.525903,-0.623 0.03715,-0.039 0.06983,-0.079 0.09689,-0.1245 0.164111,-0.2779 0.179016,-0.6406 0.512066,-0.7891 0.03754,-0.025 0.06813,-0.053 0.09689,-0.082 0.03613,-0.056 0.07536,-0.1094 0.110721,-0.1662 0.0046,-0.013 0.0096,-0.018 0.01383,-0.028 0.126645,-0.2845 0.111649,-0.6519 0.304468,-0.8859 0.113607,-0.1156 0.24377,-0.224 0.373674,-0.3323 0.0027,0 0.01106,-0.013 0.01383,-0.014 0.174373,-0.3553 0.326273,-0.7222 0.470544,-1.0938 0.113937,-0.7512 0.217732,-1.5039 0.304472,-2.2566 0.18982,-0.6187 0.436663,-1.2299 0.608943,-1.8552 0.02072,-0.311 0.02768,-0.6248 0.02768,-0.9413 0,-0.5857 -0.04072,-1.1637 -0.110709,-1.7306 -0.08294,0.1578 -0.117787,0.3715 -0.249114,0.5123 -0.34639,-0.3073 -0.633941,-0.6885 -0.913412,-1.0522 -0.225584,-0.3983 -0.46111,-0.7922 -0.581263,-1.2321 -0.241424,-0.4427 -0.795035,-0.735 -0.844217,-1.2599 0.41904,0.2635 0.609463,0.7616 0.954934,1.1076 0.148091,0.5436 0.830775,0.7511 0.885735,1.3567 0.04718,0.7031 0.461599,0.788 0.581262,0.1245 0.03039,-0.058 0.05034,-0.1194 0.0692,-0.1799 -0.945376,-5.5757 -5.18729,-10.0193 -10.656495,-11.2553 z m -4.110361,0.2492 -1.536196,0.083 c 0.21717,0.4791 1.307521,0.8486 0.608943,1.5367 -0.650702,0.2541 -0.918887,1.553 0.04152,1.426 0.540185,-0.3013 0.86416,-0.8627 1.577715,-0.9276 0.78599,-0.064 1.079794,-0.8172 0.954932,-1.509 0.115195,-0.7972 -1.251243,-0.053 -1.646912,-0.6091 z m -3.681335,0.2213 c -0.811489,0.2907 -1.591073,0.6515 -2.3250522,1.08 -0.1716205,0.1105 -0.3492116,0.2176 -0.5259055,0.3183 -0.028392,0.017 -0.054446,0.039 -0.083041,0.056 -0.5202282,0.3409 -1.0120669,0.7161 -1.4808375,1.1215 -0.010409,0.013 -0.017325,0.029 -0.02768,0.04 -0.3200841,0.3825 -0.6162845,0.7868 -0.9826117,1.1215 -1.0056059,1.0249 -1.9325358,2.1909 -2.2835341,3.6133 -0.2567394,0.9883 -0.7534701,1.9566 -0.595103,2.9903 0.6105607,0.8346 0.9668638,1.7135 1.1625263,2.7135 0.2538011,0.4289 0.5040124,0.6609 0.7473384,0.2769 0.3310715,0.807 0.033409,1.5837 -0.3459902,2.2566 -0.3260848,1.0043 0.3246925,1.9094 0.7334993,2.8519 0.4535007,0.8744 0.8131141,1.6855 1.563875,2.2289 0.3206051,1.1071 0.5639345,2.293 1.1902045,3.2673 0.4676688,0.5618 0.5325332,0.9368 0.9826127,1.2874 0.4598693,0.2659 0.948186,0.5072 1.439318,0.72 -0.234908,-0.2543 -0.620791,-0.8832 -0.941092,-1.3153 0.233659,0.035 0.307072,-0.3997 0.719658,-0.2907 0.353946,-0.267 -0.473626,-0.7895 0.318311,-0.4846 0.544167,-0.4999 0.722401,-1.243 0.968773,-1.8136 0.789476,-0.1391 1.55997,-0.2911 1.605393,-1.2873 0.107912,-0.8516 0.561234,-1.5471 0.885735,-2.2567 -0.05061,-0.6615 -0.911626,-0.5939 -1.217885,-1.1353 -0.933303,0.034 -1.870274,-0.6992 -2.477288,-1.2598 -0.0991,-1.3201 -1.6156689,-1.0951 -2.1174602,-2.0904 -0.2644842,-0.9791 -1.437961,-0.3086 -1.8129866,-1.2876 -0.7601027,-0.1319 -1.1239091,1.0509 -1.7714691,0.2492 -0.5939325,-0.4062 0.5016623,-1.6164 -0.5259051,-1.9105 -0.2180095,-0.3678 0.8038377,-1.5242 0.1107161,-1.2459 -0.6365561,0.9918 -0.6234698,-0.4898 -0.4013481,-1.0107 0.2657287,-0.6232 0.3299344,-0.9896 1.0933283,-0.9691 1.0532798,0.03 0.6544036,0.9018 0.6919798,1.3568 0.6394473,-0.2987 0.2525919,-1.8092 1.4531585,-1.8968 0.5574278,-0.7755 1.30228,-1.2937 2.228176,-1.8135 0.3572254,-0.3146 0.5666194,0.5399 1.0518104,0.069 0.733842,-0.154 -0.752272,-0.5034 0.0692,-0.6921 -0.713082,-0.6511 1.704276,-0.452 0.650461,-0.2077 -0.820975,0.3062 1.321378,1.3316 0.830376,0.18 -0.04777,-0.583 0.07482,-1.057 -0.193755,-1.6337 0.20608,-0.5024 0.06572,-0.6526 -0.359828,-0.3046 0.238766,-0.5272 -0.297235,-0.9712 -0.304472,-1.4397 -0.701234,-0.016 0.44998,-0.3086 0.595103,0.069 0.622675,-0.4184 -0.277444,-1.2474 -0.276794,-1.5229 h -0.04152 z m 1.134848,0.277 c 0.03742,0.2224 -0.56092,0.505 -0.235274,0.6646 0.513668,0.2299 -0.136956,0.5171 -0.401347,0.5814 -0.494773,0.033 -0.236719,0.4609 -0.04152,0.7198 0.262881,0.2147 0.08221,-0.1817 0.332151,-0.1384 0.481723,0.3142 0.09105,-0.3576 0.318309,-0.4982 -0.08516,0.3791 0.432086,0.3296 0.567425,0.096 -0.108408,-0.079 -0.319964,-0.557 0.08304,-0.5538 l 0.02768,-0.4707 -0.650461,-0.4015 z m 4.221079,1.6891 c -0.05996,0.019 -0.208313,-0.013 -0.221434,0.069 -0.0252,0.1233 0.170894,0.122 0.166075,0.2353 -0.09356,0.1384 0.04157,0.2039 0.166076,0.1938 0.1878,0.018 0.392742,-0.013 0.567423,-0.082 0.119274,-0.043 0.213057,-0.2269 0.110721,-0.3323 -0.17389,-0.096 -0.377499,-0.06 -0.567425,-0.056 l -0.124561,0.1105 z m -6.795245,0.2076 c 1.542655,0.1693 -0.6207226,1.7932 -0.5674234,0.526 0.094263,-0.254 0.3134844,-0.4421 0.5674234,-0.526 z m 9.217175,0.9691 c -0.251922,0.018 -0.344777,0.3112 -0.09689,0.4153 0.04242,0.2436 0.256599,0.2556 0.442868,0.3047 0.325622,0.1654 -0.298144,0.4953 0.04152,0.5676 0.267201,-0.049 -0.201908,0.4508 0.138398,0.2767 0.196868,-0.2126 0.666768,-0.1715 0.70582,-0.4844 0.03265,-0.1982 -0.04872,-0.5593 -0.318312,-0.4015 -0.216105,0.1436 -0.438731,-0.048 -0.539743,-0.2354 -0.01004,-0.2565 -0.190113,-0.2971 -0.373671,-0.443 z m 6.739883,0.6507 c 0.304543,0.2359 0.38222,0.7327 0.830376,0.7891 0.290547,0.2524 0.504376,0.5916 0.802695,0.8307 0.163634,0.6828 -0.681323,-0.3169 -0.802695,-0.4985 -0.368074,-0.2969 -0.987801,-0.5344 -0.830376,-1.1213 z m -6.905959,0.028 c -0.196248,0.04 -0.506724,0.2825 -0.249113,0.4569 -0.132787,0.095 -0.134733,0.1774 0.01384,0.2493 0.06841,0.096 0.142354,0.039 0.221432,-0.014 0.09529,-0.068 0.257436,-0.088 0.249113,-0.2355 0.02488,-0.1802 -0.07108,-0.3727 -0.235273,-0.4569 z m 6.144782,0.5401 c 0.241403,0.1376 0.258826,0.4853 0.622785,0.4428 0.22677,0.061 0.707037,0.5414 0.332147,0.5954 -0.310027,0.052 -0.574513,-0.1945 -0.816536,0.1245 -0.560198,0.3751 -0.57309,-0.4126 -0.6643,-0.7754 -0.138082,-0.55 0.46488,0.1818 0.595102,-0.014 -0.133293,-0.057 -0.490118,-0.3097 -0.0692,-0.3737 z m -2.74024,1.6196 c -0.06654,0.051 -0.09194,0.1611 -0.02768,0.2216 0.06109,0.075 0.168739,-0.013 0.124561,-0.096 -0.01042,-0.059 -0.05419,-0.091 -0.09689,-0.1245 z m 0.0692,0.3462 c -0.02912,0.065 -0.01468,0.1411 0,0.2076 0.03837,0.091 0.05276,0.2043 0.124561,0.2769 0.09898,0.013 0.137315,-0.1511 0.152235,-0.2354 -0.0421,-0.1246 -0.156697,-0.2064 -0.276792,-0.2491 z m -17.2579817,3.2811 -0.2767921,0.1245 v 0.1661 c 0,0 0.065245,-0.039 0.1245563,-0.083 0.059311,-0.044 0.2075946,0 0.2075946,0 l 0.096877,0.083 0.1937546,0.2077 0.1522354,0.2215 c 0,0 0.088969,0.1552 0.069199,0.1801 -0.019767,0.026 -0.096878,0.1106 -0.096878,0.1106 l 0.1937547,0.1106 c 0,0 0.3242418,0.013 0.3736693,0.013 0.049429,0 0.02768,-0.096 0.02768,-0.096 l -0.35983,-0.4567 -0.3459901,-0.3739 -0.3598295,-0.2077 z m 1.2732435,1.2044 c -0.044413,0 -0.095141,0.049 -0.083038,0.096 0.1591439,0.1348 -0.069425,0.1306 -0.096877,0.1799 -0.049141,0 -0.1087767,-0.023 -0.1522354,0.014 -0.043785,0.032 -0.051688,0.099 0,0.1246 0.095129,0.068 0.2201931,0.064 0.3183111,0.1245 0.1426154,0.035 0.2856125,-0.024 0.4290268,0 0.077761,-0.013 0.1436359,0.064 0.2214345,0.042 0.091705,-0.1233 -0.0756,-0.2151 -0.1245563,-0.3047 -0.1353999,-0.1801 -0.3185064,-0.1928 -0.4705464,-0.263 -0.012715,-0.013 -0.026716,-0.014 -0.041522,-0.014 z m -0.9549331,0.1384 c 0.01686,0.075 -0.050034,0.2067 0.1107175,0.2492 0.072899,0 0.1708466,-0.067 0.1522359,-0.1522 -0.058447,-0.066 -0.2291349,-0.1093 -0.2629529,-0.096 z m 1.7853088,0.4708 c -0.034601,0.1144 0.1215914,0.1533 0.2352733,0.1383 0.1136824,-0.015 -0.047453,-0.1041 -0.2352733,-0.1383 z"
       id="path4548" />
    <path
       style="display:inline;fill:#232629;fill-opacity:1;stroke:none;stroke-width:1;stroke-linecap:butt;stroke-linejoin:miter;stroke-miterlimit:4;stroke-dasharray:none;stroke-opacity:1"
       d="m 13.125203,1093.7788 c -0.931337,-1.4703 -7.746822,-3.002 -8.8250496,-1.6538 -1.0782267,1.3483 -1.3477829,2.6064 -0.8985216,2.6961 0.4492614,0.091 5.0762588,-0.511 6.0646322,0.12 0.988376,0.6292 3.658939,-1.1605 3.658939,-1.1605 z"
       id="path4447"
       inkscape:connector-curvature="0"
       sodipodi:nodetypes="cscsc" />
    <path
       style="display:inline;fill:#232629;fill-opacity:1;stroke:#fcfcfc;stroke-width:1;stroke-linecap:butt;stroke-linejoin:miter;stroke-miterlimit:4;stroke-dasharray:none;stroke-opacity:1"
       d="m 2.2684383,1100.9293 c -0.9324744,1.6395 0.1112652,3.1111 1.1867327,2.4873 7.767089,-4.506 20.637945,-6.4482 22.454289,-6.7865 0.878931,-0.1637 0.188441,-1.2188 -0.620445,-2.2544 -0.521934,-0.6681 0.843652,-1.0135 -1.190748,-3.0486 -1.310765,-1.3112 -11.080279,0.523 -13.748745,2.3663 -3.0812859,2.1285 -7.1486093,5.5963 -8.0810837,7.2359 z"
       id="path4445"
       inkscape:connector-curvature="0"
       sodipodi:nodetypes="zsssssz" />
  </g>
</svg>
