<?xml version="1.0" standalone="no"?>
<!DOCTYPE svg PUBLIC "-//W3C//DTD SVG 20010904//EN"
 "http://www.w3.org/TR/2001/REC-SVG-20010904/DTD/svg10.dtd">
<svg version="1.0" xmlns="http://www.w3.org/2000/svg"
 width="315.000000pt" height="315.000000pt" viewBox="0 0 315.000000 315.000000"
 preserveAspectRatio="xMidYMid meet">
<metadata>
Created by potrace 1.14, written by Peter Selinger 2001-2017
</metadata>
<g transform="translate(0.000000,315.000000) scale(0.100000,-0.100000)"
fill="#000000" stroke="none">
<path d="M1263 2767 c-46 -23 -83 -47 -83 -54 0 -17 -10 -16 -53 2 -76 32
-250 11 -352 -43 -16 -9 -52 -16 -80 -16 -46 -1 -51 -4 -80 -43 -35 -48 -42
-52 -47 -20 -9 62 -84 -14 -119 -121 -12 -37 -29 -74 -39 -82 -30 -25 -41 -82
-39 -206 1 -90 -3 -130 -15 -164 -22 -59 -14 -121 22 -161 21 -23 41 -32 90
-40 l64 -11 -20 -21 c-15 -15 -40 -21 -104 -27 -205 -19 -307 -75 -332 -182
-10 -42 25 -72 72 -63 57 10 100 9 197 -5 106 -16 270 -2 373 30 77 24 105 25
122 4 12 -13 4 -24 -56 -77 -159 -141 -219 -217 -237 -297 -9 -36 22 -83 67
-104 45 -21 95 -9 121 30 9 14 27 29 40 34 13 5 59 31 102 58 110 69 170 98
240 116 188 49 307 144 370 295 12 31 23 49 23 41 0 -9 -16 -49 -35 -89 -20
-41 -32 -78 -28 -82 15 -14 203 38 286 79 90 45 284 169 306 195 30 37 28 14
-4 -32 -18 -27 -54 -95 -81 -150 -26 -56 -49 -99 -51 -97 -2 1 17 46 41 99 25
53 41 99 36 102 -5 3 -24 -2 -42 -11 -55 -28 -186 -123 -192 -139 -6 -16 -95
-59 -146 -70 -18 -4 -54 -28 -81 -54 -44 -43 -49 -52 -49 -92 0 -32 6 -52 22
-68 19 -21 28 -23 80 -18 64 6 191 64 262 120 32 25 38 27 33 11 -3 -10 -8
-40 -12 -67 -6 -42 -10 -49 -43 -66 -20 -10 -57 -24 -82 -31 -96 -25 -170 -87
-170 -142 0 -43 16 -65 62 -89 33 -17 53 -20 97 -16 75 7 178 38 235 70 46 26
47 26 114 12 119 -26 221 -17 352 28 25 9 90 30 146 46 55 17 126 43 157 59
31 16 57 24 57 18 0 -28 -186 -183 -277 -229 -66 -34 -199 -77 -239 -77 -60 0
-229 -45 -280 -75 l-44 -26 -6 41 c-8 50 -37 88 -81 107 -30 12 -41 12 -86 -1
-100 -29 -269 -147 -407 -284 -166 -164 -280 -189 -280 -60 0 43 34 221 55
292 23 74 20 161 -6 187 -15 15 -28 19 -46 14 -33 -8 -191 -114 -271 -182 -59
-50 -76 -58 -112 -53 -36 4 -54 85 -30 131 6 10 7 19 2 19 -5 0 -21 -27 -36
-60 -32 -71 -29 -109 12 -141 42 -33 104 -23 178 30 173 122 217 152 220 148
2 -2 -14 -74 -36 -161 -60 -236 -55 -313 28 -388 99 -89 218 -55 417 117 117
102 262 205 288 205 13 0 11 -14 -15 -82 -38 -106 -35 -175 13 -250 17 -26 35
-48 40 -48 16 0 82 30 99 44 33 30 122 46 251 46 242 0 338 42 538 234 245
237 315 375 381 748 22 129 25 229 9 328 -9 62 -18 98 -56 228 -9 31 -17 70
-18 85 -1 15 -15 42 -32 60 -16 18 -38 44 -49 58 -10 14 -54 69 -96 122 -43
53 -78 100 -78 106 0 18 -62 61 -110 75 -27 8 -93 37 -146 65 -88 47 -102 51
-164 51 -48 0 -71 4 -80 15 -16 19 -83 19 -215 0 -126 -18 -135 -18 -135 0 0
66 -262 -77 -457 -251 l-52 -46 -6 39 c-17 114 -28 152 -54 203 l-29 55 102
-3 c105 -3 133 5 123 32 -9 22 -212 24 -224 2 -6 -11 -16 -7 -47 20 -27 23
-34 34 -22 34 20 0 133 56 159 78 9 8 17 21 17 29 0 23 -42 13 -127 -30z
m-177 -186 c-15 -16 -22 -17 -53 -8 -29 9 -32 12 -17 18 11 4 34 8 53 8 33 1
33 0 17 -18z m49 -214 c6 -13 18 -21 30 -20 11 1 38 -4 60 -12 40 -13 40 -13
37 -62 -7 -111 -42 -179 -103 -198 -27 -9 -114 36 -178 92 l-51 45 42 39 c24
21 53 38 65 39 26 0 38 17 34 48 -3 27 25 63 43 56 6 -2 16 -14 21 -27z m-492
-27 c56 -44 40 -140 -22 -140 -43 0 -61 10 -72 38 -12 32 5 87 34 107 27 19
29 19 60 -5z m1557 -453 c0 -1 -25 -27 -56 -57 -31 -30 -51 -45 -45 -33 12 23
101 103 101 90z m-309 -464 c-12 -20 -14 -14 -5 12 4 9 9 14 11 11 3 -2 0 -13
-6 -23z m-277 -96 c6 -15 6 -30 2 -34 -10 -10 -36 26 -36 50 0 26 23 16 34
-16z m-14 -67 c0 -5 -4 -10 -10 -10 -5 0 -10 5 -10 10 0 6 5 10 10 10 6 0 10
-4 10 -10z"/>
</g>
</svg>
